<?xml version="1.0" encoding="utf-8" standalone="no"?>
<!DOCTYPE svg PUBLIC "-//W3C//DTD SVG 1.1//EN"
  "http://www.w3.org/Graphics/SVG/1.1/DTD/svg11.dtd">
<!-- Created with matplotlib (https://matplotlib.org/) -->
<svg height="720pt" version="1.1" viewBox="0 0 576 720" width="576pt" xmlns="http://www.w3.org/2000/svg" xmlns:xlink="http://www.w3.org/1999/xlink">
 <defs>
  <style type="text/css">
*{stroke-linecap:butt;stroke-linejoin:round;}
  </style>
 </defs>
 <g id="figure_1">
  <g id="patch_1">
   <path d="M 0 720 
L 576 720 
L 576 0 
L 0 0 
z
" style="fill:none;"/>
  </g>
  <g id="axes_1">
   <g id="patch_2">
    <path d="M 72 640.8 
L 518.4 640.8 
L 518.4 86.4 
L 72 86.4 
z
" style="fill:none;"/>
   </g>
   <g id="matplotlib.axis_1">
    <g id="xtick_1">
     <g id="line2d_1">
      <defs>
       <path d="M 0 0 
L 0 3.5 
" id="m88ebd4085f" style="stroke:#000000;stroke-width:0.8;"/>
      </defs>
      <g>
       <use style="stroke:#000000;stroke-width:0.8;" x="92.290909" xlink:href="#m88ebd4085f" y="640.8"/>
      </g>
     </g>
     <g id="text_1">
      <text style="font-family:Arial;font-size:18px;font-style:normal;font-weight:regular;text-anchor:middle;" transform="rotate(-0, 92.290909, 660.684062)" x="92.290909" y="660.684062">Dors.</text>
     </g>
    </g>
    <g id="xtick_2">
     <g id="line2d_2">
      <g>
       <use style="stroke:#000000;stroke-width:0.8;" x="500.148378" xlink:href="#m88ebd4085f" y="640.8"/>
      </g>
     </g>
     <g id="text_2">
      <text style="font-family:Arial;font-size:18px;font-style:normal;font-weight:regular;text-anchor:middle;" transform="rotate(-0, 500.148378, 660.684062)" x="500.148378" y="660.684062">Vent.</text>
     </g>
    </g>
    <g id="text_3">
     <text style="font-family:Arial;font-size:18px;font-style:normal;font-weight:normal;text-anchor:middle;" transform="rotate(-0, 295.2, 681.145625)" x="295.2" y="681.145625">Retinal D-V axis</text>
    </g>
   </g>
   <g id="matplotlib.axis_2">
    <g id="ytick_1">
     <g id="line2d_3">
      <defs>
       <path d="M 0 0 
L -3.5 0 
" id="ma75a19ea9f" style="stroke:#000000;stroke-width:0.8;"/>
      </defs>
      <g>
       <use style="stroke:#000000;stroke-width:0.8;" x="72" xlink:href="#ma75a19ea9f" y="615.6"/>
      </g>
     </g>
     <g id="text_4">
      <text style="font-family:Arial;font-size:18px;font-style:normal;font-weight:regular;text-anchor:end;" transform="rotate(-0, 65, 622.042031)" x="65" y="622.042031">0.0</text>
     </g>
    </g>
    <g id="ytick_2">
     <g id="line2d_4">
      <g>
       <use style="stroke:#000000;stroke-width:0.8;" x="72" xlink:href="#ma75a19ea9f" y="514.8"/>
      </g>
     </g>
     <g id="text_5">
      <text style="font-family:Arial;font-size:18px;font-style:normal;font-weight:regular;text-anchor:end;" transform="rotate(-0, 65, 521.242031)" x="65" y="521.242031">0.2</text>
     </g>
    </g>
    <g id="ytick_3">
     <g id="line2d_5">
      <g>
       <use style="stroke:#000000;stroke-width:0.8;" x="72" xlink:href="#ma75a19ea9f" y="414"/>
      </g>
     </g>
     <g id="text_6">
      <text style="font-family:Arial;font-size:18px;font-style:normal;font-weight:regular;text-anchor:end;" transform="rotate(-0, 65, 420.442031)" x="65" y="420.442031">0.4</text>
     </g>
    </g>
    <g id="ytick_4">
     <g id="line2d_6">
      <g>
       <use style="stroke:#000000;stroke-width:0.8;" x="72" xlink:href="#ma75a19ea9f" y="313.2"/>
      </g>
     </g>
     <g id="text_7">
      <text style="font-family:Arial;font-size:18px;font-style:normal;font-weight:regular;text-anchor:end;" transform="rotate(-0, 65, 319.642031)" x="65" y="319.642031">0.6</text>
     </g>
    </g>
    <g id="ytick_5">
     <g id="line2d_7">
      <g>
       <use style="stroke:#000000;stroke-width:0.8;" x="72" xlink:href="#ma75a19ea9f" y="212.4"/>
      </g>
     </g>
     <g id="text_8">
      <text style="font-family:Arial;font-size:18px;font-style:normal;font-weight:regular;text-anchor:end;" transform="rotate(-0, 65, 218.842031)" x="65" y="218.842031">0.8</text>
     </g>
    </g>
    <g id="ytick_6">
     <g id="line2d_8">
      <g>
       <use style="stroke:#000000;stroke-width:0.8;" x="72" xlink:href="#ma75a19ea9f" y="111.6"/>
      </g>
     </g>
     <g id="text_9">
      <text style="font-family:Arial;font-size:18px;font-style:normal;font-weight:regular;text-anchor:end;" transform="rotate(-0, 65, 118.042031)" x="65" y="118.042031">1.0</text>
     </g>
    </g>
    <g id="text_10">
     <text style="font-family:Arial;font-size:18px;font-style:normal;font-weight:normal;text-anchor:middle;" transform="rotate(-90, 32.4025, 363.6)" x="32.4025" y="363.6">Normalised expression</text>
    </g>
   </g>
   <g id="line2d_9">
    <path clip-path="url(#p05d1088d71)" d="M 92.290909 425.008126 
L 94.330196 396.301675 
L 96.369484 392.305806 
L 98.408771 343.763918 
L 100.448058 342.391808 
L 102.487346 319.322651 
L 104.526633 301.952254 
L 106.565921 278.505275 
L 110.644495 201.691581 
L 112.683783 149.83958 
L 114.72307 130.464083 
L 116.762357 126.610036 
L 118.801645 120.047697 
L 120.840932 115.414513 
L 122.880219 111.6 
L 124.919507 119.354567 
L 126.958794 119.108924 
L 128.998081 122.964022 
L 131.037369 137.131806 
L 133.076656 126.315367 
L 135.115943 145.134359 
L 137.155231 147.027857 
L 139.194518 169.246229 
L 141.233805 168.986888 
L 143.273093 190.105198 
L 145.31238 200.656738 
L 147.351667 201.534498 
L 149.390955 185.421606 
L 151.430242 192.056164 
L 153.469529 209.505509 
L 155.508817 169.357801 
L 157.548104 176.947924 
L 159.587392 177.35771 
L 161.626679 196.39663 
L 163.665966 206.217429 
L 167.744541 242.812069 
L 169.783828 247.227156 
L 171.823116 255.067459 
L 173.862403 232.40139 
L 177.940978 270.961204 
L 179.980265 288.194135 
L 182.019552 307.893982 
L 184.05884 285.09297 
L 186.098127 306.899363 
L 188.137414 308.140917 
L 194.255276 346.347993 
L 196.294564 336.272569 
L 198.333851 324.062389 
L 200.373138 317.483077 
L 202.412426 299.087238 
L 204.451713 288.3082 
L 206.491 298.922195 
L 208.530288 297.761601 
L 210.569575 292.463766 
L 212.608862 293.623128 
L 214.64815 329.832345 
L 216.687437 313.058346 
L 218.726725 312.275064 
L 220.766012 305.207859 
L 222.805299 306.413124 
L 224.844587 319.003288 
L 226.883874 279.27561 
L 228.923161 259.390412 
L 230.962449 267.223115 
L 233.001736 272.668329 
L 235.041023 281.788608 
L 237.080311 281.140659 
L 239.119598 267.656302 
L 241.158885 258.755531 
L 243.198173 261.862585 
L 245.23746 275.791605 
L 247.276747 300.868294 
L 249.316035 306.621576 
L 251.355322 306.904049 
L 253.394609 331.567378 
L 255.433897 336.290533 
L 257.473184 322.915614 
L 259.512471 335.428334 
L 261.551759 318.028046 
L 263.591046 350.54868 
L 265.630333 349.453605 
L 267.669621 364.734083 
L 269.708908 351.19774 
L 271.748196 341.529548 
L 273.787483 388.311213 
L 275.82677 364.605434 
L 277.866058 364.045684 
L 279.905345 348.50633 
L 281.944632 356.591075 
L 283.98392 369.973864 
L 286.023207 357.526363 
L 288.062494 399.816186 
L 290.101782 404.684634 
L 292.141069 415.427413 
L 294.180356 400.922496 
L 296.219644 433.590796 
L 298.258931 441.371468 
L 300.298218 451.708517 
L 304.376793 461.11968 
L 306.41608 457.090706 
L 308.455368 475.75242 
L 310.494655 485.892702 
L 312.533942 476.570039 
L 314.57323 474.022644 
L 316.612517 496.530992 
L 318.651804 521.658405 
L 320.691092 511.723316 
L 322.730379 516.773848 
L 324.769667 526.398774 
L 326.808954 525.318411 
L 328.848241 536.858982 
L 330.887529 538.736769 
L 332.926816 530.372428 
L 334.966103 537.690855 
L 337.005391 547.820939 
L 339.044678 555.000176 
L 341.083965 573.744803 
L 343.123253 604.042938 
L 345.16254 614.217892 
L 347.201827 614.066669 
L 349.241115 615.6 
L 351.280402 611.111558 
L 353.319689 608.290816 
L 355.358977 605.197235 
L 357.398264 579.624553 
L 359.437551 585.433381 
L 361.476839 575.335261 
L 363.516126 560.363951 
L 365.555413 573.827862 
L 367.594701 565.024494 
L 369.633988 562.550669 
L 371.673275 554.763624 
L 373.712563 553.68369 
L 375.75185 553.764319 
L 377.791138 539.346205 
L 379.830425 535.594447 
L 381.869712 549.349472 
L 383.909 558.798028 
L 385.948287 560.755449 
L 387.987574 561.155348 
L 390.026862 553.708109 
L 392.066149 550.713682 
L 394.105436 553.576268 
L 396.144724 555.141931 
L 398.184011 555.07164 
L 400.223298 553.062579 
L 402.262586 559.546899 
L 404.301873 556.538105 
L 406.34116 558.559448 
L 408.380448 560.817802 
L 412.459022 546.100783 
L 414.49831 551.301061 
L 416.537597 549.148048 
L 418.576884 559.570094 
L 420.616172 560.796267 
L 422.655459 558.113967 
L 424.694746 571.81129 
L 426.734034 556.816188 
L 428.773321 557.240735 
L 430.812608 551.758146 
L 432.851896 543.948477 
L 434.891183 531.283361 
L 436.930471 526.420283 
L 438.969758 526.843662 
L 441.009045 524.359894 
L 443.048333 519.979578 
L 445.08762 534.86306 
L 447.126907 543.322285 
L 449.166195 536.891344 
L 451.205482 531.588176 
L 453.244769 542.484584 
L 455.284057 535.759484 
L 457.323344 535.038461 
L 461.401919 552.291714 
L 463.441206 548.200128 
L 465.480493 548.744354 
L 467.519781 554.324196 
L 469.559068 558.530831 
L 471.598355 564.356624 
L 473.637643 568.104038 
L 475.67693 566.708176 
L 477.716217 564.793311 
L 479.755505 567.712964 
L 481.794792 571.892322 
L 483.834079 563.580334 
L 485.873367 569.217445 
L 487.912654 570.124751 
L 489.951942 572.315896 
L 491.991229 567.469814 
L 494.030516 559.120925 
L 496.069804 560.083299 
L 498.109091 554.881613 
L 498.109091 554.881613 
" style="fill:none;stroke:#cd5c5c;stroke-linecap:square;stroke-width:3;"/>
   </g>
   <g id="line2d_10">
    <path clip-path="url(#p05d1088d71)" d="M 92.290909 394.571704 
L 94.330196 363.976681 
L 96.369484 356.504197 
L 98.408771 343.971109 
L 100.448058 353.865779 
L 102.487346 362.17691 
L 104.526633 355.580834 
L 106.565921 333.594857 
L 108.605208 321.125126 
L 110.644495 334.53309 
L 112.683783 296.514069 
L 114.72307 308.54151 
L 116.762357 303.496468 
L 118.801645 326.958888 
L 120.840932 320.865003 
L 122.880219 340.840474 
L 124.919507 326.364502 
L 126.958794 295.388923 
L 128.998081 272.804925 
L 131.037369 268.877969 
L 133.076656 256.426863 
L 135.115943 251.207344 
L 137.155231 230.802802 
L 139.194518 219.171297 
L 141.233805 244.168708 
L 143.273093 274.021064 
L 145.31238 243.272894 
L 147.351667 248.439601 
L 149.390955 235.191964 
L 151.430242 172.126055 
L 155.508817 145.951828 
L 157.548104 157.590963 
L 159.587392 166.934384 
L 161.626679 136.936691 
L 163.665966 140.845112 
L 165.705254 160.977215 
L 167.744541 167.18231 
L 169.783828 159.579089 
L 171.823116 126.77502 
L 173.862403 172.69728 
L 175.90169 192.343804 
L 177.940978 216.57812 
L 182.019552 246.78003 
L 184.05884 238.667978 
L 186.098127 245.931469 
L 188.137414 262.650764 
L 190.176702 261.650197 
L 192.215989 262.256809 
L 194.255276 261.168704 
L 196.294564 223.096 
L 198.333851 219.71173 
L 200.373138 238.444475 
L 202.412426 251.194457 
L 204.451713 246.442612 
L 206.491 245.212564 
L 208.530288 251.933459 
L 210.569575 244.613642 
L 212.608862 257.703264 
L 214.64815 233.981022 
L 216.687437 245.204904 
L 218.726725 230.037544 
L 220.766012 201.327217 
L 222.805299 206.366521 
L 224.844587 187.609503 
L 226.883874 217.787651 
L 228.923161 202.39853 
L 230.962449 173.465451 
L 233.001736 142.146507 
L 235.041023 116.16427 
L 237.080311 127.618925 
L 239.119598 122.797055 
L 241.158885 135.589785 
L 243.198173 143.71932 
L 245.23746 140.963472 
L 247.276747 123.842623 
L 249.316035 212.765079 
L 251.355322 310.752629 
L 253.394609 111.6 
L 255.433897 135.281837 
L 257.473184 147.305794 
L 259.512471 152.152477 
L 261.551759 157.723052 
L 263.591046 178.601937 
L 265.630333 181.757357 
L 267.669621 163.359145 
L 269.708908 179.239162 
L 271.748196 196.232428 
L 273.787483 210.596979 
L 275.82677 226.835261 
L 277.866058 214.322121 
L 279.905345 230.375923 
L 281.944632 264.396792 
L 283.98392 226.370891 
L 286.023207 245.057464 
L 288.062494 259.04224 
L 290.101782 262.715111 
L 292.141069 280.58821 
L 294.180356 264.291799 
L 298.258931 315.965208 
L 300.298218 315.803799 
L 302.337506 348.134486 
L 304.376793 366.250344 
L 306.41608 363.794033 
L 308.455368 371.713689 
L 310.494655 430.443503 
L 312.533942 388.37173 
L 314.57323 383.515464 
L 316.612517 401.476643 
L 318.651804 388.769425 
L 320.691092 395.105377 
L 322.730379 431.83529 
L 324.769667 409.144212 
L 326.808954 408.972439 
L 328.848241 425.566764 
L 330.887529 443.769095 
L 332.926816 427.604938 
L 334.966103 447.14315 
L 337.005391 422.583087 
L 339.044678 440.062007 
L 341.083965 467.569052 
L 343.123253 451.04361 
L 345.16254 446.583461 
L 347.201827 471.062309 
L 349.241115 469.650755 
L 351.280402 462.565721 
L 353.319689 440.511116 
L 355.358977 459.093192 
L 357.398264 450.610543 
L 359.437551 457.892148 
L 361.476839 477.409993 
L 363.516126 462.34719 
L 365.555413 428.776887 
L 367.594701 471.550261 
L 369.633988 482.56156 
L 371.673275 473.435979 
L 373.712563 502.902258 
L 375.75185 494.342029 
L 377.791138 513.248334 
L 379.830425 506.656765 
L 381.869712 513.453595 
L 383.909 515.016307 
L 385.948287 510.901446 
L 387.987574 507.743744 
L 390.026862 518.181918 
L 392.066149 498.948145 
L 394.105436 493.323632 
L 396.144724 512.176623 
L 398.184011 518.009093 
L 400.223298 530.719278 
L 402.262586 530.916781 
L 404.301873 533.392476 
L 406.34116 528.214894 
L 408.380448 517.70424 
L 410.419735 535.876868 
L 412.459022 519.649723 
L 414.49831 536.529856 
L 416.537597 528.014094 
L 418.576884 538.823684 
L 420.616172 534.225596 
L 422.655459 537.173907 
L 424.694746 539.143693 
L 426.734034 556.352487 
L 428.773321 556.483577 
L 430.812608 543.988288 
L 432.851896 535.243391 
L 434.891183 546.793816 
L 436.930471 538.69357 
L 438.969758 552.013424 
L 441.009045 530.413035 
L 443.048333 534.359082 
L 445.08762 552.473033 
L 447.126907 563.357916 
L 449.166195 561.765325 
L 451.205482 572.872495 
L 453.244769 586.129168 
L 455.284057 603.54497 
L 457.323344 596.333921 
L 459.362631 597.365627 
L 461.401919 596.865899 
L 463.441206 603.151959 
L 465.480493 604.155879 
L 467.519781 593.807266 
L 469.559068 603.089581 
L 471.598355 604.731803 
L 473.637643 606.193399 
L 475.67693 606.396336 
L 477.716217 597.981637 
L 479.755505 599.919056 
L 481.794792 603.997752 
L 483.834079 598.31364 
L 485.873367 596.478438 
L 487.912654 585.073688 
L 489.951942 572.062134 
L 491.991229 583.16728 
L 494.030516 589.791136 
L 496.069804 604.98328 
L 498.109091 615.6 
L 498.109091 615.6 
" style="fill:none;stroke:#ff6eb4;stroke-linecap:square;stroke-width:3;"/>
   </g>
   <g id="patch_3">
    <path d="M 72 640.8 
L 72 86.4 
" style="fill:none;stroke:#000000;stroke-linecap:square;stroke-linejoin:miter;stroke-width:0.8;"/>
   </g>
   <g id="patch_4">
    <path d="M 518.4 640.8 
L 518.4 86.4 
" style="fill:none;stroke:#000000;stroke-linecap:square;stroke-linejoin:miter;stroke-width:0.8;"/>
   </g>
   <g id="patch_5">
    <path d="M 72 640.8 
L 518.4 640.8 
" style="fill:none;stroke:#000000;stroke-linecap:square;stroke-linejoin:miter;stroke-width:0.8;"/>
   </g>
   <g id="patch_6">
    <path d="M 72 86.4 
L 518.4 86.4 
" style="fill:none;stroke:#000000;stroke-linecap:square;stroke-linejoin:miter;stroke-width:0.8;"/>
   </g>
   <g id="legend_1">
    <g id="patch_7">
     <path d="M 376.152187 151.83 
L 505.8 151.83 
Q 509.4 151.83 509.4 148.23 
L 509.4 99 
Q 509.4 95.4 505.8 95.4 
L 376.152187 95.4 
Q 372.552187 95.4 372.552187 99 
L 372.552187 148.23 
Q 372.552187 151.83 376.152187 151.83 
z
" style="fill:#ffffff;opacity:0.8;stroke:#cccccc;stroke-linejoin:miter;"/>
    </g>
    <g id="line2d_11">
     <path d="M 379.752187 109.2375 
L 415.752187 109.2375 
" style="fill:none;stroke:#cd5c5c;stroke-linecap:square;stroke-width:3;"/>
    </g>
    <g id="line2d_12"/>
    <g id="text_11">
     <text style="font-family:Arial;font-size:18px;font-style:normal;font-weight:regular;text-anchor:start;" transform="rotate(-0, 430.152187, 115.5375)" x="430.152187" y="115.5375">ephrinB1</text>
    </g>
    <g id="line2d_13">
     <path d="M 379.752187 134.7525 
L 415.752187 134.7525 
" style="fill:none;stroke:#ff6eb4;stroke-linecap:square;stroke-width:3;"/>
    </g>
    <g id="line2d_14"/>
    <g id="text_12">
     <text style="font-family:Arial;font-size:18px;font-style:normal;font-weight:regular;text-anchor:start;" transform="rotate(-0, 430.152187, 141.0525)" x="430.152187" y="141.0525">ephrinB2</text>
    </g>
   </g>
  </g>
 </g>
 <defs>
  <clipPath id="p05d1088d71">
   <rect height="554.4" width="446.4" x="72" y="86.4"/>
  </clipPath>
 </defs>
</svg>
