<?xml version="1.0" encoding="utf-8" standalone="no"?>
<!DOCTYPE svg PUBLIC "-//W3C//DTD SVG 1.1//EN"
  "http://www.w3.org/Graphics/SVG/1.1/DTD/svg11.dtd">
<!-- Created with matplotlib (https://matplotlib.org/) -->
<svg height="720pt" version="1.1" viewBox="0 0 576 720" width="576pt" xmlns="http://www.w3.org/2000/svg" xmlns:xlink="http://www.w3.org/1999/xlink">
 <defs>
  <style type="text/css">
*{stroke-linecap:butt;stroke-linejoin:round;}
  </style>
 </defs>
 <g id="figure_1">
  <g id="patch_1">
   <path d="M 0 720 
L 576 720 
L 576 0 
L 0 0 
z
" style="fill:none;"/>
  </g>
  <g id="axes_1">
   <g id="patch_2">
    <path d="M 72 338.4 
L 518.4 338.4 
L 518.4 86.4 
L 72 86.4 
z
" style="fill:none;"/>
   </g>
   <g id="matplotlib.axis_1">
    <g id="xtick_1">
     <g id="line2d_1">
      <defs>
       <path d="M 0 0 
L 0 3.5 
" id="m89b3c4cad8" style="stroke:#000000;stroke-width:0.8;"/>
      </defs>
      <g>
       <use style="stroke:#000000;stroke-width:0.8;" x="92.290909" xlink:href="#m89b3c4cad8" y="338.4"/>
      </g>
     </g>
     <g id="text_1">
      <text style="font-family:Arial;font-size:18px;font-style:normal;font-weight:regular;text-anchor:middle;" transform="rotate(-0, 92.290909, 358.284063)" x="92.290909" y="358.284063">Dors.</text>
     </g>
    </g>
    <g id="xtick_2">
     <g id="line2d_2">
      <g>
       <use style="stroke:#000000;stroke-width:0.8;" x="500.148378" xlink:href="#m89b3c4cad8" y="338.4"/>
      </g>
     </g>
     <g id="text_2">
      <text style="font-family:Arial;font-size:18px;font-style:normal;font-weight:regular;text-anchor:middle;" transform="rotate(-0, 500.148378, 358.284063)" x="500.148378" y="358.284063">Vent.</text>
     </g>
    </g>
    <g id="text_3">
     <text style="font-family:Arial;font-size:18px;font-style:normal;font-weight:normal;text-anchor:middle;" transform="rotate(-0, 295.2, 378.745625)" x="295.2" y="378.745625">Tectal D-V axis</text>
    </g>
   </g>
   <g id="matplotlib.axis_2">
    <g id="ytick_1">
     <g id="line2d_3">
      <defs>
       <path d="M 0 0 
L -3.5 0 
" id="me32c6d04e0" style="stroke:#000000;stroke-width:0.8;"/>
      </defs>
      <g>
       <use style="stroke:#000000;stroke-width:0.8;" x="72" xlink:href="#me32c6d04e0" y="326.945455"/>
      </g>
     </g>
     <g id="text_4">
      <text style="font-family:Arial;font-size:18px;font-style:normal;font-weight:regular;text-anchor:end;" transform="rotate(-0, 65, 333.387486)" x="65" y="333.387486">0.0</text>
     </g>
    </g>
    <g id="ytick_2">
     <g id="line2d_4">
      <g>
       <use style="stroke:#000000;stroke-width:0.8;" x="72" xlink:href="#me32c6d04e0" y="281.127273"/>
      </g>
     </g>
     <g id="text_5">
      <text style="font-family:Arial;font-size:18px;font-style:normal;font-weight:regular;text-anchor:end;" transform="rotate(-0, 65, 287.569304)" x="65" y="287.569304">0.2</text>
     </g>
    </g>
    <g id="ytick_3">
     <g id="line2d_5">
      <g>
       <use style="stroke:#000000;stroke-width:0.8;" x="72" xlink:href="#me32c6d04e0" y="235.309091"/>
      </g>
     </g>
     <g id="text_6">
      <text style="font-family:Arial;font-size:18px;font-style:normal;font-weight:regular;text-anchor:end;" transform="rotate(-0, 65, 241.751122)" x="65" y="241.751122">0.4</text>
     </g>
    </g>
    <g id="ytick_4">
     <g id="line2d_6">
      <g>
       <use style="stroke:#000000;stroke-width:0.8;" x="72" xlink:href="#me32c6d04e0" y="189.490909"/>
      </g>
     </g>
     <g id="text_7">
      <text style="font-family:Arial;font-size:18px;font-style:normal;font-weight:regular;text-anchor:end;" transform="rotate(-0, 65, 195.93294)" x="65" y="195.93294">0.6</text>
     </g>
    </g>
    <g id="ytick_5">
     <g id="line2d_7">
      <g>
       <use style="stroke:#000000;stroke-width:0.8;" x="72" xlink:href="#me32c6d04e0" y="143.672727"/>
      </g>
     </g>
     <g id="text_8">
      <text style="font-family:Arial;font-size:18px;font-style:normal;font-weight:regular;text-anchor:end;" transform="rotate(-0, 65, 150.114759)" x="65" y="150.114759">0.8</text>
     </g>
    </g>
    <g id="ytick_6">
     <g id="line2d_8">
      <g>
       <use style="stroke:#000000;stroke-width:0.8;" x="72" xlink:href="#me32c6d04e0" y="97.854545"/>
      </g>
     </g>
     <g id="text_9">
      <text style="font-family:Arial;font-size:18px;font-style:normal;font-weight:regular;text-anchor:end;" transform="rotate(-0, 65, 104.296577)" x="65" y="104.296577">1.0</text>
     </g>
    </g>
    <g id="text_10">
     <text style="font-family:Arial;font-size:18px;font-style:normal;font-weight:normal;text-anchor:middle;" transform="rotate(-90, 32.191563, 212.4)" x="32.191563" y="212.4">Normalised expression (E6)</text>
    </g>
   </g>
   <g id="line2d_9">
    <path clip-path="url(#pbc1d168241)" d="M 92.290909 292.097355 
L 94.330196 260.208276 
L 98.408771 326.945455 
L 100.448058 323.923607 
L 102.487346 311.784918 
L 104.526633 319.006181 
L 106.565921 303.742459 
L 108.605208 212.166351 
L 110.644495 289.918654 
L 112.683783 266.671132 
L 114.72307 258.541336 
L 116.762357 285.293831 
L 118.801645 226.431764 
L 120.840932 262.330292 
L 122.880219 280.427545 
L 124.919507 258.63976 
L 126.958794 272.103894 
L 128.998081 284.075037 
L 131.037369 254.788537 
L 133.076656 283.863 
L 135.115943 271.512081 
L 137.155231 276.358854 
L 139.194518 234.441847 
L 141.233805 240.92126 
L 143.273093 254.342432 
L 145.31238 237.296981 
L 147.351667 251.699536 
L 149.390955 230.625595 
L 151.430242 225.43917 
L 153.469529 227.911537 
L 155.508817 260.599229 
L 157.548104 272.998142 
L 159.587392 260.903828 
L 161.626679 223.21606 
L 163.665966 229.206095 
L 165.705254 218.73506 
L 167.744541 242.574122 
L 169.783828 252.121759 
L 171.823116 289.074209 
L 173.862403 219.410737 
L 175.90169 203.934396 
L 177.940978 159.728695 
L 179.980265 209.957237 
L 182.019552 251.655042 
L 184.05884 280.050482 
L 186.098127 232.363581 
L 188.137414 251.151545 
L 190.176702 276.551337 
L 192.215989 232.641001 
L 194.255276 242.878837 
L 196.294564 241.890176 
L 198.333851 225.442085 
L 200.373138 225.727841 
L 202.412426 226.357495 
L 204.451713 255.468584 
L 206.491 256.792609 
L 208.530288 255.386484 
L 210.569575 260.341991 
L 212.608862 229.216718 
L 214.64815 223.578371 
L 216.687437 223.12959 
L 218.726725 221.02654 
L 220.766012 182.21561 
L 222.805299 185.050131 
L 224.844587 243.682612 
L 226.883874 258.873197 
L 228.923161 251.264055 
L 230.962449 247.547961 
L 233.001736 246.351506 
L 235.041023 279.760872 
L 237.080311 247.952125 
L 239.119598 206.404947 
L 241.158885 224.71951 
L 243.198173 199.045525 
L 245.23746 219.560695 
L 247.276747 241.536993 
L 249.316035 269.840102 
L 251.355322 253.753415 
L 253.394609 256.652053 
L 255.433897 265.052734 
L 259.512471 204.680021 
L 261.551759 161.530416 
L 263.591046 179.181167 
L 265.630333 238.041582 
L 267.669621 262.00618 
L 269.708908 248.214435 
L 271.748196 230.583975 
L 273.787483 207.75678 
L 275.82677 226.485817 
L 277.866058 235.983299 
L 279.905345 183.815989 
L 281.944632 200.455815 
L 283.98392 238.503499 
L 286.023207 208.223968 
L 288.062494 211.1433 
L 290.101782 230.661944 
L 292.141069 222.991355 
L 294.180356 221.874133 
L 296.219644 231.546985 
L 298.258931 271.439737 
L 300.298218 234.454205 
L 302.337506 214.12227 
L 304.376793 225.539171 
L 306.41608 202.113791 
L 308.455368 212.634789 
L 310.494655 213.875062 
L 312.533942 223.970656 
L 314.57323 236.075593 
L 316.612517 255.212842 
L 318.651804 242.782379 
L 320.691092 229.374152 
L 322.730379 214.518412 
L 324.769667 243.289617 
L 326.808954 224.7055 
L 328.848241 258.496848 
L 330.887529 263.618166 
L 332.926816 317.142034 
L 334.966103 270.465472 
L 337.005391 209.904447 
L 339.044678 215.019512 
L 341.083965 226.066072 
L 343.123253 250.415677 
L 345.16254 243.296615 
L 347.201827 235.258368 
L 349.241115 216.475675 
L 351.280402 226.285663 
L 353.319689 237.970542 
L 355.358977 227.851189 
L 357.398264 223.692608 
L 359.437551 218.03412 
L 361.476839 215.022263 
L 363.516126 227.762992 
L 365.555413 247.248352 
L 367.594701 279.307493 
L 369.633988 313.28648 
L 371.673275 287.777995 
L 373.712563 252.841617 
L 377.791138 191.558799 
L 379.830425 227.710591 
L 381.869712 207.396837 
L 383.909 195.09088 
L 385.948287 220.784371 
L 387.987574 243.930755 
L 390.026862 204.265937 
L 392.066149 217.504304 
L 394.105436 215.585595 
L 396.144724 218.206582 
L 398.184011 243.703299 
L 400.223298 255.801941 
L 402.262586 237.048203 
L 404.301873 206.051367 
L 406.34116 217.322715 
L 408.380448 216.469455 
L 410.419735 195.666952 
L 412.459022 208.625941 
L 414.49831 207.109976 
L 416.537597 183.089317 
L 418.576884 199.401467 
L 420.616172 143.793898 
L 422.655459 150.249708 
L 424.694746 203.953909 
L 426.734034 224.090716 
L 428.773321 200.83269 
L 430.812608 231.680346 
L 432.851896 216.953562 
L 434.891183 212.175159 
L 436.930471 202.79349 
L 441.009045 153.523794 
L 443.048333 146.634946 
L 445.08762 193.114418 
L 447.126907 173.636138 
L 449.166195 198.331129 
L 451.205482 237.052688 
L 453.244769 195.085213 
L 455.284057 183.72528 
L 457.323344 236.900914 
L 459.362631 223.179239 
L 461.401919 240.941722 
L 463.441206 203.066342 
L 465.480493 185.752566 
L 467.519781 180.316407 
L 469.559068 156.933131 
L 471.598355 135.775314 
L 473.637643 159.91776 
L 475.67693 134.863523 
L 477.716217 152.32073 
L 479.755505 136.75949 
L 481.794792 127.11394 
L 483.834079 112.882822 
L 485.873367 125.073915 
L 487.912654 173.023075 
L 489.951942 100.756017 
L 491.991229 110.256565 
L 494.030516 149.200467 
L 496.069804 117.039833 
L 498.109091 97.854545 
L 498.109091 97.854545 
" style="fill:none;stroke:#6495ed;stroke-linecap:square;stroke-width:3;"/>
   </g>
   <g id="patch_3">
    <path d="M 72 338.4 
L 72 86.4 
" style="fill:none;stroke:#000000;stroke-linecap:square;stroke-linejoin:miter;stroke-width:0.8;"/>
   </g>
   <g id="patch_4">
    <path d="M 518.4 338.4 
L 518.4 86.4 
" style="fill:none;stroke:#000000;stroke-linecap:square;stroke-linejoin:miter;stroke-width:0.8;"/>
   </g>
   <g id="patch_5">
    <path d="M 72 338.4 
L 518.4 338.4 
" style="fill:none;stroke:#000000;stroke-linecap:square;stroke-linejoin:miter;stroke-width:0.8;"/>
   </g>
   <g id="patch_6">
    <path d="M 72 86.4 
L 518.4 86.4 
" style="fill:none;stroke:#000000;stroke-linecap:square;stroke-linejoin:miter;stroke-width:0.8;"/>
   </g>
   <g id="legend_1">
    <g id="patch_7">
     <path d="M 84.6 126.315 
L 214.247813 126.315 
Q 217.847813 126.315 217.847813 122.715 
L 217.847813 99 
Q 217.847813 95.4 214.247813 95.4 
L 84.6 95.4 
Q 81 95.4 81 99 
L 81 122.715 
Q 81 126.315 84.6 126.315 
z
" style="fill:#ffffff;opacity:0.8;stroke:#cccccc;stroke-linejoin:miter;"/>
    </g>
    <g id="line2d_10">
     <path d="M 88.2 109.2375 
L 124.2 109.2375 
" style="fill:none;stroke:#6495ed;stroke-linecap:square;stroke-width:3;"/>
    </g>
    <g id="line2d_11"/>
    <g id="text_11">
     <text style="font-family:Arial;font-size:18px;font-style:normal;font-weight:regular;text-anchor:start;" transform="rotate(-0, 138.6, 115.5375)" x="138.6" y="115.5375">ephrinB1</text>
    </g>
   </g>
  </g>
  <g id="axes_2">
   <g id="patch_8">
    <path d="M 72 640.8 
L 518.4 640.8 
L 518.4 388.8 
L 72 388.8 
z
" style="fill:none;"/>
   </g>
   <g id="matplotlib.axis_3">
    <g id="xtick_3">
     <g id="line2d_12">
      <g>
       <use style="stroke:#000000;stroke-width:0.8;" x="92.290909" xlink:href="#m89b3c4cad8" y="640.8"/>
      </g>
     </g>
     <g id="text_12">
      <text style="font-family:Arial;font-size:18px;font-style:normal;font-weight:regular;text-anchor:middle;" transform="rotate(-0, 92.290909, 660.684062)" x="92.290909" y="660.684062">Ant.</text>
     </g>
    </g>
    <g id="xtick_4">
     <g id="line2d_13">
      <g>
       <use style="stroke:#000000;stroke-width:0.8;" x="500.148378" xlink:href="#m89b3c4cad8" y="640.8"/>
      </g>
     </g>
     <g id="text_13">
      <text style="font-family:Arial;font-size:18px;font-style:normal;font-weight:regular;text-anchor:middle;" transform="rotate(-0, 500.148378, 660.684062)" x="500.148378" y="660.684062">Post.</text>
     </g>
    </g>
    <g id="text_14">
     <text style="font-family:Arial;font-size:18px;font-style:normal;font-weight:normal;text-anchor:middle;" transform="rotate(-0, 295.2, 681.145625)" x="295.2" y="681.145625">Tectal A-P axis</text>
    </g>
   </g>
   <g id="matplotlib.axis_4">
    <g id="ytick_7">
     <g id="line2d_14">
      <g>
       <use style="stroke:#000000;stroke-width:0.8;" x="72" xlink:href="#me32c6d04e0" y="629.345455"/>
      </g>
     </g>
     <g id="text_15">
      <text style="font-family:Arial;font-size:18px;font-style:normal;font-weight:regular;text-anchor:end;" transform="rotate(-0, 65, 635.787486)" x="65" y="635.787486">0.0</text>
     </g>
    </g>
    <g id="ytick_8">
     <g id="line2d_15">
      <g>
       <use style="stroke:#000000;stroke-width:0.8;" x="72" xlink:href="#me32c6d04e0" y="583.527273"/>
      </g>
     </g>
     <g id="text_16">
      <text style="font-family:Arial;font-size:18px;font-style:normal;font-weight:regular;text-anchor:end;" transform="rotate(-0, 65, 589.969304)" x="65" y="589.969304">0.2</text>
     </g>
    </g>
    <g id="ytick_9">
     <g id="line2d_16">
      <g>
       <use style="stroke:#000000;stroke-width:0.8;" x="72" xlink:href="#me32c6d04e0" y="537.709091"/>
      </g>
     </g>
     <g id="text_17">
      <text style="font-family:Arial;font-size:18px;font-style:normal;font-weight:regular;text-anchor:end;" transform="rotate(-0, 65, 544.151122)" x="65" y="544.151122">0.4</text>
     </g>
    </g>
    <g id="ytick_10">
     <g id="line2d_17">
      <g>
       <use style="stroke:#000000;stroke-width:0.8;" x="72" xlink:href="#me32c6d04e0" y="491.890909"/>
      </g>
     </g>
     <g id="text_18">
      <text style="font-family:Arial;font-size:18px;font-style:normal;font-weight:regular;text-anchor:end;" transform="rotate(-0, 65, 498.33294)" x="65" y="498.33294">0.6</text>
     </g>
    </g>
    <g id="ytick_11">
     <g id="line2d_18">
      <g>
       <use style="stroke:#000000;stroke-width:0.8;" x="72" xlink:href="#me32c6d04e0" y="446.072727"/>
      </g>
     </g>
     <g id="text_19">
      <text style="font-family:Arial;font-size:18px;font-style:normal;font-weight:regular;text-anchor:end;" transform="rotate(-0, 65, 452.514759)" x="65" y="452.514759">0.8</text>
     </g>
    </g>
    <g id="ytick_12">
     <g id="line2d_19">
      <g>
       <use style="stroke:#000000;stroke-width:0.8;" x="72" xlink:href="#me32c6d04e0" y="400.254545"/>
      </g>
     </g>
     <g id="text_20">
      <text style="font-family:Arial;font-size:18px;font-style:normal;font-weight:regular;text-anchor:end;" transform="rotate(-0, 65, 406.696577)" x="65" y="406.696577">1.0</text>
     </g>
    </g>
    <g id="text_21">
     <text style="font-family:Arial;font-size:18px;font-style:normal;font-weight:normal;text-anchor:middle;" transform="rotate(-90, 32.191563, 514.8)" x="32.191563" y="514.8">Normalised expression (E8)</text>
    </g>
   </g>
   <g id="line2d_20">
    <path clip-path="url(#p702b7216f7)" d="M 92.290909 568.684152 
L 94.330196 565.139836 
L 96.369484 546.385989 
L 98.408771 551.755389 
L 102.487346 523.993149 
L 104.526633 508.385428 
L 106.565921 493.760953 
L 108.605208 489.213113 
L 110.644495 489.002609 
L 112.683783 504.092633 
L 114.72307 512.192313 
L 116.762357 496.053909 
L 118.801645 470.545769 
L 120.840932 489.132303 
L 122.880219 480.927631 
L 124.919507 506.251197 
L 126.958794 536.314196 
L 128.998081 538.567722 
L 133.076656 583.590907 
L 135.115943 580.517268 
L 137.155231 575.15631 
L 139.194518 566.74692 
L 141.233805 579.17896 
L 143.273093 592.384682 
L 145.31238 589.807217 
L 147.351667 586.213218 
L 149.390955 599.183383 
L 153.469529 620.263695 
L 155.508817 609.820521 
L 157.548104 593.385759 
L 159.587392 594.42056 
L 161.626679 590.514752 
L 163.665966 591.216292 
L 165.705254 579.450624 
L 167.744541 565.183887 
L 169.783828 532.134921 
L 171.823116 540.96343 
L 173.862403 530.221373 
L 175.90169 540.583381 
L 177.940978 539.510162 
L 179.980265 548.831162 
L 182.019552 542.047409 
L 184.05884 526.186806 
L 186.098127 556.124589 
L 188.137414 547.500439 
L 190.176702 594.161609 
L 192.215989 584.461351 
L 194.255276 611.251404 
L 196.294564 613.178601 
L 198.333851 571.981219 
L 200.373138 560.458035 
L 202.412426 574.254381 
L 204.451713 545.569625 
L 206.491 571.345748 
L 208.530288 570.037699 
L 210.569575 533.015838 
L 212.608862 527.802479 
L 214.64815 564.288168 
L 216.687437 564.536939 
L 218.726725 543.694352 
L 220.766012 565.780721 
L 222.805299 567.041183 
L 224.844587 549.707095 
L 226.883874 549.39629 
L 228.923161 549.880185 
L 230.962449 551.500698 
L 233.001736 521.774791 
L 235.041023 460.240511 
L 237.080311 572.999624 
L 239.119598 582.77397 
L 241.158885 602.041251 
L 243.198173 597.583741 
L 245.23746 594.302278 
L 247.276747 602.118879 
L 249.316035 609.037163 
L 251.355322 617.519418 
L 253.394609 606.815268 
L 255.433897 604.700031 
L 257.473184 610.450211 
L 259.512471 603.33782 
L 261.551759 558.613738 
L 263.591046 577.818412 
L 265.630333 620.220512 
L 267.669621 609.811205 
L 269.708908 613.315082 
L 271.748196 614.695201 
L 273.787483 629.345455 
L 275.82677 610.262458 
L 277.866058 580.069986 
L 279.905345 599.260868 
L 281.944632 580.979786 
L 283.98392 574.101942 
L 286.023207 583.076323 
L 288.062494 571.306968 
L 290.101782 553.101931 
L 292.141069 572.097839 
L 294.180356 577.723671 
L 296.219644 556.897183 
L 298.258931 552.025612 
L 300.298218 561.355993 
L 302.337506 549.788478 
L 304.376793 564.380598 
L 306.41608 554.560109 
L 308.455368 547.627962 
L 310.494655 532.084152 
L 312.533942 523.699747 
L 314.57323 499.33321 
L 316.612517 496.079115 
L 318.651804 486.184815 
L 320.691092 490.424042 
L 322.730379 518.952525 
L 324.769667 507.888035 
L 326.808954 448.774029 
L 328.848241 485.054491 
L 330.887529 496.383565 
L 332.926816 508.934245 
L 334.966103 486.385938 
L 337.005391 490.270301 
L 339.044678 521.797683 
L 341.083965 510.311913 
L 343.123253 491.01228 
L 345.16254 503.886404 
L 347.201827 509.967305 
L 349.241115 531.517508 
L 351.280402 530.033762 
L 353.319689 482.41391 
L 355.358977 478.094898 
L 357.398264 495.391142 
L 359.437551 404.993472 
L 361.476839 400.254545 
L 363.516126 471.11018 
L 365.555413 451.585023 
L 367.594701 491.013359 
L 369.633988 485.117454 
L 371.673275 542.215228 
L 373.712563 529.456864 
L 375.75185 517.78536 
L 377.791138 501.675118 
L 379.830425 511.424909 
L 381.869712 534.98066 
L 383.909 516.143907 
L 385.948287 479.768918 
L 387.987574 471.638051 
L 390.026862 490.784585 
L 392.066149 474.837185 
L 394.105436 481.596461 
L 396.144724 496.538739 
L 398.184011 516.566635 
L 400.223298 522.748357 
L 404.301873 507.905732 
L 406.34116 538.998322 
L 408.380448 528.647505 
L 410.419735 506.925598 
L 412.459022 518.437722 
L 414.49831 537.603114 
L 416.537597 564.633704 
L 420.616172 541.747869 
L 422.655459 541.903924 
L 424.694746 563.790556 
L 426.734034 558.342006 
L 428.773321 565.293938 
L 430.812608 569.294416 
L 432.851896 541.089444 
L 434.891183 530.054852 
L 436.930471 522.844105 
L 438.969758 528.625049 
L 441.009045 509.779195 
L 443.048333 505.301186 
L 445.08762 519.168217 
L 447.126907 507.864426 
L 449.166195 546.457909 
L 451.205482 546.268932 
L 453.244769 539.631335 
L 455.284057 524.607885 
L 457.323344 498.040612 
L 459.362631 480.390448 
L 461.401919 499.137085 
L 463.441206 504.122674 
L 465.480493 512.464264 
L 467.519781 492.606215 
L 469.559068 470.214092 
L 471.598355 470.669182 
L 473.637643 470.306522 
L 475.67693 498.152254 
L 477.716217 452.722147 
L 479.755505 447.743413 
L 481.794792 445.375438 
L 483.834079 482.487346 
L 485.873367 490.508087 
L 487.912654 480.308778 
L 489.951942 471.289837 
L 494.030516 534.041395 
L 496.069804 544.516485 
L 498.109091 549.893259 
L 498.109091 549.893259 
" style="fill:none;stroke:#6495ed;stroke-linecap:square;stroke-width:3;"/>
   </g>
   <g id="patch_9">
    <path d="M 72 640.8 
L 72 388.8 
" style="fill:none;stroke:#000000;stroke-linecap:square;stroke-linejoin:miter;stroke-width:0.8;"/>
   </g>
   <g id="patch_10">
    <path d="M 518.4 640.8 
L 518.4 388.8 
" style="fill:none;stroke:#000000;stroke-linecap:square;stroke-linejoin:miter;stroke-width:0.8;"/>
   </g>
   <g id="patch_11">
    <path d="M 72 640.8 
L 518.4 640.8 
" style="fill:none;stroke:#000000;stroke-linecap:square;stroke-linejoin:miter;stroke-width:0.8;"/>
   </g>
   <g id="patch_12">
    <path d="M 72 388.8 
L 518.4 388.8 
" style="fill:none;stroke:#000000;stroke-linecap:square;stroke-linejoin:miter;stroke-width:0.8;"/>
   </g>
   <g id="legend_2">
    <g id="patch_13">
     <path d="M 376.152187 428.715 
L 505.8 428.715 
Q 509.4 428.715 509.4 425.115 
L 509.4 401.4 
Q 509.4 397.8 505.8 397.8 
L 376.152187 397.8 
Q 372.552187 397.8 372.552187 401.4 
L 372.552187 425.115 
Q 372.552187 428.715 376.152187 428.715 
z
" style="fill:#ffffff;opacity:0.8;stroke:#cccccc;stroke-linejoin:miter;"/>
    </g>
    <g id="line2d_21">
     <path d="M 379.752187 411.6375 
L 415.752187 411.6375 
" style="fill:none;stroke:#6495ed;stroke-linecap:square;stroke-width:3;"/>
    </g>
    <g id="line2d_22"/>
    <g id="text_22">
     <text style="font-family:Arial;font-size:18px;font-style:normal;font-weight:regular;text-anchor:start;" transform="rotate(-0, 430.152187, 417.9375)" x="430.152187" y="417.9375">ephrinB1</text>
    </g>
   </g>
  </g>
 </g>
 <defs>
  <clipPath id="pbc1d168241">
   <rect height="252" width="446.4" x="72" y="86.4"/>
  </clipPath>
  <clipPath id="p702b7216f7">
   <rect height="252" width="446.4" x="72" y="388.8"/>
  </clipPath>
 </defs>
</svg>
