<?xml version="1.0" encoding="utf-8" standalone="no"?>
<!DOCTYPE svg PUBLIC "-//W3C//DTD SVG 1.1//EN"
  "http://www.w3.org/Graphics/SVG/1.1/DTD/svg11.dtd">
<!-- Created with matplotlib (https://matplotlib.org/) -->
<svg height="720pt" version="1.1" viewBox="0 0 576 720" width="576pt" xmlns="http://www.w3.org/2000/svg" xmlns:xlink="http://www.w3.org/1999/xlink">
 <defs>
  <style type="text/css">
*{stroke-linecap:butt;stroke-linejoin:round;}
  </style>
 </defs>
 <g id="figure_1">
  <g id="patch_1">
   <path d="M 0 720 
L 576 720 
L 576 0 
L 0 0 
z
" style="fill:none;"/>
  </g>
  <g id="axes_1">
   <g id="patch_2">
    <path d="M 72 640.8 
L 518.4 640.8 
L 518.4 86.4 
L 72 86.4 
z
" style="fill:none;"/>
   </g>
   <g id="matplotlib.axis_1">
    <g id="xtick_1">
     <g id="line2d_1">
      <defs>
       <path d="M 0 0 
L 0 3.5 
" id="m0f6dffdeb8" style="stroke:#000000;stroke-width:0.8;"/>
      </defs>
      <g>
       <use style="stroke:#000000;stroke-width:0.8;" x="92.290909" xlink:href="#m0f6dffdeb8" y="640.8"/>
      </g>
     </g>
     <g id="text_1">
      <text style="font-family:Arial;font-size:18px;font-style:normal;font-weight:regular;text-anchor:middle;" transform="rotate(-0, 92.290909, 660.684062)" x="92.290909" y="660.684062">Dors.</text>
     </g>
    </g>
    <g id="xtick_2">
     <g id="line2d_2">
      <g>
       <use style="stroke:#000000;stroke-width:0.8;" x="500.148378" xlink:href="#m0f6dffdeb8" y="640.8"/>
      </g>
     </g>
     <g id="text_2">
      <text style="font-family:Arial;font-size:18px;font-style:normal;font-weight:regular;text-anchor:middle;" transform="rotate(-0, 500.148378, 660.684062)" x="500.148378" y="660.684062">Vent.</text>
     </g>
    </g>
    <g id="text_3">
     <text style="font-family:Arial;font-size:18px;font-style:normal;font-weight:normal;text-anchor:middle;" transform="rotate(-0, 295.2, 681.145625)" x="295.2" y="681.145625">Retinal D-V axis</text>
    </g>
   </g>
   <g id="matplotlib.axis_2">
    <g id="ytick_1">
     <g id="line2d_3">
      <defs>
       <path d="M 0 0 
L -3.5 0 
" id="m7591d635a9" style="stroke:#000000;stroke-width:0.8;"/>
      </defs>
      <g>
       <use style="stroke:#000000;stroke-width:0.8;" x="72" xlink:href="#m7591d635a9" y="615.6"/>
      </g>
     </g>
     <g id="text_4">
      <text style="font-family:Arial;font-size:18px;font-style:normal;font-weight:regular;text-anchor:end;" transform="rotate(-0, 65, 622.042031)" x="65" y="622.042031">0.0</text>
     </g>
    </g>
    <g id="ytick_2">
     <g id="line2d_4">
      <g>
       <use style="stroke:#000000;stroke-width:0.8;" x="72" xlink:href="#m7591d635a9" y="514.8"/>
      </g>
     </g>
     <g id="text_5">
      <text style="font-family:Arial;font-size:18px;font-style:normal;font-weight:regular;text-anchor:end;" transform="rotate(-0, 65, 521.242031)" x="65" y="521.242031">0.2</text>
     </g>
    </g>
    <g id="ytick_3">
     <g id="line2d_5">
      <g>
       <use style="stroke:#000000;stroke-width:0.8;" x="72" xlink:href="#m7591d635a9" y="414"/>
      </g>
     </g>
     <g id="text_6">
      <text style="font-family:Arial;font-size:18px;font-style:normal;font-weight:regular;text-anchor:end;" transform="rotate(-0, 65, 420.442031)" x="65" y="420.442031">0.4</text>
     </g>
    </g>
    <g id="ytick_4">
     <g id="line2d_6">
      <g>
       <use style="stroke:#000000;stroke-width:0.8;" x="72" xlink:href="#m7591d635a9" y="313.2"/>
      </g>
     </g>
     <g id="text_7">
      <text style="font-family:Arial;font-size:18px;font-style:normal;font-weight:regular;text-anchor:end;" transform="rotate(-0, 65, 319.642031)" x="65" y="319.642031">0.6</text>
     </g>
    </g>
    <g id="ytick_5">
     <g id="line2d_7">
      <g>
       <use style="stroke:#000000;stroke-width:0.8;" x="72" xlink:href="#m7591d635a9" y="212.4"/>
      </g>
     </g>
     <g id="text_8">
      <text style="font-family:Arial;font-size:18px;font-style:normal;font-weight:regular;text-anchor:end;" transform="rotate(-0, 65, 218.842031)" x="65" y="218.842031">0.8</text>
     </g>
    </g>
    <g id="ytick_6">
     <g id="line2d_8">
      <g>
       <use style="stroke:#000000;stroke-width:0.8;" x="72" xlink:href="#m7591d635a9" y="111.6"/>
      </g>
     </g>
     <g id="text_9">
      <text style="font-family:Arial;font-size:18px;font-style:normal;font-weight:regular;text-anchor:end;" transform="rotate(-0, 65, 118.042031)" x="65" y="118.042031">1.0</text>
     </g>
    </g>
    <g id="text_10">
     <text style="font-family:Arial;font-size:18px;font-style:normal;font-weight:normal;text-anchor:middle;" transform="rotate(-90, 32.4025, 363.6)" x="32.4025" y="363.6">Normalised expression</text>
    </g>
   </g>
   <g id="line2d_9">
    <path clip-path="url(#pebede3993d)" d="M 92.290909 228.187665 
L 94.330196 221.539409 
L 96.369484 216.803125 
L 98.408771 184.257227 
L 100.448058 169.104527 
L 102.487346 163.688392 
L 104.526633 171.748263 
L 106.565921 171.091962 
L 108.605208 178.386756 
L 110.644495 143.076448 
L 112.683783 116.72498 
L 114.72307 115.676979 
L 116.762357 124.389906 
L 118.801645 121.271256 
L 120.840932 113.81977 
L 122.880219 111.6 
L 124.919507 116.467952 
L 126.958794 115.234479 
L 128.998081 120.506449 
L 131.037369 118.517782 
L 133.076656 120.625951 
L 137.155231 139.310961 
L 139.194518 153.993283 
L 141.233805 154.379848 
L 143.273093 171.378972 
L 145.31238 180.881639 
L 147.351667 175.231246 
L 149.390955 163.437492 
L 151.430242 165.110791 
L 153.469529 175.153711 
L 155.508817 152.616546 
L 157.548104 158.189134 
L 159.587392 154.623959 
L 161.626679 159.229535 
L 163.665966 184.151213 
L 165.705254 189.37668 
L 167.744541 193.89697 
L 169.783828 209.597133 
L 173.862403 189.681083 
L 175.90169 197.840629 
L 177.940978 205.346879 
L 179.980265 230.835576 
L 182.019552 244.480261 
L 184.05884 218.618187 
L 186.098127 223.408183 
L 188.137414 224.617684 
L 190.176702 229.277123 
L 192.215989 247.277805 
L 194.255276 255.141269 
L 198.333851 237.809955 
L 200.373138 230.201897 
L 202.412426 208.062051 
L 204.451713 234.378341 
L 206.491 229.908309 
L 208.530288 242.227566 
L 210.569575 246.297305 
L 212.608862 263.21595 
L 214.64815 305.745859 
L 216.687437 283.232036 
L 218.726725 266.721044 
L 220.766012 264.391444 
L 222.805299 262.802379 
L 224.844587 269.500113 
L 226.883874 218.195604 
L 228.923161 221.396175 
L 230.962449 228.788931 
L 233.001736 265.095028 
L 235.041023 277.074615 
L 237.080311 267.356556 
L 239.119598 273.46504 
L 241.158885 261.716346 
L 243.198173 281.166855 
L 245.23746 282.067536 
L 247.276747 314.275116 
L 249.316035 293.392475 
L 251.355322 314.45491 
L 253.394609 312.259683 
L 255.433897 311.314721 
L 257.473184 292.395423 
L 259.512471 300.076871 
L 261.551759 289.269954 
L 263.591046 322.333845 
L 265.630333 316.140586 
L 267.669621 344.072317 
L 269.708908 312.291256 
L 271.748196 323.76021 
L 273.787483 348.6535 
L 275.82677 336.330157 
L 277.866058 336.227478 
L 279.905345 331.293346 
L 281.944632 343.006742 
L 283.98392 340.080203 
L 286.023207 342.466098 
L 288.062494 380.77279 
L 290.101782 400.618304 
L 292.141069 407.894457 
L 294.180356 405.083319 
L 296.219644 439.93543 
L 298.258931 450.422142 
L 300.298218 457.404332 
L 302.337506 473.651776 
L 304.376793 468.447488 
L 306.41608 473.317348 
L 308.455368 491.37157 
L 310.494655 493.044644 
L 312.533942 482.273078 
L 314.57323 488.015576 
L 316.612517 514.98152 
L 318.651804 525.301288 
L 320.691092 519.623933 
L 322.730379 529.706905 
L 324.769667 526.621774 
L 326.808954 527.504543 
L 328.848241 531.736465 
L 330.887529 528.542676 
L 332.926816 535.040451 
L 334.966103 543.433609 
L 337.005391 552.564469 
L 339.044678 563.59894 
L 341.083965 591.107223 
L 343.123253 611.876824 
L 345.16254 615.265175 
L 347.201827 615.6 
L 349.241115 614.935976 
L 351.280402 610.441656 
L 353.319689 608.928983 
L 355.358977 593.388146 
L 357.398264 568.176845 
L 359.437551 562.410356 
L 361.476839 545.181957 
L 363.516126 523.498408 
L 365.555413 533.065843 
L 367.594701 521.63272 
L 369.633988 524.840786 
L 371.673275 509.121345 
L 373.712563 522.595496 
L 375.75185 518.204073 
L 377.791138 503.999248 
L 379.830425 516.220175 
L 381.869712 515.181223 
L 383.909 517.08175 
L 385.948287 520.015499 
L 387.987574 515.987787 
L 390.026862 502.366609 
L 392.066149 504.263952 
L 394.105436 502.016116 
L 396.144724 506.081883 
L 398.184011 499.179564 
L 400.223298 499.839341 
L 402.262586 502.183045 
L 404.301873 510.003431 
L 406.34116 504.025541 
L 408.380448 510.418053 
L 410.419735 498.654715 
L 412.459022 502.044167 
L 414.49831 504.272762 
L 416.537597 523.628529 
L 418.576884 526.441687 
L 420.616172 537.729555 
L 422.655459 538.744181 
L 424.694746 542.230695 
L 426.734034 530.154805 
L 428.773321 538.238596 
L 430.812608 518.912118 
L 432.851896 515.609649 
L 434.891183 488.394495 
L 436.930471 496.517684 
L 438.969758 495.882127 
L 441.009045 489.335086 
L 443.048333 483.257348 
L 445.08762 506.861139 
L 447.126907 511.848203 
L 449.166195 501.398711 
L 451.205482 507.081376 
L 453.244769 511.185617 
L 455.284057 508.103752 
L 457.323344 501.670137 
L 459.362631 518.456685 
L 461.401919 510.224801 
L 463.441206 509.257204 
L 465.480493 507.937139 
L 467.519781 520.507792 
L 469.559068 526.334854 
L 471.598355 537.257135 
L 473.637643 536.534264 
L 475.67693 536.422761 
L 477.716217 539.57667 
L 479.755505 548.131237 
L 481.794792 536.415333 
L 483.834079 535.907224 
L 485.873367 538.074235 
L 487.912654 535.163175 
L 489.951942 536.17334 
L 494.030516 492.435763 
L 496.069804 475.384691 
L 498.109091 459.890774 
L 498.109091 459.890774 
" style="fill:none;stroke:#cd5c5c;stroke-linecap:square;stroke-width:3;"/>
   </g>
   <g id="line2d_10">
    <path clip-path="url(#pebede3993d)" d="M 92.290909 262.53003 
L 94.330196 241.941518 
L 96.369484 234.278606 
L 98.408771 224.765604 
L 100.448058 219.204883 
L 102.487346 230.253807 
L 104.526633 226.587034 
L 106.565921 193.966485 
L 108.605208 207.347892 
L 110.644495 243.040408 
L 112.683783 204.045724 
L 114.72307 201.215916 
L 116.762357 178.562854 
L 118.801645 161.215077 
L 120.840932 155.022299 
L 122.880219 175.52144 
L 124.919507 165.705567 
L 126.958794 111.6 
L 128.998081 112.550579 
L 131.037369 163.911324 
L 133.076656 199.890369 
L 135.115943 176.050037 
L 137.155231 163.697885 
L 139.194518 144.406892 
L 141.233805 162.37441 
L 143.273093 194.693981 
L 145.31238 169.417702 
L 147.351667 182.71118 
L 149.390955 198.404073 
L 151.430242 195.709208 
L 153.469529 217.467236 
L 155.508817 230.921403 
L 157.548104 237.298061 
L 159.587392 239.873814 
L 161.626679 235.938116 
L 163.665966 251.803803 
L 165.705254 269.12202 
L 167.744541 265.205248 
L 169.783828 251.309272 
L 171.823116 221.568368 
L 173.862403 229.131695 
L 175.90169 223.060281 
L 179.980265 250.991802 
L 182.019552 259.382872 
L 184.05884 246.852879 
L 186.098127 263.339117 
L 188.137414 280.826824 
L 190.176702 283.017425 
L 192.215989 297.534282 
L 194.255276 302.700058 
L 196.294564 276.734464 
L 198.333851 276.090661 
L 200.373138 288.140212 
L 202.412426 289.921538 
L 204.451713 287.073856 
L 206.491 278.489444 
L 208.530288 273.899609 
L 210.569575 271.089839 
L 212.608862 273.222251 
L 214.64815 252.307947 
L 216.687437 257.902254 
L 218.726725 239.969734 
L 220.766012 217.92707 
L 222.805299 231.859965 
L 224.844587 228.600725 
L 226.883874 254.334886 
L 228.923161 248.121409 
L 230.962449 254.687294 
L 233.001736 255.218324 
L 235.041023 240.574995 
L 237.080311 252.268804 
L 239.119598 241.481985 
L 241.158885 260.638905 
L 243.198173 262.905389 
L 245.23746 256.236405 
L 247.276747 242.755201 
L 249.316035 315.842822 
L 251.355322 406.553693 
L 253.394609 251.815579 
L 255.433897 273.822675 
L 257.473184 281.70894 
L 259.512471 281.931572 
L 261.551759 278.276095 
L 263.591046 287.727603 
L 265.630333 290.186948 
L 267.669621 276.701749 
L 271.748196 311.640002 
L 275.82677 338.149424 
L 277.866058 328.185962 
L 279.905345 337.784609 
L 281.944632 361.285451 
L 283.98392 331.341081 
L 286.023207 342.084431 
L 288.062494 349.151335 
L 290.101782 342.116064 
L 292.141069 358.186298 
L 294.180356 352.346949 
L 296.219644 375.946354 
L 298.258931 406.259745 
L 300.298218 413.281152 
L 302.337506 439.630307 
L 304.376793 455.318227 
L 306.41608 450.63402 
L 308.455368 453.308922 
L 310.494655 501.366237 
L 312.533942 465.701224 
L 314.57323 460.660808 
L 316.612517 472.119638 
L 318.651804 464.210392 
L 320.691092 466.715159 
L 322.730379 499.048917 
L 324.769667 480.925391 
L 326.808954 485.807041 
L 328.848241 503.620795 
L 330.887529 516.931284 
L 332.926816 504.641722 
L 334.966103 517.391673 
L 337.005391 494.962573 
L 339.044678 506.137616 
L 341.083965 528.790219 
L 343.123253 516.600085 
L 345.16254 512.134123 
L 347.201827 528.538846 
L 349.241115 530.390918 
L 351.280402 527.105512 
L 353.319689 503.495285 
L 355.358977 511.847797 
L 357.398264 501.9616 
L 359.437551 505.764187 
L 361.476839 523.777096 
L 363.516126 515.739267 
L 365.555413 490.89188 
L 367.594701 522.041432 
L 369.633988 529.789149 
L 371.673275 515.172939 
L 373.712563 538.158041 
L 375.75185 530.799397 
L 377.791138 546.311977 
L 379.830425 543.473525 
L 381.869712 546.835535 
L 383.909 547.960298 
L 385.948287 545.644329 
L 387.987574 541.856365 
L 390.026862 552.672338 
L 392.066149 532.042866 
L 394.105436 526.843106 
L 396.144724 543.821187 
L 398.184011 544.261381 
L 400.223298 555.21695 
L 402.262586 555.571829 
L 404.301873 559.009128 
L 406.34116 556.869169 
L 408.380448 549.861569 
L 410.419735 561.676198 
L 412.459022 549.089739 
L 414.49831 562.576834 
L 416.537597 556.066037 
L 418.576884 565.491383 
L 420.616172 557.163279 
L 422.655459 557.903261 
L 424.694746 555.573316 
L 426.734034 563.678158 
L 428.773321 559.94599 
L 430.812608 548.674794 
L 432.851896 545.647979 
L 434.891183 561.320155 
L 436.930471 562.242173 
L 438.969758 578.915437 
L 441.009045 567.454174 
L 443.048333 573.169166 
L 445.08762 590.357073 
L 447.126907 599.326411 
L 449.166195 592.872272 
L 451.205482 591.325399 
L 453.244769 600.279247 
L 455.284057 615.6 
L 457.323344 605.967666 
L 459.362631 610.284221 
L 461.401919 607.154063 
L 463.441206 608.134689 
L 465.480493 608.50952 
L 467.519781 589.298133 
L 469.559068 606.011054 
L 471.598355 607.30366 
L 473.637643 609.731599 
L 475.67693 607.606747 
L 477.716217 594.476479 
L 479.755505 596.471819 
L 481.794792 603.082368 
L 483.834079 593.61704 
L 485.873367 589.875438 
L 487.912654 579.947397 
L 489.951942 579.056385 
L 491.991229 574.072562 
L 494.030516 561.609455 
L 496.069804 560.650344 
L 498.109091 557.87485 
L 498.109091 557.87485 
" style="fill:none;stroke:#ff6eb4;stroke-linecap:square;stroke-width:3;"/>
   </g>
   <g id="patch_3">
    <path d="M 72 640.8 
L 72 86.4 
" style="fill:none;stroke:#000000;stroke-linecap:square;stroke-linejoin:miter;stroke-width:0.8;"/>
   </g>
   <g id="patch_4">
    <path d="M 518.4 640.8 
L 518.4 86.4 
" style="fill:none;stroke:#000000;stroke-linecap:square;stroke-linejoin:miter;stroke-width:0.8;"/>
   </g>
   <g id="patch_5">
    <path d="M 72 640.8 
L 518.4 640.8 
" style="fill:none;stroke:#000000;stroke-linecap:square;stroke-linejoin:miter;stroke-width:0.8;"/>
   </g>
   <g id="patch_6">
    <path d="M 72 86.4 
L 518.4 86.4 
" style="fill:none;stroke:#000000;stroke-linecap:square;stroke-linejoin:miter;stroke-width:0.8;"/>
   </g>
   <g id="legend_1">
    <g id="patch_7">
     <path d="M 376.152187 151.83 
L 505.8 151.83 
Q 509.4 151.83 509.4 148.23 
L 509.4 99 
Q 509.4 95.4 505.8 95.4 
L 376.152187 95.4 
Q 372.552187 95.4 372.552187 99 
L 372.552187 148.23 
Q 372.552187 151.83 376.152187 151.83 
z
" style="fill:#ffffff;opacity:0.8;stroke:#cccccc;stroke-linejoin:miter;"/>
    </g>
    <g id="line2d_11">
     <path d="M 379.752187 109.2375 
L 415.752187 109.2375 
" style="fill:none;stroke:#cd5c5c;stroke-linecap:square;stroke-width:3;"/>
    </g>
    <g id="line2d_12"/>
    <g id="text_11">
     <text style="font-family:Arial;font-size:18px;font-style:normal;font-weight:regular;text-anchor:start;" transform="rotate(-0, 430.152187, 115.5375)" x="430.152187" y="115.5375">ephrinB1</text>
    </g>
    <g id="line2d_13">
     <path d="M 379.752187 134.7525 
L 415.752187 134.7525 
" style="fill:none;stroke:#ff6eb4;stroke-linecap:square;stroke-width:3;"/>
    </g>
    <g id="line2d_14"/>
    <g id="text_12">
     <text style="font-family:Arial;font-size:18px;font-style:normal;font-weight:regular;text-anchor:start;" transform="rotate(-0, 430.152187, 141.0525)" x="430.152187" y="141.0525">ephrinB2</text>
    </g>
   </g>
  </g>
 </g>
 <defs>
  <clipPath id="pebede3993d">
   <rect height="554.4" width="446.4" x="72" y="86.4"/>
  </clipPath>
 </defs>
</svg>
