<?xml version="1.0" encoding="utf-8" standalone="no"?>
<!DOCTYPE svg PUBLIC "-//W3C//DTD SVG 1.1//EN"
  "http://www.w3.org/Graphics/SVG/1.1/DTD/svg11.dtd">
<!-- Created with matplotlib (https://matplotlib.org/) -->
<svg height="720pt" version="1.1" viewBox="0 0 1152 720" width="1152pt" xmlns="http://www.w3.org/2000/svg" xmlns:xlink="http://www.w3.org/1999/xlink">
 <defs>
  <style type="text/css">
*{stroke-linecap:butt;stroke-linejoin:round;}
  </style>
 </defs>
 <g id="figure_1">
  <g id="patch_1">
   <path d="M 0 720 
L 1152 720 
L 1152 0 
L 0 0 
z
" style="fill:none;"/>
  </g>
  <g id="axes_1">
   <g id="patch_2">
    <path d="M 106.04 626.92 
L 545.235508 626.92 
L 545.235508 30.24 
L 106.04 30.24 
z
" style="fill:none;"/>
   </g>
   <g id="matplotlib.axis_1">
    <g id="xtick_1">
     <g id="line2d_1">
      <defs>
       <path d="M 0 0 
L 0 3.5 
" id="m61ebbdee2f" style="stroke:#000000;stroke-width:0.8;"/>
      </defs>
      <g>
       <use style="stroke:#000000;stroke-width:0.8;" x="126.003432" xlink:href="#m61ebbdee2f" y="626.92"/>
      </g>
     </g>
     <g id="text_1">
      <text style="font-family:Arial;font-size:28px;font-style:normal;font-weight:regular;text-anchor:middle;" transform="rotate(-0, 126.003432, 653.961875)" x="126.003432" y="653.961875">Dors.</text>
     </g>
    </g>
    <g id="xtick_2">
     <g id="line2d_2">
      <g>
       <use style="stroke:#000000;stroke-width:0.8;" x="527.278451" xlink:href="#m61ebbdee2f" y="626.92"/>
      </g>
     </g>
     <g id="text_2">
      <text style="font-family:Arial;font-size:28px;font-style:normal;font-weight:regular;text-anchor:middle;" transform="rotate(-0, 527.278451, 653.961875)" x="527.278451" y="653.961875">Vent.</text>
     </g>
    </g>
    <g id="text_3">
     <text style="font-family:Arial;font-size:28px;font-style:normal;font-weight:normal;text-anchor:middle;" transform="rotate(-0, 325.637754, 683.56875)" x="325.637754" y="683.56875">Tectal D-V axis</text>
    </g>
   </g>
   <g id="matplotlib.axis_2">
    <g id="ytick_1">
     <g id="line2d_3">
      <defs>
       <path d="M 0 0 
L -3.5 0 
" id="mb17d7f326e" style="stroke:#000000;stroke-width:0.8;"/>
      </defs>
      <g>
       <use style="stroke:#000000;stroke-width:0.8;" x="106.04" xlink:href="#mb17d7f326e" y="599.798182"/>
      </g>
     </g>
     <g id="text_4">
      <text style="font-family:Arial;font-size:28px;font-style:normal;font-weight:regular;text-anchor:end;" transform="rotate(-0, 99.04, 609.819119)" x="99.04" y="609.819119">0.0</text>
     </g>
    </g>
    <g id="ytick_2">
     <g id="line2d_4">
      <g>
       <use style="stroke:#000000;stroke-width:0.8;" x="106.04" xlink:href="#mb17d7f326e" y="491.310909"/>
      </g>
     </g>
     <g id="text_5">
      <text style="font-family:Arial;font-size:28px;font-style:normal;font-weight:regular;text-anchor:end;" transform="rotate(-0, 99.04, 501.331847)" x="99.04" y="501.331847">0.2</text>
     </g>
    </g>
    <g id="ytick_3">
     <g id="line2d_5">
      <g>
       <use style="stroke:#000000;stroke-width:0.8;" x="106.04" xlink:href="#mb17d7f326e" y="382.823636"/>
      </g>
     </g>
     <g id="text_6">
      <text style="font-family:Arial;font-size:28px;font-style:normal;font-weight:regular;text-anchor:end;" transform="rotate(-0, 99.04, 392.844574)" x="99.04" y="392.844574">0.4</text>
     </g>
    </g>
    <g id="ytick_4">
     <g id="line2d_6">
      <g>
       <use style="stroke:#000000;stroke-width:0.8;" x="106.04" xlink:href="#mb17d7f326e" y="274.336364"/>
      </g>
     </g>
     <g id="text_7">
      <text style="font-family:Arial;font-size:28px;font-style:normal;font-weight:regular;text-anchor:end;" transform="rotate(-0, 99.04, 284.357301)" x="99.04" y="284.357301">0.6</text>
     </g>
    </g>
    <g id="ytick_5">
     <g id="line2d_7">
      <g>
       <use style="stroke:#000000;stroke-width:0.8;" x="106.04" xlink:href="#mb17d7f326e" y="165.849091"/>
      </g>
     </g>
     <g id="text_8">
      <text style="font-family:Arial;font-size:28px;font-style:normal;font-weight:regular;text-anchor:end;" transform="rotate(-0, 99.04, 175.870028)" x="99.04" y="175.870028">0.8</text>
     </g>
    </g>
    <g id="ytick_6">
     <g id="line2d_8">
      <g>
       <use style="stroke:#000000;stroke-width:0.8;" x="106.04" xlink:href="#mb17d7f326e" y="57.361818"/>
      </g>
     </g>
     <g id="text_9">
      <text style="font-family:Arial;font-size:28px;font-style:normal;font-weight:regular;text-anchor:end;" transform="rotate(-0, 99.04, 67.382756)" x="99.04" y="67.382756">1.0</text>
     </g>
    </g>
    <g id="text_10">
     <text style="font-family:Arial;font-size:28px;font-style:normal;font-weight:normal;text-anchor:middle;" transform="rotate(-90, 50.226875, 328.58)" x="50.226875" y="328.58">Normalised expression (E6)</text>
    </g>
   </g>
   <g id="line2d_9">
    <path clip-path="url(#p2bbf657296)" d="M 126.003432 91.447832 
L 128.009807 102.102365 
L 130.016182 105.460952 
L 132.022557 110.491833 
L 134.028933 126.899215 
L 136.035308 125.966994 
L 138.041683 104.267847 
L 140.048058 106.502228 
L 142.054433 121.193829 
L 144.060808 90.785355 
L 146.067183 57.361818 
L 148.073558 119.402684 
L 150.079933 157.089967 
L 152.086308 185.302373 
L 154.092684 188.501856 
L 156.099059 237.869008 
L 158.105434 253.408768 
L 160.111809 261.568519 
L 162.118184 257.939574 
L 164.124559 248.678086 
L 168.137309 234.262178 
L 170.143684 270.514547 
L 172.150059 236.512983 
L 174.156434 234.428751 
L 176.16281 230.728837 
L 178.169185 243.776823 
L 180.17556 240.126636 
L 182.181935 206.52521 
L 184.18831 260.754439 
L 186.194685 278.764084 
L 188.20106 275.978996 
L 190.207435 321.587423 
L 192.21381 313.178523 
L 194.220185 252.049962 
L 196.226561 270.237819 
L 198.232936 336.25025 
L 200.239311 331.089459 
L 202.245686 315.970336 
L 204.252061 335.641863 
L 206.258436 318.010306 
L 208.264811 332.558791 
L 210.271186 335.667341 
L 212.277561 334.162477 
L 214.283936 317.136315 
L 216.290311 308.130765 
L 220.303062 360.086621 
L 222.309437 358.189331 
L 224.315812 359.329089 
L 226.322187 341.989568 
L 228.328562 355.784982 
L 232.341312 300.188993 
L 234.347687 319.068103 
L 236.354062 344.840466 
L 238.360438 368.47415 
L 240.366813 355.375824 
L 242.373188 333.990601 
L 244.379563 293.790965 
L 246.385938 338.557199 
L 248.392313 353.329759 
L 250.398688 338.470728 
L 252.405063 360.185152 
L 254.411438 376.026292 
L 256.417813 395.055776 
L 258.424189 376.112262 
L 260.430564 366.355953 
L 262.436939 361.83664 
L 264.443314 350.199547 
L 266.449689 362.326175 
L 268.456064 358.774389 
L 270.462439 412.081599 
L 272.468814 451.184931 
L 276.481564 376.963459 
L 278.487939 376.27059 
L 280.494315 374.813965 
L 282.50069 384.536326 
L 284.507065 378.749496 
L 286.51344 385.93152 
L 288.519815 381.836012 
L 290.52619 357.654726 
L 292.532565 427.759269 
L 294.53894 417.3012 
L 296.545315 384.333864 
L 298.55169 379.879296 
L 300.558066 377.104199 
L 302.564441 398.226613 
L 304.570816 385.875182 
L 306.577191 366.516496 
L 308.583566 365.11026 
L 310.589941 364.877294 
L 312.596316 403.319717 
L 314.602691 375.898824 
L 316.609066 381.303266 
L 318.615441 373.708285 
L 320.621816 387.147517 
L 322.628192 357.198913 
L 324.634567 403.179478 
L 326.640942 380.508859 
L 328.647317 401.56703 
L 330.653692 396.643021 
L 332.660067 328.605461 
L 334.666442 368.918905 
L 336.672817 412.529684 
L 338.679192 409.680839 
L 340.685567 406.042065 
L 342.691943 367.866265 
L 344.698318 371.473677 
L 346.704693 413.087794 
L 348.711068 408.124276 
L 350.717443 401.685235 
L 352.723818 406.08311 
L 354.730193 360.364011 
L 356.736568 371.798498 
L 358.742943 390.521963 
L 360.749318 412.854295 
L 362.755693 410.517665 
L 364.762069 396.084653 
L 366.768444 374.064047 
L 368.774819 374.402722 
L 370.781194 390.815276 
L 372.787569 403.050006 
L 374.793944 396.496898 
L 376.800319 420.550442 
L 378.806694 347.07829 
L 380.813069 355.150407 
L 382.819444 420.981198 
L 384.82582 404.511157 
L 386.832195 379.588634 
L 388.83857 387.37358 
L 390.844945 416.217295 
L 392.85132 395.509423 
L 394.857695 377.575143 
L 396.86407 395.702766 
L 398.870445 399.91268 
L 400.87682 393.28888 
L 402.883195 431.639012 
L 404.88957 420.780595 
L 406.895946 427.301339 
L 408.902321 412.981827 
L 410.908696 422.477623 
L 412.915071 407.530553 
L 414.921446 414.761139 
L 416.927821 427.406385 
L 418.934196 433.310481 
L 420.940571 462.210163 
L 422.946946 471.464174 
L 424.953321 444.874554 
L 426.959697 433.457106 
L 428.966072 439.903195 
L 430.972447 422.026482 
L 432.978822 362.981572 
L 434.985197 421.584168 
L 436.991572 410.779632 
L 438.997947 413.548958 
L 441.004322 416.750801 
L 443.010697 429.829518 
L 445.017072 401.244942 
L 447.023447 439.258387 
L 449.029823 449.732687 
L 451.036198 443.570292 
L 453.042573 466.891894 
L 455.048948 459.958258 
L 457.055323 442.538684 
L 459.061698 467.620708 
L 463.074448 403.198134 
L 465.080823 399.150993 
L 467.087198 425.997045 
L 469.093574 456.249906 
L 471.099949 429.000484 
L 473.106324 446.181289 
L 475.112699 474.455586 
L 477.119074 479.767875 
L 479.125449 482.689499 
L 481.131824 498.44913 
L 483.138199 488.74241 
L 485.144574 537.115257 
L 487.150949 539.84852 
L 489.157324 545.230423 
L 491.1637 565.824472 
L 493.170075 569.446274 
L 495.17645 569.025204 
L 497.182825 599.798182 
L 499.1892 579.588313 
L 501.195575 565.385068 
L 503.20195 575.204862 
L 507.2147 516.838859 
L 509.221075 540.659513 
L 511.227451 524.977175 
L 513.233826 489.026905 
L 515.240201 490.502622 
L 517.246576 525.225094 
L 519.252951 536.193164 
L 521.259326 516.703146 
L 523.265701 544.418501 
L 525.272076 521.74637 
L 525.272076 521.74637 
" style="fill:none;stroke:#cd5c5c;stroke-linecap:square;stroke-width:3;"/>
   </g>
   <g id="patch_3">
    <path d="M 106.04 626.92 
L 106.04 30.24 
" style="fill:none;stroke:#000000;stroke-linecap:square;stroke-linejoin:miter;stroke-width:0.8;"/>
   </g>
   <g id="patch_4">
    <path d="M 545.235508 626.92 
L 545.235508 30.24 
" style="fill:none;stroke:#000000;stroke-linecap:square;stroke-linejoin:miter;stroke-width:0.8;"/>
   </g>
   <g id="patch_5">
    <path d="M 106.04 626.92 
L 545.235508 626.92 
" style="fill:none;stroke:#000000;stroke-linecap:square;stroke-linejoin:miter;stroke-width:0.8;"/>
   </g>
   <g id="patch_6">
    <path d="M 106.04 30.24 
L 545.235508 30.24 
" style="fill:none;stroke:#000000;stroke-linecap:square;stroke-linejoin:miter;stroke-width:0.8;"/>
   </g>
   <g id="legend_1">
    <g id="patch_7">
     <path d="M 323.961133 92.33 
L 525.635508 92.33 
Q 531.235508 92.33 531.235508 86.73 
L 531.235508 49.84 
Q 531.235508 44.24 525.635508 44.24 
L 323.961133 44.24 
Q 318.361133 44.24 318.361133 49.84 
L 318.361133 86.73 
Q 318.361133 92.33 323.961133 92.33 
z
" style="fill:#ffffff;opacity:0.8;stroke:#cccccc;stroke-linejoin:miter;"/>
    </g>
    <g id="line2d_10">
     <path d="M 329.561133 65.765 
L 385.561133 65.765 
" style="fill:none;stroke:#cd5c5c;stroke-linecap:square;stroke-width:3;"/>
    </g>
    <g id="line2d_11"/>
    <g id="text_11">
     <text style="font-family:Arial;font-size:28px;font-style:normal;font-weight:regular;text-anchor:start;" transform="rotate(-0, 407.961133, 75.565)" x="407.961133" y="75.565">ephrinB1</text>
    </g>
   </g>
  </g>
  <g id="axes_2">
   <g id="patch_8">
    <path d="M 667.296875 626.92 
L 1106.492383 626.92 
L 1106.492383 30.24 
L 667.296875 30.24 
z
" style="fill:none;"/>
   </g>
   <g id="matplotlib.axis_3">
    <g id="xtick_3">
     <g id="line2d_12">
      <g>
       <use style="stroke:#000000;stroke-width:0.8;" x="687.260307" xlink:href="#m61ebbdee2f" y="626.92"/>
      </g>
     </g>
     <g id="text_12">
      <text style="font-family:Arial;font-size:28px;font-style:normal;font-weight:regular;text-anchor:middle;" transform="rotate(-0, 687.260307, 653.961875)" x="687.260307" y="653.961875">Ant.</text>
     </g>
    </g>
    <g id="xtick_4">
     <g id="line2d_13">
      <g>
       <use style="stroke:#000000;stroke-width:0.8;" x="1088.535326" xlink:href="#m61ebbdee2f" y="626.92"/>
      </g>
     </g>
     <g id="text_13">
      <text style="font-family:Arial;font-size:28px;font-style:normal;font-weight:regular;text-anchor:middle;" transform="rotate(-0, 1088.535326, 653.961875)" x="1088.535326" y="653.961875">Post.</text>
     </g>
    </g>
    <g id="text_14">
     <text style="font-family:Arial;font-size:28px;font-style:normal;font-weight:normal;text-anchor:middle;" transform="rotate(-0, 886.894629, 683.56875)" x="886.894629" y="683.56875">Tectal A-P axis</text>
    </g>
   </g>
   <g id="matplotlib.axis_4">
    <g id="ytick_7">
     <g id="line2d_14">
      <g>
       <use style="stroke:#000000;stroke-width:0.8;" x="667.296875" xlink:href="#mb17d7f326e" y="599.798182"/>
      </g>
     </g>
     <g id="text_15">
      <text style="font-family:Arial;font-size:28px;font-style:normal;font-weight:regular;text-anchor:end;" transform="rotate(-0, 660.296875, 609.819119)" x="660.296875" y="609.819119">0.0</text>
     </g>
    </g>
    <g id="ytick_8">
     <g id="line2d_15">
      <g>
       <use style="stroke:#000000;stroke-width:0.8;" x="667.296875" xlink:href="#mb17d7f326e" y="491.310909"/>
      </g>
     </g>
     <g id="text_16">
      <text style="font-family:Arial;font-size:28px;font-style:normal;font-weight:regular;text-anchor:end;" transform="rotate(-0, 660.296875, 501.331847)" x="660.296875" y="501.331847">0.2</text>
     </g>
    </g>
    <g id="ytick_9">
     <g id="line2d_16">
      <g>
       <use style="stroke:#000000;stroke-width:0.8;" x="667.296875" xlink:href="#mb17d7f326e" y="382.823636"/>
      </g>
     </g>
     <g id="text_17">
      <text style="font-family:Arial;font-size:28px;font-style:normal;font-weight:regular;text-anchor:end;" transform="rotate(-0, 660.296875, 392.844574)" x="660.296875" y="392.844574">0.4</text>
     </g>
    </g>
    <g id="ytick_10">
     <g id="line2d_17">
      <g>
       <use style="stroke:#000000;stroke-width:0.8;" x="667.296875" xlink:href="#mb17d7f326e" y="274.336364"/>
      </g>
     </g>
     <g id="text_18">
      <text style="font-family:Arial;font-size:28px;font-style:normal;font-weight:regular;text-anchor:end;" transform="rotate(-0, 660.296875, 284.357301)" x="660.296875" y="284.357301">0.6</text>
     </g>
    </g>
    <g id="ytick_11">
     <g id="line2d_18">
      <g>
       <use style="stroke:#000000;stroke-width:0.8;" x="667.296875" xlink:href="#mb17d7f326e" y="165.849091"/>
      </g>
     </g>
     <g id="text_19">
      <text style="font-family:Arial;font-size:28px;font-style:normal;font-weight:regular;text-anchor:end;" transform="rotate(-0, 660.296875, 175.870028)" x="660.296875" y="175.870028">0.8</text>
     </g>
    </g>
    <g id="ytick_12">
     <g id="line2d_19">
      <g>
       <use style="stroke:#000000;stroke-width:0.8;" x="667.296875" xlink:href="#mb17d7f326e" y="57.361818"/>
      </g>
     </g>
     <g id="text_20">
      <text style="font-family:Arial;font-size:28px;font-style:normal;font-weight:regular;text-anchor:end;" transform="rotate(-0, 660.296875, 67.382756)" x="660.296875" y="67.382756">1.0</text>
     </g>
    </g>
    <g id="text_21">
     <text style="font-family:Arial;font-size:28px;font-style:normal;font-weight:normal;text-anchor:middle;" transform="rotate(-90, 611.48375, 328.58)" x="611.48375" y="328.58">Normalised expression (E8)</text>
    </g>
   </g>
   <g id="line2d_20">
    <path clip-path="url(#pf6f70b3e1d)" d="M 687.260307 456.165698 
L 689.266682 447.773546 
L 691.273057 403.368603 
L 693.279432 416.082149 
L 697.292183 350.347335 
L 699.298558 313.391719 
L 701.304933 278.764213 
L 703.311308 267.995937 
L 705.317683 267.497512 
L 707.324058 303.227335 
L 709.330433 322.405578 
L 711.336808 284.193421 
L 713.343183 223.795816 
L 715.349559 267.804598 
L 717.355934 248.377757 
L 719.362309 308.338334 
L 721.368684 379.520834 
L 723.375059 384.856684 
L 727.387809 491.461581 
L 729.394184 484.183888 
L 731.400559 471.49033 
L 733.406934 451.578764 
L 735.413309 481.015071 
L 737.419685 512.283286 
L 739.42606 506.180422 
L 741.432435 497.670631 
L 743.43881 528.381099 
L 747.45156 578.294593 
L 749.457935 553.567478 
L 751.46431 514.653614 
L 753.470685 517.103793 
L 755.47706 507.855707 
L 757.483436 509.516798 
L 759.489811 481.658311 
L 761.496186 447.877848 
L 763.502561 369.62524 
L 765.508936 390.529189 
L 767.515311 365.094385 
L 769.521686 389.629316 
L 771.528061 387.088172 
L 773.534436 409.158229 
L 775.540811 393.095811 
L 777.547186 355.541427 
L 779.553562 426.427445 
L 781.559937 406.007373 
L 783.566312 516.490654 
L 785.572687 493.5226 
L 787.579062 556.955492 
L 789.585437 561.518666 
L 791.591812 463.97242 
L 793.598187 436.68808 
L 795.604562 469.354763 
L 797.610937 401.435634 
L 799.617313 462.467766 
L 801.623688 459.370597 
L 803.630063 371.711057 
L 805.636438 359.366982 
L 807.642813 445.756984 
L 809.649188 446.346019 
L 811.655563 396.995405 
L 813.661938 449.291019 
L 815.668313 452.275512 
L 817.674688 411.232244 
L 819.681064 410.496326 
L 821.687439 411.642081 
L 823.693814 415.479097 
L 825.700189 345.094755 
L 827.706564 199.395256 
L 829.712939 466.383777 
L 831.719314 489.527255 
L 833.725689 535.147895 
L 835.732064 524.593502 
L 837.738439 516.823728 
L 839.744814 535.331701 
L 841.75119 551.71266 
L 843.757565 571.796754 
L 845.76394 546.451706 
L 847.770315 541.443295 
L 849.77669 555.058444 
L 851.783065 538.217882 
L 853.78944 432.321195 
L 855.795815 477.793594 
L 857.80219 578.192346 
L 859.808565 553.54542 
L 861.814941 561.841822 
L 863.821316 565.109638 
L 865.827691 599.798182 
L 867.834066 554.613886 
L 869.840441 483.124821 
L 871.846816 528.564566 
L 873.853191 485.279028 
L 875.859566 468.99382 
L 877.865941 490.24316 
L 879.872316 462.375944 
L 881.878691 419.270461 
L 883.885067 464.248549 
L 885.891442 477.569269 
L 887.897817 428.256774 
L 889.904192 416.721978 
L 891.910567 438.814246 
L 893.916942 411.424941 
L 895.923317 445.975837 
L 897.929692 422.723102 
L 899.936067 406.309319 
L 901.942442 369.505031 
L 903.948818 349.652623 
L 905.955193 291.958079 
L 907.961568 284.253106 
L 909.967943 260.825601 
L 911.974318 270.863147 
L 913.980693 338.412256 
L 915.987068 312.214003 
L 917.993443 172.245173 
L 919.999818 258.149245 
L 922.006193 284.973974 
L 924.012568 314.691195 
L 926.018944 261.301815 
L 928.025319 270.499124 
L 930.031694 345.148959 
L 932.038069 317.953208 
L 934.044444 272.255966 
L 936.050819 302.739029 
L 938.057194 317.137252 
L 940.063569 368.163345 
L 942.069944 364.650164 
L 944.076319 251.896936 
L 946.082695 241.670476 
L 948.08907 282.624136 
L 950.095445 68.582544 
L 952.10182 57.361818 
L 954.108195 225.132215 
L 956.11457 178.900982 
L 958.120945 272.25852 
L 960.12732 258.298327 
L 962.133695 393.493168 
L 964.14007 363.284197 
L 966.146445 335.648669 
L 968.152821 297.503197 
L 970.159196 320.588535 
L 972.165571 376.363318 
L 974.171946 331.762072 
L 976.178321 245.634184 
L 978.184696 226.382095 
L 980.191071 271.716834 
L 982.197446 233.956934 
L 984.203821 249.961397 
L 986.210196 285.341392 
L 988.216572 332.762998 
L 990.222947 347.399943 
L 994.235697 312.255905 
L 996.242072 385.876249 
L 998.248447 361.367814 
L 1000.254822 309.935166 
L 1002.261197 337.193318 
L 1004.267572 382.572707 
L 1006.273947 446.575138 
L 1010.286698 392.386566 
L 1012.293073 392.756069 
L 1014.299448 444.578751 
L 1016.305823 431.677794 
L 1018.312198 448.138425 
L 1020.318573 457.610668 
L 1022.324948 390.827562 
L 1024.331323 364.7001 
L 1026.337698 347.626653 
L 1028.344073 361.314645 
L 1030.350449 316.69185 
L 1032.356824 306.088919 
L 1034.363199 338.922968 
L 1036.369574 312.158102 
L 1038.375949 403.538894 
L 1040.382324 403.091439 
L 1042.388699 387.375083 
L 1044.395074 351.802893 
L 1046.401449 288.897493 
L 1048.407824 247.105827 
L 1050.414199 291.493699 
L 1052.420575 303.298465 
L 1054.42695 323.049496 
L 1056.433325 276.030048 
L 1058.4397 223.010478 
L 1060.446075 224.08803 
L 1062.45245 223.229332 
L 1064.458825 289.161838 
L 1066.4652 181.593439 
L 1068.471575 169.804904 
L 1070.47795 164.198065 
L 1072.484326 252.070816 
L 1074.490701 271.062149 
L 1076.497076 246.912451 
L 1078.503451 225.557604 
L 1082.516201 374.139347 
L 1084.522576 398.942034 
L 1086.528951 411.673039 
L 1086.528951 411.673039 
" style="fill:none;stroke:#cd5c5c;stroke-linecap:square;stroke-width:3;"/>
   </g>
   <g id="patch_9">
    <path d="M 667.296875 626.92 
L 667.296875 30.24 
" style="fill:none;stroke:#000000;stroke-linecap:square;stroke-linejoin:miter;stroke-width:0.8;"/>
   </g>
   <g id="patch_10">
    <path d="M 1106.492383 626.92 
L 1106.492383 30.24 
" style="fill:none;stroke:#000000;stroke-linecap:square;stroke-linejoin:miter;stroke-width:0.8;"/>
   </g>
   <g id="patch_11">
    <path d="M 667.296875 626.92 
L 1106.492383 626.92 
" style="fill:none;stroke:#000000;stroke-linecap:square;stroke-linejoin:miter;stroke-width:0.8;"/>
   </g>
   <g id="patch_12">
    <path d="M 667.296875 30.24 
L 1106.492383 30.24 
" style="fill:none;stroke:#000000;stroke-linecap:square;stroke-linejoin:miter;stroke-width:0.8;"/>
   </g>
   <g id="legend_2">
    <g id="patch_13">
     <path d="M 686.896875 92.33 
L 888.57125 92.33 
Q 894.17125 92.33 894.17125 86.73 
L 894.17125 49.84 
Q 894.17125 44.24 888.57125 44.24 
L 686.896875 44.24 
Q 681.296875 44.24 681.296875 49.84 
L 681.296875 86.73 
Q 681.296875 92.33 686.896875 92.33 
z
" style="fill:#ffffff;opacity:0.8;stroke:#cccccc;stroke-linejoin:miter;"/>
    </g>
    <g id="line2d_21">
     <path d="M 692.496875 65.765 
L 748.496875 65.765 
" style="fill:none;stroke:#cd5c5c;stroke-linecap:square;stroke-width:3;"/>
    </g>
    <g id="line2d_22"/>
    <g id="text_22">
     <text style="font-family:Arial;font-size:28px;font-style:normal;font-weight:regular;text-anchor:start;" transform="rotate(-0, 770.896875, 75.565)" x="770.896875" y="75.565">ephrinB1</text>
    </g>
   </g>
  </g>
 </g>
 <defs>
  <clipPath id="p2bbf657296">
   <rect height="596.68" width="439.195508" x="106.04" y="30.24"/>
  </clipPath>
  <clipPath id="pf6f70b3e1d">
   <rect height="596.68" width="439.195508" x="667.296875" y="30.24"/>
  </clipPath>
 </defs>
</svg>
