<?xml version="1.0" encoding="utf-8" standalone="no"?>
<!DOCTYPE svg PUBLIC "-//W3C//DTD SVG 1.1//EN"
  "http://www.w3.org/Graphics/SVG/1.1/DTD/svg11.dtd">
<!-- Created with matplotlib (https://matplotlib.org/) -->
<svg height="720pt" version="1.1" viewBox="0 0 1152 720" width="1152pt" xmlns="http://www.w3.org/2000/svg" xmlns:xlink="http://www.w3.org/1999/xlink">
 <defs>
  <style type="text/css">
*{stroke-linecap:butt;stroke-linejoin:round;}
  </style>
 </defs>
 <g id="figure_1">
  <g id="patch_1">
   <path d="M 0 720 
L 1152 720 
L 1152 0 
L 0 0 
z
" style="fill:none;"/>
  </g>
  <g id="axes_1">
   <g id="patch_2">
    <path d="M 144 640.8 
L 549.818182 640.8 
L 549.818182 86.4 
L 144 86.4 
z
" style="fill:none;"/>
   </g>
   <g id="matplotlib.axis_1">
    <g id="xtick_1">
     <g id="line2d_1">
      <defs>
       <path d="M 0 0 
L 0 3.5 
" id="m7783b08905" style="stroke:#000000;stroke-width:0.8;"/>
      </defs>
      <g>
       <use style="stroke:#000000;stroke-width:0.8;" x="162.446281" xlink:href="#m7783b08905" y="640.8"/>
      </g>
     </g>
     <g id="text_1">
      <text style="font-family:Arial;font-size:18px;font-style:normal;font-weight:regular;text-anchor:middle;" transform="rotate(-0, 162.446281, 660.684062)" x="162.446281" y="660.684062">Dors.</text>
     </g>
    </g>
    <g id="xtick_2">
     <g id="line2d_2">
      <g>
       <use style="stroke:#000000;stroke-width:0.8;" x="533.225798" xlink:href="#m7783b08905" y="640.8"/>
      </g>
     </g>
     <g id="text_2">
      <text style="font-family:Arial;font-size:18px;font-style:normal;font-weight:regular;text-anchor:middle;" transform="rotate(-0, 533.225798, 660.684062)" x="533.225798" y="660.684062">Vent.</text>
     </g>
    </g>
    <g id="text_3">
     <text style="font-family:Arial;font-size:18px;font-style:normal;font-weight:normal;text-anchor:middle;" transform="rotate(-0, 346.909091, 681.145625)" x="346.909091" y="681.145625">Tectal D-V axis</text>
    </g>
   </g>
   <g id="matplotlib.axis_2">
    <g id="ytick_1">
     <g id="line2d_3">
      <defs>
       <path d="M 0 0 
L -3.5 0 
" id="m870a1ef65e" style="stroke:#000000;stroke-width:0.8;"/>
      </defs>
      <g>
       <use style="stroke:#000000;stroke-width:0.8;" x="144" xlink:href="#m870a1ef65e" y="615.6"/>
      </g>
     </g>
     <g id="text_4">
      <text style="font-family:Arial;font-size:18px;font-style:normal;font-weight:regular;text-anchor:end;" transform="rotate(-0, 137, 622.042031)" x="137" y="622.042031">0.0</text>
     </g>
    </g>
    <g id="ytick_2">
     <g id="line2d_4">
      <g>
       <use style="stroke:#000000;stroke-width:0.8;" x="144" xlink:href="#m870a1ef65e" y="514.8"/>
      </g>
     </g>
     <g id="text_5">
      <text style="font-family:Arial;font-size:18px;font-style:normal;font-weight:regular;text-anchor:end;" transform="rotate(-0, 137, 521.242031)" x="137" y="521.242031">0.2</text>
     </g>
    </g>
    <g id="ytick_3">
     <g id="line2d_5">
      <g>
       <use style="stroke:#000000;stroke-width:0.8;" x="144" xlink:href="#m870a1ef65e" y="414"/>
      </g>
     </g>
     <g id="text_6">
      <text style="font-family:Arial;font-size:18px;font-style:normal;font-weight:regular;text-anchor:end;" transform="rotate(-0, 137, 420.442031)" x="137" y="420.442031">0.4</text>
     </g>
    </g>
    <g id="ytick_4">
     <g id="line2d_6">
      <g>
       <use style="stroke:#000000;stroke-width:0.8;" x="144" xlink:href="#m870a1ef65e" y="313.2"/>
      </g>
     </g>
     <g id="text_7">
      <text style="font-family:Arial;font-size:18px;font-style:normal;font-weight:regular;text-anchor:end;" transform="rotate(-0, 137, 319.642031)" x="137" y="319.642031">0.6</text>
     </g>
    </g>
    <g id="ytick_5">
     <g id="line2d_7">
      <g>
       <use style="stroke:#000000;stroke-width:0.8;" x="144" xlink:href="#m870a1ef65e" y="212.4"/>
      </g>
     </g>
     <g id="text_8">
      <text style="font-family:Arial;font-size:18px;font-style:normal;font-weight:regular;text-anchor:end;" transform="rotate(-0, 137, 218.842031)" x="137" y="218.842031">0.8</text>
     </g>
    </g>
    <g id="ytick_6">
     <g id="line2d_8">
      <g>
       <use style="stroke:#000000;stroke-width:0.8;" x="144" xlink:href="#m870a1ef65e" y="111.6"/>
      </g>
     </g>
     <g id="text_9">
      <text style="font-family:Arial;font-size:18px;font-style:normal;font-weight:regular;text-anchor:end;" transform="rotate(-0, 137, 118.042031)" x="137" y="118.042031">1.0</text>
     </g>
    </g>
    <g id="text_10">
     <text style="font-family:Arial;font-size:18px;font-style:normal;font-weight:normal;text-anchor:middle;" transform="rotate(-90, 104.191563, 363.6)" x="104.191563" y="363.6">Normalised expression (E6)</text>
    </g>
   </g>
   <g id="line2d_9">
    <path clip-path="url(#p340ded84bd)" d="M 162.446281 143.270722 
L 164.300179 153.170287 
L 166.154076 156.290889 
L 168.007974 160.965289 
L 169.861871 176.210064 
L 171.715769 175.343899 
L 173.569667 155.182326 
L 175.423564 157.258381 
L 177.277462 170.908954 
L 179.131359 142.655187 
L 180.985257 111.6 
L 182.839154 169.244727 
L 184.693052 204.261537 
L 186.54695 230.474847 
L 188.400847 233.447619 
L 190.254745 279.316676 
L 192.108642 293.755307 
L 193.96254 301.336869 
L 195.816438 297.965067 
L 197.670335 289.359836 
L 201.37813 275.965421 
L 203.232028 309.648992 
L 205.085925 278.056737 
L 206.939823 276.120191 
L 208.793721 272.682448 
L 210.647618 284.80587 
L 212.501516 281.414331 
L 214.355413 250.19386 
L 216.209311 300.580474 
L 218.063209 317.313977 
L 219.917106 314.726238 
L 221.771004 357.102909 
L 223.624901 349.289853 
L 225.478799 292.492785 
L 227.332697 309.391873 
L 229.186594 370.726745 
L 231.040492 365.931642 
L 232.894389 351.883841 
L 234.748287 370.161469 
L 236.602184 353.779261 
L 238.456082 367.296859 
L 240.30998 370.185141 
L 242.163877 368.786909 
L 244.017775 352.9672 
L 245.871672 344.599772 
L 249.579468 392.874101 
L 251.433365 391.11125 
L 253.287263 392.170247 
L 255.14116 376.059382 
L 256.995058 388.877271 
L 260.702853 337.220745 
L 262.556751 354.762104 
L 264.410648 378.70827 
L 266.264546 400.6673 
L 268.118443 388.497105 
L 269.972341 368.627213 
L 271.826239 331.276073 
L 273.680136 372.870227 
L 275.534034 386.596022 
L 277.387931 372.789883 
L 279.241829 392.96565 
L 281.095727 407.684307 
L 282.949624 425.365386 
L 284.803522 407.764185 
L 286.657419 398.699196 
L 288.511317 394.500116 
L 290.365215 383.687613 
L 292.219112 394.954963 
L 294.07301 391.654853 
L 295.926907 441.18478 
L 297.780805 477.517299 
L 301.4886 408.555068 
L 303.342498 407.911295 
L 305.196395 406.557884 
L 307.050293 415.59133 
L 308.90419 410.214548 
L 310.758088 416.887663 
L 312.611986 413.082358 
L 314.465883 390.614527 
L 316.319781 455.75155 
L 318.173678 446.034527 
L 320.027576 415.403215 
L 321.881473 411.264292 
L 323.735371 408.685835 
L 325.589269 428.311541 
L 327.443166 416.835317 
L 329.297064 398.848363 
L 331.150961 397.541772 
L 333.004859 397.325313 
L 334.858757 433.043754 
L 336.712654 407.565871 
L 338.566552 412.587361 
L 340.420449 405.530551 
L 342.274347 418.017495 
L 344.128245 390.191012 
L 345.982142 432.913452 
L 347.83604 411.849245 
L 349.689937 431.41526 
L 351.543835 426.840161 
L 353.397732 363.623657 
L 355.25163 401.080541 
L 357.105528 441.601114 
L 358.959425 438.954135 
L 360.813323 435.573199 
L 362.66722 400.102489 
L 364.521118 403.454285 
L 366.375016 442.119678 
L 368.228913 437.507868 
L 370.082811 431.525089 
L 371.936708 435.611336 
L 373.790606 393.131836 
L 375.644504 403.756089 
L 377.498401 421.152833 
L 379.352299 441.902723 
L 381.206196 439.731664 
L 383.060094 426.321357 
L 384.913991 405.861104 
L 386.767889 406.175781 
L 388.621787 421.425362 
L 390.475684 432.793154 
L 392.329582 426.704392 
L 394.183479 449.053531 
L 396.037377 380.787525 
L 397.891275 388.287661 
L 399.745172 449.453764 
L 401.59907 434.15077 
L 403.452967 410.994226 
L 405.306865 418.22754 
L 407.160762 445.027426 
L 409.01466 425.786887 
L 410.868558 409.123408 
L 412.722455 425.966531 
L 414.576353 429.878136 
L 416.43025 423.723689 
L 418.284148 459.356379 
L 420.138046 449.267376 
L 421.991943 455.326068 
L 423.845841 442.021219 
L 425.699738 450.844155 
L 427.553636 436.956215 
L 429.407534 443.674451 
L 431.261431 455.42367 
L 433.115329 460.90941 
L 434.969226 487.761296 
L 436.823124 496.35958 
L 438.677021 471.654067 
L 440.530919 461.045645 
L 442.384817 467.034973 
L 444.238714 450.424981 
L 446.092612 395.563919 
L 447.946509 450.014009 
L 449.800407 439.975069 
L 451.654305 442.548164 
L 453.508202 445.523128 
L 455.3621 457.675104 
L 457.215997 431.115995 
L 459.069895 466.435855 
L 460.923793 476.167959 
L 462.77769 470.442223 
L 464.631588 492.111286 
L 466.485485 485.668959 
L 468.339383 469.483713 
L 470.19328 492.788457 
L 473.901076 432.930786 
L 475.754973 429.170421 
L 477.608871 454.114194 
L 479.462768 482.223376 
L 481.316666 456.904814 
L 483.170564 472.868209 
L 485.024461 499.139024 
L 486.878359 504.074891 
L 488.732256 506.789492 
L 490.586154 521.432416 
L 492.440051 512.413502 
L 494.293949 557.358709 
L 496.147847 559.898297 
L 498.001744 564.898845 
L 499.855642 584.033625 
L 501.709539 587.398791 
L 503.563437 587.007557 
L 505.417335 615.6 
L 507.271232 596.822177 
L 509.12513 583.625356 
L 510.979027 592.749332 
L 514.686823 538.519071 
L 516.54072 560.651824 
L 518.394618 546.080716 
L 520.248515 512.677838 
L 522.102413 514.048987 
L 523.95631 546.311069 
L 525.810208 556.501954 
L 527.664106 538.392975 
L 529.518003 564.144454 
L 531.371901 543.078842 
L 531.371901 543.078842 
" style="fill:none;stroke:#cd5c5c;stroke-linecap:square;stroke-width:3;"/>
   </g>
   <g id="patch_3">
    <path d="M 144 640.8 
L 144 86.4 
" style="fill:none;stroke:#000000;stroke-linecap:square;stroke-linejoin:miter;stroke-width:0.8;"/>
   </g>
   <g id="patch_4">
    <path d="M 549.818182 640.8 
L 549.818182 86.4 
" style="fill:none;stroke:#000000;stroke-linecap:square;stroke-linejoin:miter;stroke-width:0.8;"/>
   </g>
   <g id="patch_5">
    <path d="M 144 640.8 
L 549.818182 640.8 
" style="fill:none;stroke:#000000;stroke-linecap:square;stroke-linejoin:miter;stroke-width:0.8;"/>
   </g>
   <g id="patch_6">
    <path d="M 144 86.4 
L 549.818182 86.4 
" style="fill:none;stroke:#000000;stroke-linecap:square;stroke-linejoin:miter;stroke-width:0.8;"/>
   </g>
   <g id="legend_1">
    <g id="patch_7">
     <path d="M 407.570369 126.315 
L 537.218182 126.315 
Q 540.818182 126.315 540.818182 122.715 
L 540.818182 99 
Q 540.818182 95.4 537.218182 95.4 
L 407.570369 95.4 
Q 403.970369 95.4 403.970369 99 
L 403.970369 122.715 
Q 403.970369 126.315 407.570369 126.315 
z
" style="fill:#ffffff;opacity:0.8;stroke:#cccccc;stroke-linejoin:miter;"/>
    </g>
    <g id="line2d_10">
     <path d="M 411.170369 109.2375 
L 447.170369 109.2375 
" style="fill:none;stroke:#cd5c5c;stroke-linecap:square;stroke-width:3;"/>
    </g>
    <g id="line2d_11"/>
    <g id="text_11">
     <text style="font-family:Arial;font-size:18px;font-style:normal;font-weight:regular;text-anchor:start;" transform="rotate(-0, 461.570369, 115.5375)" x="461.570369" y="115.5375">ephrinB1</text>
    </g>
   </g>
  </g>
  <g id="axes_2">
   <g id="patch_8">
    <path d="M 630.981818 640.8 
L 1036.8 640.8 
L 1036.8 86.4 
L 630.981818 86.4 
z
" style="fill:none;"/>
   </g>
   <g id="matplotlib.axis_3">
    <g id="xtick_3">
     <g id="line2d_12">
      <g>
       <use style="stroke:#000000;stroke-width:0.8;" x="649.428099" xlink:href="#m7783b08905" y="640.8"/>
      </g>
     </g>
     <g id="text_12">
      <text style="font-family:Arial;font-size:18px;font-style:normal;font-weight:regular;text-anchor:middle;" transform="rotate(-0, 649.428099, 660.684062)" x="649.428099" y="660.684062">Ant.</text>
     </g>
    </g>
    <g id="xtick_4">
     <g id="line2d_13">
      <g>
       <use style="stroke:#000000;stroke-width:0.8;" x="1020.207617" xlink:href="#m7783b08905" y="640.8"/>
      </g>
     </g>
     <g id="text_13">
      <text style="font-family:Arial;font-size:18px;font-style:normal;font-weight:regular;text-anchor:middle;" transform="rotate(-0, 1020.207617, 660.684062)" x="1020.207617" y="660.684062">Post.</text>
     </g>
    </g>
    <g id="text_14">
     <text style="font-family:Arial;font-size:18px;font-style:normal;font-weight:normal;text-anchor:middle;" transform="rotate(-0, 833.890909, 681.145625)" x="833.890909" y="681.145625">Tectal A-P axis</text>
    </g>
   </g>
   <g id="matplotlib.axis_4">
    <g id="ytick_7">
     <g id="line2d_14">
      <g>
       <use style="stroke:#000000;stroke-width:0.8;" x="630.981818" xlink:href="#m870a1ef65e" y="615.6"/>
      </g>
     </g>
     <g id="text_15">
      <text style="font-family:Arial;font-size:18px;font-style:normal;font-weight:regular;text-anchor:end;" transform="rotate(-0, 623.981818, 622.042031)" x="623.981818" y="622.042031">0.0</text>
     </g>
    </g>
    <g id="ytick_8">
     <g id="line2d_15">
      <g>
       <use style="stroke:#000000;stroke-width:0.8;" x="630.981818" xlink:href="#m870a1ef65e" y="514.8"/>
      </g>
     </g>
     <g id="text_16">
      <text style="font-family:Arial;font-size:18px;font-style:normal;font-weight:regular;text-anchor:end;" transform="rotate(-0, 623.981818, 521.242031)" x="623.981818" y="521.242031">0.2</text>
     </g>
    </g>
    <g id="ytick_9">
     <g id="line2d_16">
      <g>
       <use style="stroke:#000000;stroke-width:0.8;" x="630.981818" xlink:href="#m870a1ef65e" y="414"/>
      </g>
     </g>
     <g id="text_17">
      <text style="font-family:Arial;font-size:18px;font-style:normal;font-weight:regular;text-anchor:end;" transform="rotate(-0, 623.981818, 420.442031)" x="623.981818" y="420.442031">0.4</text>
     </g>
    </g>
    <g id="ytick_10">
     <g id="line2d_17">
      <g>
       <use style="stroke:#000000;stroke-width:0.8;" x="630.981818" xlink:href="#m870a1ef65e" y="313.2"/>
      </g>
     </g>
     <g id="text_18">
      <text style="font-family:Arial;font-size:18px;font-style:normal;font-weight:regular;text-anchor:end;" transform="rotate(-0, 623.981818, 319.642031)" x="623.981818" y="319.642031">0.6</text>
     </g>
    </g>
    <g id="ytick_11">
     <g id="line2d_18">
      <g>
       <use style="stroke:#000000;stroke-width:0.8;" x="630.981818" xlink:href="#m870a1ef65e" y="212.4"/>
      </g>
     </g>
     <g id="text_19">
      <text style="font-family:Arial;font-size:18px;font-style:normal;font-weight:regular;text-anchor:end;" transform="rotate(-0, 623.981818, 218.842031)" x="623.981818" y="218.842031">0.8</text>
     </g>
    </g>
    <g id="ytick_12">
     <g id="line2d_19">
      <g>
       <use style="stroke:#000000;stroke-width:0.8;" x="630.981818" xlink:href="#m870a1ef65e" y="111.6"/>
      </g>
     </g>
     <g id="text_20">
      <text style="font-family:Arial;font-size:18px;font-style:normal;font-weight:regular;text-anchor:end;" transform="rotate(-0, 623.981818, 118.042031)" x="623.981818" y="118.042031">1.0</text>
     </g>
    </g>
    <g id="text_21">
     <text style="font-family:Arial;font-size:18px;font-style:normal;font-weight:normal;text-anchor:middle;" transform="rotate(-90, 591.173381, 363.6)" x="591.173381" y="363.6">Normalised expression (E8)</text>
    </g>
   </g>
   <g id="line2d_20">
    <path clip-path="url(#pc2c2a670a2)" d="M 649.428099 482.145135 
L 651.281997 474.34764 
L 653.135894 433.089176 
L 654.989792 444.901856 
L 658.697587 383.824929 
L 660.551485 349.487941 
L 662.405382 317.314097 
L 664.25928 307.308848 
L 666.113177 306.84574 
L 667.967075 340.043793 
L 669.820973 357.86309 
L 671.67487 322.358599 
L 673.528768 266.240692 
L 675.382665 307.131067 
L 677.236563 289.080788 
L 679.090461 344.792634 
L 680.944358 410.93123 
L 682.798256 415.888989 
L 686.506051 514.939996 
L 688.359949 508.17799 
L 690.213846 496.383883 
L 692.067744 477.883225 
L 693.921641 505.233712 
L 695.775539 534.286301 
L 697.629436 528.615878 
L 699.483334 520.70908 
L 701.337232 549.243443 
L 705.045027 595.620128 
L 706.898924 572.645146 
L 708.752822 536.48867 
L 710.60672 538.765232 
L 712.460617 530.172454 
L 714.314515 531.715842 
L 716.168412 505.831373 
L 718.02231 474.444551 
L 719.876207 401.736826 
L 721.730105 421.159547 
L 723.584003 397.527022 
L 725.4379 420.323438 
L 727.291798 417.962356 
L 729.145695 438.468556 
L 730.999593 423.544301 
L 732.853491 388.650974 
L 734.707388 454.514097 
L 736.561286 435.540966 
L 738.415183 538.19554 
L 740.269081 516.854973 
L 742.122979 575.793089 
L 743.976876 580.032923 
L 745.830774 489.398682 
L 747.684671 464.047676 
L 749.538569 494.399639 
L 751.392466 431.293175 
L 753.246364 488.000646 
L 755.100262 485.122938 
L 756.954159 403.674844 
L 758.808057 392.205454 
L 760.661954 472.473969 
L 762.515852 473.021266 
L 764.36975 427.167575 
L 766.223647 475.757587 
L 768.077545 478.530603 
L 769.931442 440.395609 
L 771.78534 439.711837 
L 773.639238 440.776406 
L 775.493135 444.341536 
L 777.347033 378.94454 
L 779.20093 243.569125 
L 781.054828 491.639173 
L 782.908725 513.142733 
L 784.762623 555.530752 
L 786.616521 545.72423 
L 788.470418 538.505012 
L 790.324316 555.701534 
L 792.178213 570.921758 
L 794.032111 589.582719 
L 795.886009 566.033589 
L 797.739906 561.380067 
L 799.593804 574.030464 
L 801.447701 558.383203 
L 803.301599 459.990224 
L 805.155496 502.240505 
L 807.009394 595.525127 
L 808.863292 572.624651 
L 810.717189 580.33318 
L 812.571087 583.369443 
L 814.424984 615.6 
L 816.278882 573.617407 
L 818.13278 507.193968 
L 819.986677 549.413909 
L 821.840575 509.19553 
L 823.694472 494.064272 
L 825.54837 513.807911 
L 827.402268 487.91533 
L 829.256165 447.864248 
L 831.110063 489.655245 
L 832.96396 502.032075 
L 834.817858 456.213802 
L 836.671755 445.496347 
L 838.525653 466.023185 
L 840.379551 440.574652 
L 842.233448 472.677315 
L 844.087346 451.072239 
L 845.941243 435.821516 
L 847.795141 401.625134 
L 849.649039 383.179443 
L 851.502936 329.573063 
L 853.356834 322.414054 
L 855.210731 300.646593 
L 857.064629 309.972891 
L 858.918527 372.735555 
L 860.772424 348.393677 
L 862.626322 218.342864 
L 864.480219 298.159881 
L 866.334117 323.083842 
L 868.188014 350.695339 
L 870.041912 301.089063 
L 871.89581 309.634663 
L 873.749707 378.994903 
L 875.603605 353.726209 
L 877.457502 311.267017 
L 879.3114 339.590088 
L 881.165298 352.968071 
L 883.019195 400.378519 
L 884.873093 397.114277 
L 886.72699 292.350602 
L 888.580888 282.848776 
L 890.434785 320.900511 
L 892.288683 122.025639 
L 894.142581 111.6 
L 895.996478 267.482396 
L 897.850376 224.527051 
L 899.704273 311.26939 
L 901.558171 298.298399 
L 903.412069 423.913502 
L 905.265966 395.8451 
L 907.119864 370.167792 
L 908.973761 334.72526 
L 910.827659 356.1748 
L 912.681557 407.997451 
L 914.535454 366.556595 
L 916.389352 286.531621 
L 918.243249 268.643711 
L 920.097147 310.766087 
L 921.951044 275.681806 
L 923.804942 290.552213 
L 925.65884 323.425225 
L 927.512737 367.486596 
L 929.366635 381.086385 
L 933.07443 348.43261 
L 934.928328 416.836309 
L 936.782225 394.064511 
L 938.636123 346.276316 
L 940.49002 371.602989 
L 942.343918 413.766851 
L 944.197816 473.23415 
L 947.905611 422.885312 
L 949.759508 423.228633 
L 951.613406 471.379224 
L 953.467303 459.392413 
L 955.321201 474.686665 
L 957.175099 483.487716 
L 959.028996 421.436778 
L 960.882894 397.160675 
L 962.736791 381.297031 
L 964.590689 394.015109 
L 966.444587 352.55423 
L 968.298484 342.702609 
L 970.152382 373.210078 
L 972.006279 348.341737 
L 973.860177 433.2474 
L 975.714075 432.831651 
L 977.567972 418.228937 
L 979.42187 385.177348 
L 981.275767 326.729346 
L 983.129665 287.898985 
L 984.983562 329.141588 
L 986.83746 340.109883 
L 988.691358 358.461381 
L 990.545255 314.773672 
L 992.399153 265.511003 
L 994.25305 266.5122 
L 996.106948 265.714348 
L 997.960846 326.974959 
L 999.814743 227.028723 
L 1001.668641 216.075509 
L 1003.522538 210.865964 
L 1005.376436 292.512161 
L 1007.230333 310.157792 
L 1009.084231 287.719311 
L 1010.938129 267.877642 
L 1014.645924 405.931069 
L 1016.499821 428.976268 
L 1018.353719 440.80517 
L 1018.353719 440.80517 
" style="fill:none;stroke:#cd5c5c;stroke-linecap:square;stroke-width:3;"/>
   </g>
   <g id="patch_9">
    <path d="M 630.981818 640.8 
L 630.981818 86.4 
" style="fill:none;stroke:#000000;stroke-linecap:square;stroke-linejoin:miter;stroke-width:0.8;"/>
   </g>
   <g id="patch_10">
    <path d="M 1036.8 640.8 
L 1036.8 86.4 
" style="fill:none;stroke:#000000;stroke-linecap:square;stroke-linejoin:miter;stroke-width:0.8;"/>
   </g>
   <g id="patch_11">
    <path d="M 630.981818 640.8 
L 1036.8 640.8 
" style="fill:none;stroke:#000000;stroke-linecap:square;stroke-linejoin:miter;stroke-width:0.8;"/>
   </g>
   <g id="patch_12">
    <path d="M 630.981818 86.4 
L 1036.8 86.4 
" style="fill:none;stroke:#000000;stroke-linecap:square;stroke-linejoin:miter;stroke-width:0.8;"/>
   </g>
   <g id="legend_2">
    <g id="patch_13">
     <path d="M 643.581818 126.315 
L 773.229631 126.315 
Q 776.829631 126.315 776.829631 122.715 
L 776.829631 99 
Q 776.829631 95.4 773.229631 95.4 
L 643.581818 95.4 
Q 639.981818 95.4 639.981818 99 
L 639.981818 122.715 
Q 639.981818 126.315 643.581818 126.315 
z
" style="fill:#ffffff;opacity:0.8;stroke:#cccccc;stroke-linejoin:miter;"/>
    </g>
    <g id="line2d_21">
     <path d="M 647.181818 109.2375 
L 683.181818 109.2375 
" style="fill:none;stroke:#cd5c5c;stroke-linecap:square;stroke-width:3;"/>
    </g>
    <g id="line2d_22"/>
    <g id="text_22">
     <text style="font-family:Arial;font-size:18px;font-style:normal;font-weight:regular;text-anchor:start;" transform="rotate(-0, 697.581818, 115.5375)" x="697.581818" y="115.5375">ephrinB1</text>
    </g>
   </g>
  </g>
 </g>
 <defs>
  <clipPath id="p340ded84bd">
   <rect height="554.4" width="405.818182" x="144" y="86.4"/>
  </clipPath>
  <clipPath id="pc2c2a670a2">
   <rect height="554.4" width="405.818182" x="630.981818" y="86.4"/>
  </clipPath>
 </defs>
</svg>
