<?xml version="1.0" encoding="utf-8" standalone="no"?>
<!DOCTYPE svg PUBLIC "-//W3C//DTD SVG 1.1//EN"
  "http://www.w3.org/Graphics/SVG/1.1/DTD/svg11.dtd">
<!-- Created with matplotlib (https://matplotlib.org/) -->
<svg height="720pt" version="1.1" viewBox="0 0 576 720" width="576pt" xmlns="http://www.w3.org/2000/svg" xmlns:xlink="http://www.w3.org/1999/xlink">
 <defs>
  <style type="text/css">
*{stroke-linecap:butt;stroke-linejoin:round;}
  </style>
 </defs>
 <g id="figure_1">
  <g id="patch_1">
   <path d="M 0 720 
L 576 720 
L 576 0 
L 0 0 
z
" style="fill:none;"/>
  </g>
  <g id="axes_1">
   <g id="patch_2">
    <path d="M 106.04 626.92 
L 531.397872 626.92 
L 531.397872 30.24 
L 106.04 30.24 
z
" style="fill:none;"/>
   </g>
   <g id="matplotlib.axis_1">
    <g id="xtick_1">
     <g id="line2d_1">
      <defs>
       <path d="M 0 0 
L 0 3.5 
" id="me4e002a201" style="stroke:#000000;stroke-width:0.8;"/>
      </defs>
      <g>
       <use style="stroke:#000000;stroke-width:0.8;" x="125.374449" xlink:href="#me4e002a201" y="626.92"/>
      </g>
     </g>
     <g id="text_1">
      <text style="font-family:Arial;font-size:28px;font-style:normal;font-weight:regular;text-anchor:middle;" transform="rotate(-0, 125.374449, 653.961875)" x="125.374449" y="653.961875">Dors.</text>
     </g>
    </g>
    <g id="xtick_2">
     <g id="line2d_2">
      <g>
       <use style="stroke:#000000;stroke-width:0.8;" x="514.006584" xlink:href="#me4e002a201" y="626.92"/>
      </g>
     </g>
     <g id="text_2">
      <text style="font-family:Arial;font-size:28px;font-style:normal;font-weight:regular;text-anchor:middle;" transform="rotate(-0, 514.006584, 653.961875)" x="514.006584" y="653.961875">Vent.</text>
     </g>
    </g>
    <g id="text_3">
     <text style="font-family:Arial;font-size:28px;font-style:normal;font-weight:normal;text-anchor:middle;" transform="rotate(-0, 318.718936, 683.56875)" x="318.718936" y="683.56875">Retinal D-V axis</text>
    </g>
   </g>
   <g id="matplotlib.axis_2">
    <g id="ytick_1">
     <g id="line2d_3">
      <defs>
       <path d="M 0 0 
L -3.5 0 
" id="m7716141d0c" style="stroke:#000000;stroke-width:0.8;"/>
      </defs>
      <g>
       <use style="stroke:#000000;stroke-width:0.8;" x="106.04" xlink:href="#m7716141d0c" y="599.798182"/>
      </g>
     </g>
     <g id="text_4">
      <text style="font-family:Arial;font-size:28px;font-style:normal;font-weight:regular;text-anchor:end;" transform="rotate(-0, 99.04, 609.819119)" x="99.04" y="609.819119">0.0</text>
     </g>
    </g>
    <g id="ytick_2">
     <g id="line2d_4">
      <g>
       <use style="stroke:#000000;stroke-width:0.8;" x="106.04" xlink:href="#m7716141d0c" y="491.310909"/>
      </g>
     </g>
     <g id="text_5">
      <text style="font-family:Arial;font-size:28px;font-style:normal;font-weight:regular;text-anchor:end;" transform="rotate(-0, 99.04, 501.331847)" x="99.04" y="501.331847">0.2</text>
     </g>
    </g>
    <g id="ytick_3">
     <g id="line2d_5">
      <g>
       <use style="stroke:#000000;stroke-width:0.8;" x="106.04" xlink:href="#m7716141d0c" y="382.823636"/>
      </g>
     </g>
     <g id="text_6">
      <text style="font-family:Arial;font-size:28px;font-style:normal;font-weight:regular;text-anchor:end;" transform="rotate(-0, 99.04, 392.844574)" x="99.04" y="392.844574">0.4</text>
     </g>
    </g>
    <g id="ytick_4">
     <g id="line2d_6">
      <g>
       <use style="stroke:#000000;stroke-width:0.8;" x="106.04" xlink:href="#m7716141d0c" y="274.336364"/>
      </g>
     </g>
     <g id="text_7">
      <text style="font-family:Arial;font-size:28px;font-style:normal;font-weight:regular;text-anchor:end;" transform="rotate(-0, 99.04, 284.357301)" x="99.04" y="284.357301">0.6</text>
     </g>
    </g>
    <g id="ytick_5">
     <g id="line2d_7">
      <g>
       <use style="stroke:#000000;stroke-width:0.8;" x="106.04" xlink:href="#m7716141d0c" y="165.849091"/>
      </g>
     </g>
     <g id="text_8">
      <text style="font-family:Arial;font-size:28px;font-style:normal;font-weight:regular;text-anchor:end;" transform="rotate(-0, 99.04, 175.870028)" x="99.04" y="175.870028">0.8</text>
     </g>
    </g>
    <g id="ytick_6">
     <g id="line2d_8">
      <g>
       <use style="stroke:#000000;stroke-width:0.8;" x="106.04" xlink:href="#m7716141d0c" y="57.361818"/>
      </g>
     </g>
     <g id="text_9">
      <text style="font-family:Arial;font-size:28px;font-style:normal;font-weight:regular;text-anchor:end;" transform="rotate(-0, 99.04, 67.382756)" x="99.04" y="67.382756">1.0</text>
     </g>
    </g>
    <g id="text_10">
     <text style="font-family:Arial;font-size:28px;font-style:normal;font-weight:normal;text-anchor:middle;" transform="rotate(-90, 50.555, 328.58)" x="50.555" y="328.58">Normalised expression</text>
    </g>
   </g>
   <g id="line2d_9">
    <path clip-path="url(#p85297d2d55)" d="M 125.374449 182.840765 
L 127.317609 175.685495 
L 129.26077 170.58801 
L 131.203931 135.560076 
L 133.147091 119.251792 
L 135.090252 113.422608 
L 137.033413 122.097145 
L 138.976573 121.390794 
L 140.919734 129.241907 
L 142.862895 91.238743 
L 144.806055 62.877643 
L 146.749216 61.749718 
L 148.692377 71.127116 
L 150.635537 67.77063 
L 152.578698 59.750874 
L 154.521859 57.361818 
L 156.46502 62.601013 
L 158.40818 61.273472 
L 160.351341 66.947496 
L 162.294502 64.807168 
L 164.237662 67.076112 
L 168.123984 87.18609 
L 170.067144 102.988125 
L 172.010305 103.404169 
L 173.953466 121.699691 
L 175.896626 131.927057 
L 177.839787 125.84575 
L 179.782948 113.152573 
L 181.726108 114.953482 
L 183.669269 125.762302 
L 185.61243 101.506394 
L 187.55559 107.503962 
L 189.498751 103.666897 
L 191.441912 108.623706 
L 193.385072 135.445978 
L 195.328233 141.069952 
L 197.271394 145.934972 
L 199.214554 162.83247 
L 203.100876 141.397569 
L 205.044036 150.179384 
L 206.987197 158.25808 
L 208.930358 185.690613 
L 210.873518 200.375877 
L 212.816679 172.541493 
L 214.75984 177.696787 
L 216.703 178.998527 
L 218.646161 184.013307 
L 220.589322 203.386769 
L 222.532482 211.849922 
L 226.418804 193.196876 
L 228.361964 185.008607 
L 230.305125 161.180318 
L 232.248286 189.503558 
L 234.191447 184.692629 
L 236.134607 197.951385 
L 238.077768 202.331494 
L 240.020929 220.540399 
L 241.964089 266.31375 
L 243.90725 242.082964 
L 245.850411 224.3128 
L 247.793571 221.805539 
L 249.736732 220.095288 
L 251.679893 227.303808 
L 253.623053 172.086683 
L 255.566214 175.531337 
L 257.509375 183.487884 
L 259.452535 222.562781 
L 261.395696 235.455962 
L 263.338857 224.996778 
L 265.282017 231.571111 
L 267.225178 218.926431 
L 269.168339 239.860287 
L 271.111499 240.829657 
L 273.05466 275.493471 
L 274.997821 253.018265 
L 276.940981 275.686976 
L 278.884142 273.324335 
L 280.827303 272.307309 
L 282.770463 251.945175 
L 284.713624 260.21243 
L 286.656785 248.58135 
L 288.599945 284.16678 
L 290.543106 277.501206 
L 292.486267 307.563084 
L 294.429427 273.358316 
L 296.372588 285.701923 
L 298.315749 312.49364 
L 300.258909 299.230487 
L 302.20207 299.119977 
L 304.145231 293.809556 
L 306.088391 306.416246 
L 308.031552 303.266521 
L 309.974713 305.834372 
L 311.917874 347.062432 
L 313.861034 368.421417 
L 315.804195 376.252468 
L 317.747356 373.226946 
L 319.690516 410.736971 
L 321.633677 422.023427 
L 323.576838 429.538096 
L 325.519998 447.024614 
L 327.463159 441.423433 
L 329.40632 446.664681 
L 331.34948 466.095766 
L 333.292641 467.896433 
L 335.235802 456.303399 
L 337.178962 462.483835 
L 339.122123 491.506272 
L 341.065284 502.613053 
L 343.008444 496.502728 
L 344.951605 507.354654 
L 346.894766 504.034242 
L 348.837926 504.984334 
L 350.781087 509.538993 
L 352.724248 506.101638 
L 354.667408 513.09495 
L 356.610569 522.128192 
L 358.55373 531.955396 
L 360.49689 543.831385 
L 362.440051 573.437521 
L 364.383212 595.791066 
L 366.326372 599.437823 
L 368.269533 599.798182 
L 370.212694 599.083518 
L 372.155854 594.246449 
L 374.099015 592.618415 
L 376.042176 575.892394 
L 377.985336 548.758413 
L 379.928497 542.552156 
L 381.871658 524.009874 
L 383.814818 500.67268 
L 385.757979 510.969753 
L 387.70114 498.66471 
L 389.644301 502.117431 
L 391.587461 485.199185 
L 393.530622 499.70091 
L 395.473783 494.974585 
L 397.416943 479.686464 
L 399.360104 492.83939 
L 401.303265 491.721205 
L 403.246425 493.766672 
L 405.189586 496.924156 
L 407.132747 492.58928 
L 409.075907 477.929315 
L 411.019068 479.971355 
L 412.962229 477.552093 
L 414.905389 481.927925 
L 416.84855 474.499218 
L 418.791711 475.209311 
L 420.734871 477.731752 
L 422.678032 486.148541 
L 424.621193 479.714762 
L 426.564353 486.594784 
L 428.507514 473.934342 
L 430.450675 477.582282 
L 432.393835 479.980836 
L 434.336996 500.812725 
L 436.280157 503.840422 
L 438.223317 515.989133 
L 440.166478 517.081137 
L 442.109639 520.833541 
L 444.052799 507.836712 
L 445.99596 516.536994 
L 447.939121 495.736628 
L 449.882281 492.182304 
L 451.825442 462.891651 
L 453.768603 471.634336 
L 455.711763 470.95031 
L 457.654924 463.903974 
L 459.598085 457.362732 
L 461.541245 482.76661 
L 463.484406 488.134 
L 465.427567 476.887603 
L 467.370728 483.003642 
L 469.313888 487.420883 
L 471.257049 484.103988 
L 473.20021 477.179728 
L 475.14337 495.246463 
L 477.086531 486.386794 
L 479.029692 485.345405 
L 480.972852 483.924668 
L 482.916013 497.453992 
L 484.859174 503.725442 
L 486.802334 515.480684 
L 488.745495 514.702685 
L 490.688656 514.582678 
L 492.631816 517.977113 
L 494.574977 527.184074 
L 496.518138 514.574684 
L 498.461298 514.027825 
L 500.404459 516.360099 
L 502.34762 513.227033 
L 504.29078 514.314236 
L 508.177102 467.241117 
L 510.120262 448.889685 
L 512.063423 432.214161 
L 512.063423 432.214161 
" style="fill:none;stroke:#cd5c5c;stroke-linecap:square;stroke-width:3;"/>
   </g>
   <g id="line2d_10">
    <path clip-path="url(#p85297d2d55)" d="M 125.374449 219.802169 
L 127.317609 197.643523 
L 129.26077 189.396216 
L 131.203931 179.157728 
L 133.147091 173.172932 
L 135.090252 185.064476 
L 137.033413 181.118066 
L 138.976573 146.009787 
L 140.919734 160.411696 
L 142.862895 198.826217 
L 144.806055 156.857696 
L 146.749216 153.81208 
L 148.692377 129.431436 
L 150.635537 110.760672 
L 152.578698 104.095616 
L 154.521859 126.158075 
L 156.46502 115.593618 
L 158.40818 57.361818 
L 160.351341 58.384891 
L 162.294502 113.662541 
L 164.237662 152.385442 
L 166.180823 126.726984 
L 168.123984 113.432824 
L 170.067144 92.67065 
L 172.010305 112.008418 
L 173.953466 146.792765 
L 175.896626 119.58885 
L 177.839787 133.896124 
L 179.782948 150.785798 
L 181.726108 147.885415 
L 183.669269 171.302768 
L 185.61243 185.782984 
L 187.55559 192.645943 
L 189.498751 195.41813 
L 191.441912 191.182286 
L 193.385072 208.257931 
L 195.328233 226.896881 
L 197.271394 222.681406 
L 199.214554 207.725687 
L 201.157715 175.716663 
L 203.100876 183.856789 
L 205.044036 177.322353 
L 208.930358 207.384005 
L 210.873518 216.415 
L 212.816679 202.929437 
L 214.75984 220.672959 
L 216.703 239.494324 
L 218.646161 241.851986 
L 220.589322 257.475937 
L 222.532482 263.035669 
L 224.475643 235.08987 
L 226.418804 234.396969 
L 228.361964 247.365451 
L 230.305125 249.282625 
L 232.248286 246.217771 
L 234.191447 236.978689 
L 236.134607 232.038822 
L 238.077768 229.014771 
L 240.020929 231.309806 
L 241.964089 208.800523 
L 243.90725 214.821466 
L 245.850411 195.521365 
L 247.793571 171.79767 
L 249.736732 186.793124 
L 251.679893 183.285326 
L 253.623053 210.982041 
L 255.566214 204.294708 
L 257.509375 211.361325 
L 259.452535 211.932853 
L 261.395696 196.172785 
L 263.338857 208.758394 
L 265.282017 197.148944 
L 267.225178 217.766822 
L 269.168339 220.206153 
L 271.111499 213.028575 
L 273.05466 198.51926 
L 274.997821 277.180734 
L 276.940981 374.809455 
L 278.884142 208.270606 
L 280.827303 231.95602 
L 282.770463 240.443713 
L 284.713624 240.683323 
L 286.656785 236.749069 
L 288.599945 246.921374 
L 290.543106 249.568276 
L 292.486267 235.054661 
L 296.372588 272.657396 
L 300.258909 301.188496 
L 302.20207 290.465194 
L 304.145231 300.79586 
L 306.088391 326.088937 
L 308.031552 293.860931 
L 309.974713 305.423597 
L 311.917874 313.029442 
L 313.861034 305.457642 
L 315.804195 322.753435 
L 317.747356 316.468761 
L 319.690516 341.867919 
L 321.633677 374.493089 
L 323.576838 382.049967 
L 325.519998 410.408577 
L 327.463159 427.2929 
L 329.40632 422.251463 
L 331.34948 425.13036 
L 333.292641 476.852652 
L 335.235802 438.467731 
L 337.178962 433.04292 
L 339.122123 445.375631 
L 341.065284 436.863205 
L 343.008444 439.558992 
L 344.951605 474.358607 
L 346.894766 454.852933 
L 348.837926 460.106871 
L 350.781087 479.279148 
L 352.724248 493.60473 
L 354.667408 480.377934 
L 356.610569 494.10023 
L 358.55373 469.960627 
L 360.49689 481.987909 
L 362.440051 506.368059 
L 364.383212 493.248273 
L 366.326372 488.441725 
L 368.269533 506.097516 
L 370.212694 508.090831 
L 372.155854 504.554872 
L 374.099015 479.144066 
L 376.042176 488.133564 
L 377.985336 477.493419 
L 379.928497 481.586001 
L 381.871658 500.972622 
L 383.814818 492.321807 
L 385.757979 465.579493 
L 387.70114 499.104591 
L 389.644301 507.44317 
L 391.587461 491.71229 
L 393.530622 516.450296 
L 395.473783 508.530462 
L 397.416943 525.226072 
L 399.360104 522.171153 
L 401.303265 525.789558 
L 403.246425 527.000098 
L 405.189586 524.507508 
L 407.132747 520.430663 
L 409.075907 532.071491 
L 411.019068 509.868761 
L 412.962229 504.272454 
L 414.905389 522.545328 
L 416.84855 523.019093 
L 418.791711 534.810162 
L 420.734871 535.192105 
L 422.678032 538.891542 
L 424.621193 536.588383 
L 426.564353 529.046365 
L 428.507514 541.762009 
L 430.450675 528.215674 
L 432.393835 542.73133 
L 434.336996 535.724002 
L 436.280157 545.86815 
L 438.223317 536.904923 
L 440.166478 537.701338 
L 442.109639 535.193705 
L 444.052799 543.916644 
L 445.99596 539.899851 
L 447.939121 527.769084 
L 449.882281 524.511436 
L 451.825442 541.378813 
L 453.768603 542.371147 
L 455.711763 560.315958 
L 457.654924 547.980629 
L 459.598085 554.131461 
L 461.541245 572.630163 
L 463.484406 582.283526 
L 465.427567 575.337177 
L 467.370728 573.672336 
L 469.313888 583.309027 
L 471.257049 599.798182 
L 473.20021 589.431261 
L 475.14337 594.077008 
L 477.086531 590.708135 
L 479.029692 591.763547 
L 480.972852 592.166963 
L 482.916013 571.490466 
L 484.859174 589.477957 
L 486.802334 590.869141 
L 488.745495 593.482241 
L 490.688656 591.195342 
L 492.631816 577.063726 
L 494.574977 579.211236 
L 496.518138 586.325922 
L 498.461298 576.138744 
L 500.404459 572.111797 
L 502.34762 561.426618 
L 504.29078 560.467655 
L 506.233941 555.103752 
L 508.177102 541.690176 
L 510.120262 540.657921 
L 512.063423 537.67076 
L 512.063423 537.67076 
" style="fill:none;stroke:#ff6eb4;stroke-linecap:square;stroke-width:3;"/>
   </g>
   <g id="patch_3">
    <path d="M 106.04 626.92 
L 106.04 30.24 
" style="fill:none;stroke:#000000;stroke-linecap:square;stroke-linejoin:miter;stroke-width:0.8;"/>
   </g>
   <g id="patch_4">
    <path d="M 531.397872 626.92 
L 531.397872 30.24 
" style="fill:none;stroke:#000000;stroke-linecap:square;stroke-linejoin:miter;stroke-width:0.8;"/>
   </g>
   <g id="patch_5">
    <path d="M 106.04 626.92 
L 531.397872 626.92 
" style="fill:none;stroke:#000000;stroke-linecap:square;stroke-linejoin:miter;stroke-width:0.8;"/>
   </g>
   <g id="patch_6">
    <path d="M 106.04 30.24 
L 531.397872 30.24 
" style="fill:none;stroke:#000000;stroke-linecap:square;stroke-linejoin:miter;stroke-width:0.8;"/>
   </g>
   <g id="legend_1">
    <g id="patch_7">
     <path d="M 310.123497 132.02 
L 511.797872 132.02 
Q 517.397872 132.02 517.397872 126.42 
L 517.397872 49.84 
Q 517.397872 44.24 511.797872 44.24 
L 310.123497 44.24 
Q 304.523497 44.24 304.523497 49.84 
L 304.523497 126.42 
Q 304.523497 132.02 310.123497 132.02 
z
" style="fill:#ffffff;opacity:0.8;stroke:#cccccc;stroke-linejoin:miter;"/>
    </g>
    <g id="line2d_11">
     <path d="M 315.723497 65.765 
L 371.723497 65.765 
" style="fill:none;stroke:#cd5c5c;stroke-linecap:square;stroke-width:3;"/>
    </g>
    <g id="line2d_12"/>
    <g id="text_11">
     <text style="font-family:Arial;font-size:28px;font-style:normal;font-weight:regular;text-anchor:start;" transform="rotate(-0, 394.123497, 75.565)" x="394.123497" y="75.565">ephrinB1</text>
    </g>
    <g id="line2d_13">
     <path d="M 315.723497 105.455 
L 371.723497 105.455 
" style="fill:none;stroke:#ff6eb4;stroke-linecap:square;stroke-width:3;"/>
    </g>
    <g id="line2d_14"/>
    <g id="text_12">
     <text style="font-family:Arial;font-size:28px;font-style:normal;font-weight:regular;text-anchor:start;" transform="rotate(-0, 394.123497, 115.255)" x="394.123497" y="115.255">ephrinB2</text>
    </g>
   </g>
  </g>
 </g>
 <defs>
  <clipPath id="p85297d2d55">
   <rect height="596.68" width="425.357872" x="106.04" y="30.24"/>
  </clipPath>
 </defs>
</svg>
