<?xml version="1.0" encoding="utf-8" standalone="no"?>
<!DOCTYPE svg PUBLIC "-//W3C//DTD SVG 1.1//EN"
  "http://www.w3.org/Graphics/SVG/1.1/DTD/svg11.dtd">
<!-- Created with matplotlib (https://matplotlib.org/) -->
<svg height="720pt" version="1.1" viewBox="0 0 1152 720" width="1152pt" xmlns="http://www.w3.org/2000/svg" xmlns:xlink="http://www.w3.org/1999/xlink">
 <defs>
  <style type="text/css">
*{stroke-linecap:butt;stroke-linejoin:round;}
  </style>
 </defs>
 <g id="figure_1">
  <g id="patch_1">
   <path d="M 0 720 
L 1152 720 
L 1152 0 
L 0 0 
z
" style="fill:none;"/>
  </g>
  <g id="axes_1">
   <g id="patch_2">
    <path d="M 144 640.8 
L 549.818182 640.8 
L 549.818182 86.4 
L 144 86.4 
z
" style="fill:none;"/>
   </g>
   <g id="matplotlib.axis_1">
    <g id="xtick_1">
     <g id="line2d_1">
      <defs>
       <path d="M 0 0 
L 0 3.5 
" id="m332fb909f5" style="stroke:#000000;stroke-width:0.8;"/>
      </defs>
      <g>
       <use style="stroke:#000000;stroke-width:0.8;" x="162.446281" xlink:href="#m332fb909f5" y="640.8"/>
      </g>
     </g>
     <g id="text_1">
      <text style="font-family:Arial;font-size:18px;font-style:normal;font-weight:regular;text-anchor:middle;" transform="rotate(-0, 162.446281, 660.684062)" x="162.446281" y="660.684062">Post.</text>
     </g>
    </g>
    <g id="xtick_2">
     <g id="line2d_2">
      <g>
       <use style="stroke:#000000;stroke-width:0.8;" x="533.225798" xlink:href="#m332fb909f5" y="640.8"/>
      </g>
     </g>
     <g id="text_2">
      <text style="font-family:Arial;font-size:18px;font-style:normal;font-weight:regular;text-anchor:middle;" transform="rotate(-0, 533.225798, 660.684062)" x="533.225798" y="660.684062">Ant.</text>
     </g>
    </g>
    <g id="text_3">
     <text style="font-family:Arial;font-size:18px;font-style:normal;font-weight:normal;text-anchor:middle;" transform="rotate(-0, 346.909091, 681.145625)" x="346.909091" y="681.145625">Retinal axis</text>
    </g>
   </g>
   <g id="matplotlib.axis_2">
    <g id="ytick_1">
     <g id="line2d_3">
      <defs>
       <path d="M 0 0 
L -3.5 0 
" id="mdfa7dfa541" style="stroke:#000000;stroke-width:0.8;"/>
      </defs>
      <g>
       <use style="stroke:#000000;stroke-width:0.8;" x="144" xlink:href="#mdfa7dfa541" y="615.6"/>
      </g>
     </g>
     <g id="text_4">
      <text style="font-family:Arial;font-size:18px;font-style:normal;font-weight:regular;text-anchor:end;" transform="rotate(-0, 137, 622.042031)" x="137" y="622.042031">0.0</text>
     </g>
    </g>
    <g id="ytick_2">
     <g id="line2d_4">
      <g>
       <use style="stroke:#000000;stroke-width:0.8;" x="144" xlink:href="#mdfa7dfa541" y="514.8"/>
      </g>
     </g>
     <g id="text_5">
      <text style="font-family:Arial;font-size:18px;font-style:normal;font-weight:regular;text-anchor:end;" transform="rotate(-0, 137, 521.242031)" x="137" y="521.242031">0.2</text>
     </g>
    </g>
    <g id="ytick_3">
     <g id="line2d_5">
      <g>
       <use style="stroke:#000000;stroke-width:0.8;" x="144" xlink:href="#mdfa7dfa541" y="414"/>
      </g>
     </g>
     <g id="text_6">
      <text style="font-family:Arial;font-size:18px;font-style:normal;font-weight:regular;text-anchor:end;" transform="rotate(-0, 137, 420.442031)" x="137" y="420.442031">0.4</text>
     </g>
    </g>
    <g id="ytick_4">
     <g id="line2d_6">
      <g>
       <use style="stroke:#000000;stroke-width:0.8;" x="144" xlink:href="#mdfa7dfa541" y="313.2"/>
      </g>
     </g>
     <g id="text_7">
      <text style="font-family:Arial;font-size:18px;font-style:normal;font-weight:regular;text-anchor:end;" transform="rotate(-0, 137, 319.642031)" x="137" y="319.642031">0.6</text>
     </g>
    </g>
    <g id="ytick_5">
     <g id="line2d_7">
      <g>
       <use style="stroke:#000000;stroke-width:0.8;" x="144" xlink:href="#mdfa7dfa541" y="212.4"/>
      </g>
     </g>
     <g id="text_8">
      <text style="font-family:Arial;font-size:18px;font-style:normal;font-weight:regular;text-anchor:end;" transform="rotate(-0, 137, 218.842031)" x="137" y="218.842031">0.8</text>
     </g>
    </g>
    <g id="ytick_6">
     <g id="line2d_8">
      <g>
       <use style="stroke:#000000;stroke-width:0.8;" x="144" xlink:href="#mdfa7dfa541" y="111.6"/>
      </g>
     </g>
     <g id="text_9">
      <text style="font-family:Arial;font-size:18px;font-style:normal;font-weight:regular;text-anchor:end;" transform="rotate(-0, 137, 118.042031)" x="137" y="118.042031">1.0</text>
     </g>
    </g>
    <g id="text_10">
     <text style="font-family:Arial;font-size:18px;font-style:normal;font-weight:normal;text-anchor:middle;" transform="rotate(-90, 104.4025, 363.6)" x="104.4025" y="363.6">Normalised expression</text>
    </g>
   </g>
   <g id="line2d_9">
    <path clip-path="url(#p0688ebcdd5)" d="M 162.446281 606.783742 
L 164.300179 605.184178 
L 166.154076 593.07846 
L 168.007974 576.287703 
L 169.861871 556.432342 
L 171.715769 546.956208 
L 173.569667 514.463768 
L 175.423564 488.010544 
L 177.277462 469.679639 
L 179.131359 445.283358 
L 180.985257 423.9751 
L 182.839154 369.739682 
L 184.693052 318.927195 
L 186.54695 325.431797 
L 188.400847 300.136652 
L 190.254745 279.4892 
L 192.108642 270.499328 
L 193.96254 267.428293 
L 195.816438 265.356413 
L 197.670335 259.518295 
L 199.524233 252.228669 
L 201.37813 257.613082 
L 203.232028 276.521445 
L 205.085925 285.357478 
L 206.939823 284.608593 
L 208.793721 265.439596 
L 210.647618 188.939137 
L 212.501516 226.23003 
L 214.355413 244.349313 
L 216.209311 159.924377 
L 218.063209 253.003871 
L 219.917106 259.266914 
L 221.771004 276.170148 
L 223.624901 304.631257 
L 225.478799 326.008639 
L 227.332697 335.842115 
L 229.186594 371.421933 
L 231.040492 391.581869 
L 232.894389 410.394597 
L 234.748287 430.58938 
L 236.602184 430.476037 
L 238.456082 439.251928 
L 240.30998 442.576808 
L 242.163877 416.967286 
L 244.017775 399.75259 
L 245.871672 397.68448 
L 247.72557 382.298334 
L 249.579468 369.221284 
L 251.433365 347.99014 
L 253.287263 357.441888 
L 255.14116 323.698266 
L 256.995058 318.551416 
L 258.848956 326.884747 
L 260.702853 322.557559 
L 262.556751 309.289855 
L 264.410648 301.819924 
L 268.118443 261.495457 
L 269.972341 259.945445 
L 271.826239 252.798632 
L 273.680136 246.9938 
L 275.534034 275.519045 
L 277.387931 278.414102 
L 281.095727 269.267057 
L 282.949624 274.41631 
L 284.803522 261.061368 
L 286.657419 253.46073 
L 288.511317 274.680158 
L 290.365215 282.271994 
L 292.219112 296.188968 
L 294.07301 298.285 
L 295.926907 306.21116 
L 297.780805 323.128783 
L 299.634702 324.638751 
L 301.4886 315.869378 
L 303.342498 287.824814 
L 305.196395 300.920445 
L 307.050293 318.663047 
L 308.90419 310.285165 
L 310.758088 323.470527 
L 312.611986 334.891506 
L 314.465883 324.537634 
L 316.319781 311.017979 
L 318.173678 310.176718 
L 320.027576 296.384052 
L 321.881473 291.926277 
L 323.735371 296.086949 
L 325.589269 291.84015 
L 327.443166 279.631803 
L 329.297064 260.935618 
L 331.150961 253.004802 
L 333.004859 250.007247 
L 334.858757 253.190664 
L 336.712654 243.60175 
L 338.566552 258.268871 
L 340.420449 260.005466 
L 342.274347 250.087696 
L 344.128245 254.266062 
L 345.982142 249.101518 
L 347.83604 257.586255 
L 349.689937 240.943084 
L 351.543835 234.03122 
L 353.397732 247.592932 
L 355.25163 250.626597 
L 357.105528 260.128663 
L 358.959425 281.816366 
L 360.813323 285.73482 
L 362.66722 271.859993 
L 364.521118 278.534865 
L 366.375016 281.650301 
L 368.228913 271.056403 
L 371.936708 251.031305 
L 373.790606 246.265222 
L 375.644504 237.507264 
L 377.498401 241.104252 
L 379.352299 228.002554 
L 381.206196 206.443546 
L 383.060094 194.242619 
L 384.913991 184.007288 
L 386.767889 171.918203 
L 388.621787 150.263095 
L 390.475684 145.949274 
L 392.329582 119.315544 
L 394.183479 123.419319 
L 396.037377 118.897677 
L 397.891275 111.6 
L 399.745172 138.781704 
L 401.59907 182.000236 
L 403.452967 192.275341 
L 405.306865 194.970867 
L 407.160762 194.639037 
L 409.01466 198.699133 
L 410.868558 195.614309 
L 412.722455 194.515119 
L 414.576353 190.439131 
L 416.43025 187.538157 
L 418.284148 201.679505 
L 420.138046 207.740855 
L 421.991943 199.5966 
L 423.845841 212.007932 
L 425.699738 201.070579 
L 427.553636 251.18247 
L 429.407534 286.478629 
L 431.261431 291.922912 
L 433.115329 293.516964 
L 434.969226 286.245783 
L 436.823124 253.065634 
L 438.677021 246.813225 
L 440.530919 223.484397 
L 442.384817 243.307681 
L 444.238714 226.509499 
L 446.092612 223.393734 
L 447.946509 199.387366 
L 449.800407 182.747259 
L 451.654305 212.184692 
L 453.508202 213.110157 
L 455.3621 209.244004 
L 457.215997 223.02967 
L 459.069895 232.837311 
L 460.923793 224.745236 
L 462.77769 244.143955 
L 464.631588 266.721675 
L 466.485485 286.432606 
L 468.339383 299.142363 
L 470.19328 295.239981 
L 472.047178 278.476977 
L 473.901076 282.038878 
L 475.754973 262.002424 
L 477.608871 263.559075 
L 479.462768 248.794081 
L 481.316666 245.854505 
L 483.170564 247.367777 
L 485.024461 235.363617 
L 486.878359 225.488084 
L 488.732256 205.218935 
L 490.586154 176.363091 
L 492.440051 200.871139 
L 494.293949 220.946555 
L 496.147847 264.957202 
L 498.001744 302.925934 
L 499.855642 324.752545 
L 501.709539 372.340954 
L 503.563437 383.857688 
L 505.417335 401.888937 
L 507.271232 404.764196 
L 509.12513 439.730988 
L 510.979027 447.531412 
L 512.832925 478.408923 
L 514.686823 479.50182 
L 516.54072 512.52855 
L 518.394618 503.237212 
L 520.248515 529.817808 
L 522.102413 551.175716 
L 523.95631 599.053134 
L 525.810208 615.6 
L 527.664106 582.356942 
L 529.518003 564.612203 
L 531.371901 508.648421 
L 531.371901 508.648421 
" style="fill:none;stroke:#458b74;stroke-linecap:square;stroke-width:3;"/>
   </g>
   <g id="patch_3">
    <path d="M 144 640.8 
L 144 86.4 
" style="fill:none;stroke:#000000;stroke-linecap:square;stroke-linejoin:miter;stroke-width:0.8;"/>
   </g>
   <g id="patch_4">
    <path d="M 549.818182 640.8 
L 549.818182 86.4 
" style="fill:none;stroke:#000000;stroke-linecap:square;stroke-linejoin:miter;stroke-width:0.8;"/>
   </g>
   <g id="patch_5">
    <path d="M 144 640.8 
L 549.818182 640.8 
" style="fill:none;stroke:#000000;stroke-linecap:square;stroke-linejoin:miter;stroke-width:0.8;"/>
   </g>
   <g id="patch_6">
    <path d="M 144 86.4 
L 549.818182 86.4 
" style="fill:none;stroke:#000000;stroke-linecap:square;stroke-linejoin:miter;stroke-width:0.8;"/>
   </g>
   <g id="legend_1">
    <g id="patch_7">
     <path d="M 425.575994 126.315 
L 537.218182 126.315 
Q 540.818182 126.315 540.818182 122.715 
L 540.818182 99 
Q 540.818182 95.4 537.218182 95.4 
L 425.575994 95.4 
Q 421.975994 95.4 421.975994 99 
L 421.975994 122.715 
Q 421.975994 126.315 425.575994 126.315 
z
" style="fill:#ffffff;opacity:0.8;stroke:#cccccc;stroke-linejoin:miter;"/>
    </g>
    <g id="line2d_10">
     <path d="M 429.175994 109.2375 
L 465.175994 109.2375 
" style="fill:none;stroke:#458b74;stroke-linecap:square;stroke-width:3;"/>
    </g>
    <g id="line2d_11"/>
    <g id="text_11">
     <text style="font-family:Arial;font-size:18px;font-style:normal;font-weight:regular;text-anchor:start;" transform="rotate(-0, 479.575994, 115.5375)" x="479.575994" y="115.5375">EphB2</text>
    </g>
   </g>
  </g>
  <g id="axes_2">
   <g id="patch_8">
    <path d="M 630.981818 640.8 
L 1036.8 640.8 
L 1036.8 86.4 
L 630.981818 86.4 
z
" style="fill:none;"/>
   </g>
   <g id="matplotlib.axis_3">
    <g id="xtick_3">
     <g id="line2d_12">
      <g>
       <use style="stroke:#000000;stroke-width:0.8;" x="649.428099" xlink:href="#m332fb909f5" y="640.8"/>
      </g>
     </g>
     <g id="text_12">
      <text style="font-family:Arial;font-size:18px;font-style:normal;font-weight:regular;text-anchor:middle;" transform="rotate(-0, 649.428099, 660.684062)" x="649.428099" y="660.684062">Post.</text>
     </g>
    </g>
    <g id="xtick_4">
     <g id="line2d_13">
      <g>
       <use style="stroke:#000000;stroke-width:0.8;" x="1020.207617" xlink:href="#m332fb909f5" y="640.8"/>
      </g>
     </g>
     <g id="text_13">
      <text style="font-family:Arial;font-size:18px;font-style:normal;font-weight:regular;text-anchor:middle;" transform="rotate(-0, 1020.207617, 660.684062)" x="1020.207617" y="660.684062">Ant.</text>
     </g>
    </g>
    <g id="text_14">
     <text style="font-family:Arial;font-size:18px;font-style:normal;font-weight:normal;text-anchor:middle;" transform="rotate(-0, 833.890909, 681.145625)" x="833.890909" y="681.145625">Retinal axis</text>
    </g>
   </g>
   <g id="matplotlib.axis_4">
    <g id="ytick_7">
     <g id="line2d_14">
      <g>
       <use style="stroke:#000000;stroke-width:0.8;" x="630.981818" xlink:href="#mdfa7dfa541" y="615.6"/>
      </g>
     </g>
     <g id="text_15">
      <text style="font-family:Arial;font-size:18px;font-style:normal;font-weight:regular;text-anchor:end;" transform="rotate(-0, 623.981818, 622.042031)" x="623.981818" y="622.042031">0.0</text>
     </g>
    </g>
    <g id="ytick_8">
     <g id="line2d_15">
      <g>
       <use style="stroke:#000000;stroke-width:0.8;" x="630.981818" xlink:href="#mdfa7dfa541" y="514.799994"/>
      </g>
     </g>
     <g id="text_16">
      <text style="font-family:Arial;font-size:18px;font-style:normal;font-weight:regular;text-anchor:end;" transform="rotate(-0, 623.981818, 521.242025)" x="623.981818" y="521.242025">0.2</text>
     </g>
    </g>
    <g id="ytick_9">
     <g id="line2d_16">
      <g>
       <use style="stroke:#000000;stroke-width:0.8;" x="630.981818" xlink:href="#mdfa7dfa541" y="413.999988"/>
      </g>
     </g>
     <g id="text_17">
      <text style="font-family:Arial;font-size:18px;font-style:normal;font-weight:regular;text-anchor:end;" transform="rotate(-0, 623.981818, 420.442019)" x="623.981818" y="420.442019">0.4</text>
     </g>
    </g>
    <g id="ytick_10">
     <g id="line2d_17">
      <g>
       <use style="stroke:#000000;stroke-width:0.8;" x="630.981818" xlink:href="#mdfa7dfa541" y="313.199982"/>
      </g>
     </g>
     <g id="text_18">
      <text style="font-family:Arial;font-size:18px;font-style:normal;font-weight:regular;text-anchor:end;" transform="rotate(-0, 623.981818, 319.642013)" x="623.981818" y="319.642013">0.6</text>
     </g>
    </g>
    <g id="ytick_11">
     <g id="line2d_18">
      <g>
       <use style="stroke:#000000;stroke-width:0.8;" x="630.981818" xlink:href="#mdfa7dfa541" y="212.399976"/>
      </g>
     </g>
     <g id="text_19">
      <text style="font-family:Arial;font-size:18px;font-style:normal;font-weight:regular;text-anchor:end;" transform="rotate(-0, 623.981818, 218.842007)" x="623.981818" y="218.842007">0.8</text>
     </g>
    </g>
    <g id="ytick_12">
     <g id="line2d_19">
      <g>
       <use style="stroke:#000000;stroke-width:0.8;" x="630.981818" xlink:href="#mdfa7dfa541" y="111.59997"/>
      </g>
     </g>
     <g id="text_20">
      <text style="font-family:Arial;font-size:18px;font-style:normal;font-weight:regular;text-anchor:end;" transform="rotate(-0, 623.981818, 118.042001)" x="623.981818" y="118.042001">1.0</text>
     </g>
    </g>
    <g id="text_21">
     <text style="font-family:Arial;font-size:18px;font-style:normal;font-weight:normal;text-anchor:middle;" transform="rotate(-90, 591.384318, 363.6)" x="591.384318" y="363.6">Normalised expression</text>
    </g>
   </g>
   <g id="line2d_20">
    <path clip-path="url(#p2ac485cda2)" d="M 649.428099 615.6 
L 651.281997 598.566225 
L 653.135894 595.919849 
L 654.989792 579.176771 
L 656.84369 571.577481 
L 658.697587 562.025595 
L 660.551485 540.69114 
L 662.405382 534.401337 
L 664.25928 506.393879 
L 666.113177 497.184784 
L 667.967075 483.419876 
L 669.820973 474.191345 
L 671.67487 448.566245 
L 673.528768 454.802884 
L 675.382665 450.751319 
L 677.236563 463.804773 
L 679.090461 456.283412 
L 680.944358 460.065301 
L 682.798256 462.959952 
L 684.652153 453.136103 
L 686.506051 440.372317 
L 688.359949 408.037033 
L 690.213846 421.899589 
L 692.067744 394.691508 
L 693.921641 433.83383 
L 695.775539 408.523903 
L 697.629436 387.647194 
L 699.483334 424.165772 
L 701.337232 436.186756 
L 703.191129 435.023969 
L 705.045027 415.001528 
L 706.898924 401.683461 
L 708.752822 383.563531 
L 710.60672 380.285154 
L 712.460617 377.305608 
L 714.314515 375.805268 
L 716.168412 384.954117 
L 718.02231 422.233897 
L 719.876207 435.083615 
L 721.730105 432.576895 
L 723.584003 408.29681 
L 725.4379 388.256931 
L 727.291798 364.063439 
L 729.145695 358.419339 
L 730.999593 356.682053 
L 732.853491 323.892642 
L 734.707388 322.174221 
L 736.561286 311.29055 
L 738.415183 294.776884 
L 740.269081 277.00463 
L 742.122979 267.122277 
L 743.976876 247.695319 
L 745.830774 234.238268 
L 747.684671 235.680104 
L 749.538569 231.714125 
L 751.392466 213.375092 
L 753.246364 191.004472 
L 755.100262 195.221291 
L 756.954159 195.789993 
L 758.808057 186.902048 
L 760.661954 206.148822 
L 762.515852 189.063059 
L 764.36975 184.88283 
L 766.223647 190.603068 
L 768.077545 174.379685 
L 769.931442 184.088042 
L 771.78534 181.089435 
L 773.639238 180.932202 
L 775.493135 195.049729 
L 777.347033 199.665309 
L 779.20093 222.482364 
L 781.054828 236.320542 
L 782.908725 269.946167 
L 784.762623 266.923708 
L 786.616521 281.385111 
L 788.470418 293.503847 
L 790.324316 316.84259 
L 792.178213 300.673311 
L 794.032111 298.792159 
L 795.886009 292.692086 
L 797.739906 292.824836 
L 799.593804 296.106487 
L 801.447701 283.881677 
L 803.301599 274.706814 
L 805.155496 279.346156 
L 807.009394 286.61169 
L 808.863292 288.480134 
L 810.717189 283.262778 
L 812.571087 295.033732 
L 814.424984 299.814175 
L 816.278882 316.896754 
L 818.13278 305.17083 
L 819.986677 313.016481 
L 821.840575 309.504358 
L 823.694472 309.09337 
L 825.54837 288.486683 
L 827.402268 292.334631 
L 829.256165 284.68791 
L 831.110063 299.874738 
L 832.96396 303.551845 
L 834.817858 308.656969 
L 836.671755 290.580432 
L 838.525653 286.742517 
L 840.379551 281.076322 
L 842.233448 274.951135 
L 844.087346 274.65965 
L 845.941243 226.655504 
L 847.795141 216.647551 
L 849.649039 221.544853 
L 851.502936 211.096532 
L 853.356834 207.973346 
L 855.210731 193.98872 
L 857.064629 165.580872 
L 858.918527 159.562389 
L 860.772424 143.021265 
L 862.626322 133.035242 
L 864.480219 145.031682 
L 866.334117 129.175186 
L 868.188014 114.502296 
L 870.041912 111.6 
L 871.89581 113.511523 
L 873.749707 135.552656 
L 875.603605 125.136659 
L 877.457502 134.567199 
L 879.3114 129.093506 
L 881.165298 131.777706 
L 883.019195 140.909461 
L 884.873093 136.579749 
L 886.72699 140.77629 
L 888.580888 134.268504 
L 890.434785 143.391788 
L 892.288683 133.855264 
L 894.142581 136.934981 
L 895.996478 142.805152 
L 897.850376 160.419602 
L 899.704273 154.214206 
L 901.558171 160.461599 
L 903.412069 148.387233 
L 905.265966 163.082984 
L 907.119864 170.48319 
L 908.973761 163.406553 
L 910.827659 188.108815 
L 912.681557 181.77908 
L 914.535454 193.272488 
L 916.389352 193.530388 
L 918.243249 201.779546 
L 920.097147 199.048782 
L 921.951044 202.851219 
L 923.804942 198.767962 
L 925.65884 217.638475 
L 927.512737 206.146088 
L 929.366635 206.222241 
L 931.220532 197.33604 
L 933.07443 220.188874 
L 934.928328 211.036901 
L 936.782225 225.679841 
L 938.636123 228.499225 
L 940.49002 224.008494 
L 942.343918 250.811175 
L 944.197816 294.813684 
L 946.051713 319.54854 
L 947.905611 335.56335 
L 949.759508 345.095098 
L 951.613406 324.805009 
L 953.467303 342.92877 
L 955.321201 355.726757 
L 957.175099 386.933096 
L 959.028996 399.540159 
L 960.882894 402.89565 
L 962.736791 417.108646 
L 964.590689 418.544173 
L 966.444587 434.374503 
L 968.298484 440.095462 
L 970.152382 450.14406 
L 972.006279 456.424018 
L 973.860177 459.440273 
L 975.714075 470.52349 
L 977.567972 483.866386 
L 981.275767 515.010586 
L 983.129665 518.594987 
L 986.83746 545.639106 
L 988.691358 544.706288 
L 990.545255 543.514579 
L 992.399153 548.590308 
L 994.25305 547.442654 
L 996.106948 544.335345 
L 997.960846 536.035786 
L 999.814743 525.098635 
L 1001.668641 493.38614 
L 1003.522538 494.881493 
L 1005.376436 497.865831 
L 1007.230333 479.238339 
L 1009.084231 464.77623 
L 1010.938129 486.970151 
L 1012.792026 483.638963 
L 1014.645924 481.185851 
L 1016.499821 491.949592 
L 1018.353719 499.805666 
L 1018.353719 499.805666 
" style="fill:none;stroke:#1e90ff;stroke-linecap:square;stroke-width:3;"/>
   </g>
   <g id="patch_9">
    <path d="M 630.981818 640.8 
L 630.981818 86.4 
" style="fill:none;stroke:#000000;stroke-linecap:square;stroke-linejoin:miter;stroke-width:0.8;"/>
   </g>
   <g id="patch_10">
    <path d="M 1036.8 640.8 
L 1036.8 86.4 
" style="fill:none;stroke:#000000;stroke-linecap:square;stroke-linejoin:miter;stroke-width:0.8;"/>
   </g>
   <g id="patch_11">
    <path d="M 630.981818 640.8 
L 1036.8 640.8 
" style="fill:none;stroke:#000000;stroke-linecap:square;stroke-linejoin:miter;stroke-width:0.8;"/>
   </g>
   <g id="patch_12">
    <path d="M 630.981818 86.4 
L 1036.8 86.4 
" style="fill:none;stroke:#000000;stroke-linecap:square;stroke-linejoin:miter;stroke-width:0.8;"/>
   </g>
   <g id="legend_2">
    <g id="patch_13">
     <path d="M 912.557812 126.261562 
L 1024.2 126.261562 
Q 1027.8 126.261562 1027.8 122.661562 
L 1027.8 99 
Q 1027.8 95.4 1024.2 95.4 
L 912.557812 95.4 
Q 908.957812 95.4 908.957812 99 
L 908.957812 122.661562 
Q 908.957812 126.261562 912.557812 126.261562 
z
" style="fill:#ffffff;opacity:0.8;stroke:#cccccc;stroke-linejoin:miter;"/>
    </g>
    <g id="line2d_21">
     <path d="M 916.157812 109.184062 
L 952.157812 109.184062 
" style="fill:none;stroke:#1e90ff;stroke-linecap:square;stroke-width:3;"/>
    </g>
    <g id="line2d_22"/>
    <g id="text_22">
     <text style="font-family:Arial;font-size:18px;font-style:normal;font-weight:regular;text-anchor:start;" transform="rotate(-0, 966.557812, 115.484062)" x="966.557812" y="115.484062">EphA4</text>
    </g>
   </g>
  </g>
 </g>
 <defs>
  <clipPath id="p0688ebcdd5">
   <rect height="554.4" width="405.818182" x="144" y="86.4"/>
  </clipPath>
  <clipPath id="p2ac485cda2">
   <rect height="554.4" width="405.818182" x="630.981818" y="86.4"/>
  </clipPath>
 </defs>
</svg>
