<?xml version="1.0" encoding="utf-8" standalone="no"?>
<!DOCTYPE svg PUBLIC "-//W3C//DTD SVG 1.1//EN"
  "http://www.w3.org/Graphics/SVG/1.1/DTD/svg11.dtd">
<!-- Created with matplotlib (https://matplotlib.org/) -->
<svg height="720pt" version="1.1" viewBox="0 0 1152 720" width="1152pt" xmlns="http://www.w3.org/2000/svg" xmlns:xlink="http://www.w3.org/1999/xlink">
 <defs>
  <style type="text/css">
*{stroke-linecap:butt;stroke-linejoin:round;}
  </style>
 </defs>
 <g id="figure_1">
  <g id="patch_1">
   <path d="M 0 720 
L 1152 720 
L 1152 0 
L 0 0 
z
" style="fill:none;"/>
  </g>
  <g id="axes_1">
   <g id="patch_2">
    <path d="M 144 640.8 
L 549.818182 640.8 
L 549.818182 86.4 
L 144 86.4 
z
" style="fill:none;"/>
   </g>
   <g id="matplotlib.axis_1">
    <g id="xtick_1">
     <g id="line2d_1">
      <defs>
       <path d="M 0 0 
L 0 3.5 
" id="mc35a51034d" style="stroke:#000000;stroke-width:0.8;"/>
      </defs>
      <g>
       <use style="stroke:#000000;stroke-width:0.8;" x="162.446281" xlink:href="#mc35a51034d" y="640.8"/>
      </g>
     </g>
     <g id="text_1">
      <text style="font-family:Arial;font-size:18px;font-style:normal;font-weight:regular;text-anchor:middle;" transform="rotate(-0, 162.446281, 660.684062)" x="162.446281" y="660.684062">Post.</text>
     </g>
    </g>
    <g id="xtick_2">
     <g id="line2d_2">
      <g>
       <use style="stroke:#000000;stroke-width:0.8;" x="544.752623" xlink:href="#mc35a51034d" y="640.8"/>
      </g>
     </g>
     <g id="text_2">
      <text style="font-family:Arial;font-size:18px;font-style:normal;font-weight:regular;text-anchor:middle;" transform="rotate(-0, 544.752623, 660.684062)" x="544.752623" y="660.684062">Ant.</text>
     </g>
    </g>
    <g id="text_3">
     <text style="font-family:Arial;font-size:18px;font-style:normal;font-weight:normal;text-anchor:middle;" transform="rotate(-0, 346.909091, 681.145625)" x="346.909091" y="681.145625">Tectal P-A axis</text>
    </g>
   </g>
   <g id="matplotlib.axis_2">
    <g id="ytick_1">
     <g id="line2d_3">
      <defs>
       <path d="M 0 0 
L -3.5 0 
" id="mbeb88806b4" style="stroke:#000000;stroke-width:0.8;"/>
      </defs>
      <g>
       <use style="stroke:#000000;stroke-width:0.8;" x="144" xlink:href="#mbeb88806b4" y="615.6"/>
      </g>
     </g>
     <g id="text_4">
      <text style="font-family:Arial;font-size:18px;font-style:normal;font-weight:regular;text-anchor:end;" transform="rotate(-0, 137, 622.042031)" x="137" y="622.042031">0.0</text>
     </g>
    </g>
    <g id="ytick_2">
     <g id="line2d_4">
      <g>
       <use style="stroke:#000000;stroke-width:0.8;" x="144" xlink:href="#mbeb88806b4" y="514.8"/>
      </g>
     </g>
     <g id="text_5">
      <text style="font-family:Arial;font-size:18px;font-style:normal;font-weight:regular;text-anchor:end;" transform="rotate(-0, 137, 521.242031)" x="137" y="521.242031">0.2</text>
     </g>
    </g>
    <g id="ytick_3">
     <g id="line2d_5">
      <g>
       <use style="stroke:#000000;stroke-width:0.8;" x="144" xlink:href="#mbeb88806b4" y="414"/>
      </g>
     </g>
     <g id="text_6">
      <text style="font-family:Arial;font-size:18px;font-style:normal;font-weight:regular;text-anchor:end;" transform="rotate(-0, 137, 420.442031)" x="137" y="420.442031">0.4</text>
     </g>
    </g>
    <g id="ytick_4">
     <g id="line2d_6">
      <g>
       <use style="stroke:#000000;stroke-width:0.8;" x="144" xlink:href="#mbeb88806b4" y="313.2"/>
      </g>
     </g>
     <g id="text_7">
      <text style="font-family:Arial;font-size:18px;font-style:normal;font-weight:regular;text-anchor:end;" transform="rotate(-0, 137, 319.642031)" x="137" y="319.642031">0.6</text>
     </g>
    </g>
    <g id="ytick_5">
     <g id="line2d_7">
      <g>
       <use style="stroke:#000000;stroke-width:0.8;" x="144" xlink:href="#mbeb88806b4" y="212.4"/>
      </g>
     </g>
     <g id="text_8">
      <text style="font-family:Arial;font-size:18px;font-style:normal;font-weight:regular;text-anchor:end;" transform="rotate(-0, 137, 218.842031)" x="137" y="218.842031">0.8</text>
     </g>
    </g>
    <g id="ytick_6">
     <g id="line2d_8">
      <g>
       <use style="stroke:#000000;stroke-width:0.8;" x="144" xlink:href="#mbeb88806b4" y="111.6"/>
      </g>
     </g>
     <g id="text_9">
      <text style="font-family:Arial;font-size:18px;font-style:normal;font-weight:regular;text-anchor:end;" transform="rotate(-0, 137, 118.042031)" x="137" y="118.042031">1.0</text>
     </g>
    </g>
    <g id="text_10">
     <text style="font-family:Arial;font-size:18px;font-style:normal;font-weight:normal;text-anchor:middle;" transform="rotate(-90, 104.4025, 363.6)" x="104.4025" y="363.6">Normalised expression</text>
    </g>
   </g>
   <g id="line2d_9">
    <path clip-path="url(#p7c54a1d1a1)" d="M 162.446281 386.857256 
L 164.357813 464.284923 
L 166.269344 470.494509 
L 168.180876 350.096326 
L 170.092408 181.91489 
L 172.00394 111.6 
L 173.915471 171.459451 
L 175.827003 405.409982 
L 177.738535 410.975105 
L 179.650066 479.000455 
L 181.561598 438.687523 
L 183.47313 615.6 
L 185.384661 585.737675 
L 187.296193 499.058868 
L 189.207725 485.202982 
L 191.119257 447.170863 
L 193.030788 461.27837 
L 194.94232 380.233273 
L 196.853852 451.115062 
L 198.765383 474.815344 
L 200.676915 474.595085 
L 202.588447 500.831467 
L 204.499979 487.21101 
L 206.41151 467.37966 
L 208.323042 553.100434 
L 210.234574 531.691794 
L 212.146105 421.933787 
L 214.057637 470.774354 
L 215.969169 508.143053 
L 217.880701 533.948568 
L 219.792232 486.550985 
L 223.615296 400.42337 
L 225.526827 348.070259 
L 227.438359 276.53226 
L 229.349891 302.594735 
L 231.261423 361.76376 
L 233.172954 379.43868 
L 235.084486 428.020702 
L 236.996018 491.756955 
L 238.907549 451.411744 
L 240.819081 477.067814 
L 242.730613 426.263378 
L 244.642144 498.543211 
L 246.553676 500.522753 
L 248.465208 464.653988 
L 250.37674 491.348551 
L 252.288271 528.036332 
L 254.199803 486.191442 
L 256.111335 478.0457 
L 258.022866 462.334903 
L 259.934398 431.100674 
L 261.84593 412.735026 
L 263.757462 351.624108 
L 265.668993 336.990873 
L 267.580525 291.127313 
L 269.492057 300.104778 
L 271.403588 274.399727 
L 273.31512 317.511736 
L 275.226652 325.078728 
L 277.138184 346.801969 
L 279.049715 375.509637 
L 280.961247 354.823748 
L 282.872779 382.460899 
L 284.78431 379.271969 
L 286.695842 435.900193 
L 288.607374 433.378994 
L 290.518905 431.151878 
L 292.430437 504.007592 
L 294.341969 502.606026 
L 296.253501 484.203541 
L 298.165032 494.999966 
L 300.076564 475.483465 
L 301.988096 480.974507 
L 303.899627 471.473041 
L 305.811159 458.506722 
L 307.722691 454.734851 
L 309.634223 473.203568 
L 311.545754 473.962232 
L 313.457286 461.91618 
L 315.368818 445.209488 
L 317.280349 371.944582 
L 319.191881 443.304139 
L 321.103413 431.125623 
L 323.014945 445.388591 
L 324.926476 436.463141 
L 326.838008 475.817278 
L 328.74954 492.480209 
L 330.661071 444.022308 
L 332.572603 437.326452 
L 334.484135 491.904583 
L 336.395667 494.576023 
L 338.307198 460.016855 
L 340.21873 448.682168 
L 342.130262 452.884777 
L 344.041793 438.859326 
L 345.953325 408.835904 
L 347.864857 453.299189 
L 349.776388 475.476541 
L 351.68792 455.340142 
L 353.599452 427.432534 
L 355.510984 442.863081 
L 357.422515 434.816098 
L 359.334047 442.541044 
L 361.245579 412.500393 
L 363.15711 371.52691 
L 365.068642 390.242427 
L 366.980174 441.508949 
L 368.891706 428.401784 
L 372.714769 325.768013 
L 374.626301 403.364854 
L 376.537832 408.808476 
L 378.449364 405.592104 
L 380.360896 409.381098 
L 382.272428 403.929124 
L 384.183959 391.281702 
L 388.007023 417.313761 
L 389.918554 411.291779 
L 391.830086 401.73989 
L 393.741618 412.268103 
L 395.653149 400.150585 
L 397.564681 364.21193 
L 399.476213 443.730177 
L 401.387745 424.85947 
L 403.299276 421.171082 
L 405.210808 411.134876 
L 407.12234 413.103701 
L 409.033871 389.141855 
L 410.945403 434.829811 
L 412.856935 458.463223 
L 414.768467 465.295989 
L 416.679998 483.613031 
L 418.59153 479.900731 
L 420.503062 503.224242 
L 422.414593 496.038865 
L 424.326125 486.007893 
L 426.237657 485.571537 
L 428.149189 474.124497 
L 430.06072 475.967782 
L 431.972252 481.842775 
L 433.883784 449.735832 
L 435.795315 453.669577 
L 437.706847 383.835563 
L 439.618379 399.712275 
L 441.529911 392.830647 
L 443.441442 432.755423 
L 445.352974 415.54705 
L 447.264506 440.451365 
L 449.176037 451.200498 
L 451.087569 423.357042 
L 452.999101 404.318046 
L 456.822164 459.592003 
L 458.733696 401.577099 
L 460.645228 402.884352 
L 462.556759 431.163384 
L 464.468291 467.455948 
L 466.379823 410.803827 
L 468.291354 427.189535 
L 470.202886 418.426215 
L 472.114418 298.294013 
L 474.02595 200.767198 
L 475.937481 223.064727 
L 477.849013 270.418548 
L 481.672076 471.057593 
L 483.583608 458.019416 
L 485.49514 448.853971 
L 487.406672 430.311954 
L 491.229735 327.07878 
L 493.141267 333.436122 
L 495.052798 363.110576 
L 496.96433 397.560802 
L 498.875862 385.190611 
L 500.787393 400.953408 
L 502.698925 404.260173 
L 504.610457 407.858678 
L 506.521989 394.019119 
L 508.43352 436.328318 
L 510.345052 455.294405 
L 512.256584 427.790755 
L 514.168115 457.605394 
L 516.079647 417.910686 
L 517.991179 367.296213 
L 519.902711 415.198352 
L 521.814242 478.673702 
L 523.725774 504.029154 
L 525.637306 576.977753 
L 527.548837 583.384223 
L 529.460369 563.725585 
L 531.371901 537.175251 
L 531.371901 537.175251 
" style="fill:none;stroke:#000000;stroke-linecap:square;stroke-width:3;"/>
   </g>
   <g id="patch_3">
    <path d="M 144 640.8 
L 144 86.4 
" style="fill:none;stroke:#000000;stroke-linecap:square;stroke-linejoin:miter;stroke-width:0.8;"/>
   </g>
   <g id="patch_4">
    <path d="M 549.818182 640.8 
L 549.818182 86.4 
" style="fill:none;stroke:#000000;stroke-linecap:square;stroke-linejoin:miter;stroke-width:0.8;"/>
   </g>
   <g id="patch_5">
    <path d="M 144 640.8 
L 549.818182 640.8 
" style="fill:none;stroke:#000000;stroke-linecap:square;stroke-linejoin:miter;stroke-width:0.8;"/>
   </g>
   <g id="patch_6">
    <path d="M 144 86.4 
L 549.818182 86.4 
" style="fill:none;stroke:#000000;stroke-linecap:square;stroke-linejoin:miter;stroke-width:0.8;"/>
   </g>
   <g id="legend_1">
    <g id="patch_7">
     <path d="M 398.604119 126.480937 
L 537.218182 126.480937 
Q 540.818182 126.480937 540.818182 122.880937 
L 540.818182 99 
Q 540.818182 95.4 537.218182 95.4 
L 398.604119 95.4 
Q 395.004119 95.4 395.004119 99 
L 395.004119 122.880937 
Q 395.004119 126.480937 398.604119 126.480937 
z
" style="fill:#ffffff;opacity:0.8;stroke:#cccccc;stroke-linejoin:miter;"/>
    </g>
    <g id="line2d_10">
     <path d="M 402.204119 109.403437 
L 438.204119 109.403437 
" style="fill:none;stroke:#000000;stroke-linecap:square;stroke-width:3;"/>
    </g>
    <g id="line2d_11"/>
    <g id="text_11">
     <text style="font-family:Arial;font-size:18px;font-style:normal;font-weight:regular;text-anchor:start;" transform="rotate(-0, 452.604119, 115.703437)" x="452.604119" y="115.703437">RGM sup.</text>
    </g>
   </g>
  </g>
  <g id="axes_2">
   <g id="patch_8">
    <path d="M 630.981818 640.8 
L 1036.8 640.8 
L 1036.8 86.4 
L 630.981818 86.4 
z
" style="fill:none;"/>
   </g>
   <g id="matplotlib.axis_3">
    <g id="xtick_3">
     <g id="line2d_12">
      <g>
       <use style="stroke:#000000;stroke-width:0.8;" x="649.428099" xlink:href="#mc35a51034d" y="640.8"/>
      </g>
     </g>
     <g id="text_12">
      <text style="font-family:Arial;font-size:18px;font-style:normal;font-weight:regular;text-anchor:middle;" transform="rotate(-0, 649.428099, 660.684062)" x="649.428099" y="660.684062">Post.</text>
     </g>
    </g>
    <g id="xtick_4">
     <g id="line2d_13">
      <g>
       <use style="stroke:#000000;stroke-width:0.8;" x="1020.207617" xlink:href="#mc35a51034d" y="640.8"/>
      </g>
     </g>
     <g id="text_13">
      <text style="font-family:Arial;font-size:18px;font-style:normal;font-weight:regular;text-anchor:middle;" transform="rotate(-0, 1020.207617, 660.684062)" x="1020.207617" y="660.684062">Ant.</text>
     </g>
    </g>
    <g id="text_14">
     <text style="font-family:Arial;font-size:18px;font-style:normal;font-weight:normal;text-anchor:middle;" transform="rotate(-0, 833.890909, 681.145625)" x="833.890909" y="681.145625">Tectal P-A axis</text>
    </g>
   </g>
   <g id="matplotlib.axis_4">
    <g id="ytick_7">
     <g id="line2d_14">
      <g>
       <use style="stroke:#000000;stroke-width:0.8;" x="630.981818" xlink:href="#mbeb88806b4" y="615.6"/>
      </g>
     </g>
     <g id="text_15">
      <text style="font-family:Arial;font-size:18px;font-style:normal;font-weight:regular;text-anchor:end;" transform="rotate(-0, 623.981818, 622.042031)" x="623.981818" y="622.042031">0.0</text>
     </g>
    </g>
    <g id="ytick_8">
     <g id="line2d_15">
      <g>
       <use style="stroke:#000000;stroke-width:0.8;" x="630.981818" xlink:href="#mbeb88806b4" y="514.8"/>
      </g>
     </g>
     <g id="text_16">
      <text style="font-family:Arial;font-size:18px;font-style:normal;font-weight:regular;text-anchor:end;" transform="rotate(-0, 623.981818, 521.242031)" x="623.981818" y="521.242031">0.2</text>
     </g>
    </g>
    <g id="ytick_9">
     <g id="line2d_16">
      <g>
       <use style="stroke:#000000;stroke-width:0.8;" x="630.981818" xlink:href="#mbeb88806b4" y="414"/>
      </g>
     </g>
     <g id="text_17">
      <text style="font-family:Arial;font-size:18px;font-style:normal;font-weight:regular;text-anchor:end;" transform="rotate(-0, 623.981818, 420.442031)" x="623.981818" y="420.442031">0.4</text>
     </g>
    </g>
    <g id="ytick_10">
     <g id="line2d_17">
      <g>
       <use style="stroke:#000000;stroke-width:0.8;" x="630.981818" xlink:href="#mbeb88806b4" y="313.2"/>
      </g>
     </g>
     <g id="text_18">
      <text style="font-family:Arial;font-size:18px;font-style:normal;font-weight:regular;text-anchor:end;" transform="rotate(-0, 623.981818, 319.642031)" x="623.981818" y="319.642031">0.6</text>
     </g>
    </g>
    <g id="ytick_11">
     <g id="line2d_18">
      <g>
       <use style="stroke:#000000;stroke-width:0.8;" x="630.981818" xlink:href="#mbeb88806b4" y="212.4"/>
      </g>
     </g>
     <g id="text_19">
      <text style="font-family:Arial;font-size:18px;font-style:normal;font-weight:regular;text-anchor:end;" transform="rotate(-0, 623.981818, 218.842031)" x="623.981818" y="218.842031">0.8</text>
     </g>
    </g>
    <g id="ytick_12">
     <g id="line2d_19">
      <g>
       <use style="stroke:#000000;stroke-width:0.8;" x="630.981818" xlink:href="#mbeb88806b4" y="111.6"/>
      </g>
     </g>
     <g id="text_20">
      <text style="font-family:Arial;font-size:18px;font-style:normal;font-weight:regular;text-anchor:end;" transform="rotate(-0, 623.981818, 118.042031)" x="623.981818" y="118.042031">1.0</text>
     </g>
    </g>
    <g id="text_21">
     <text style="font-family:Arial;font-size:18px;font-style:normal;font-weight:normal;text-anchor:middle;" transform="rotate(-90, 591.384318, 363.6)" x="591.384318" y="363.6">Normalised expression</text>
    </g>
   </g>
   <g id="line2d_20">
    <path clip-path="url(#pcff0cb1620)" d="M 649.428099 180.258144 
L 651.281997 125.036292 
L 653.135894 111.6 
L 654.989792 118.654107 
L 656.84369 173.937481 
L 658.697587 340.798206 
L 660.551485 337.169796 
L 662.405382 297.011093 
L 664.25928 323.068552 
L 666.113177 333.947415 
L 667.967075 310.162298 
L 669.820973 260.588827 
L 671.67487 270.607144 
L 673.528768 228.342495 
L 675.382665 227.328079 
L 677.236563 175.022102 
L 679.090461 172.398014 
L 680.944358 146.639971 
L 682.798256 168.814093 
L 684.652153 260.871781 
L 686.506051 240.080794 
L 688.359949 287.241213 
L 690.213846 284.252279 
L 692.067744 288.342206 
L 693.921641 281.516139 
L 695.775539 305.948273 
L 697.629436 309.099066 
L 699.483334 352.226125 
L 701.337232 338.230835 
L 703.191129 301.116551 
L 705.045027 274.222577 
L 706.898924 309.351048 
L 708.752822 308.485484 
L 710.60672 361.033619 
L 712.460617 396.060312 
L 714.314515 388.508596 
L 716.168412 391.838176 
L 718.02231 396.372316 
L 719.876207 416.803729 
L 721.730105 410.535624 
L 723.584003 426.804998 
L 725.4379 404.363588 
L 727.291798 379.283024 
L 729.145695 372.675068 
L 730.999593 349.941617 
L 732.853491 348.076717 
L 734.707388 409.779228 
L 736.561286 443.180116 
L 738.415183 413.813114 
L 740.269081 392.551509 
L 742.122979 415.07912 
L 743.976876 389.930484 
L 745.830774 377.835601 
L 747.684671 396.186168 
L 749.538569 397.837448 
L 751.392466 370.930767 
L 753.246364 329.951336 
L 755.100262 365.7643 
L 756.954159 387.615049 
L 758.808057 425.72966 
L 760.661954 453.013382 
L 762.515852 460.755346 
L 764.36975 513.422323 
L 766.223647 520.581617 
L 768.077545 550.526821 
L 769.931442 535.420286 
L 771.78534 506.475709 
L 773.639238 507.803668 
L 775.493135 504.661429 
L 777.347033 523.273598 
L 779.20093 521.785192 
L 781.054828 545.080067 
L 782.908725 550.629147 
L 784.762623 526.842693 
L 786.616521 527.072963 
L 788.470418 500.590435 
L 790.324316 454.706778 
L 792.178213 438.484553 
L 794.032111 427.476033 
L 795.886009 385.070824 
L 797.739906 367.814401 
L 799.593804 390.226431 
L 801.447701 378.255195 
L 803.301599 327.354434 
L 805.155496 350.439782 
L 807.009394 429.863581 
L 808.863292 437.051669 
L 810.717189 449.898232 
L 812.571087 507.897094 
L 814.424984 525.36001 
L 816.278882 525.829697 
L 818.13278 549.686889 
L 819.986677 547.635032 
L 821.840575 543.388923 
L 823.694472 533.212367 
L 825.54837 569.629983 
L 827.402268 552.412253 
L 829.256165 560.581622 
L 831.110063 553.822155 
L 832.96396 528.080905 
L 834.817858 531.39349 
L 836.671755 556.628242 
L 838.525653 555.397679 
L 840.379551 512.371768 
L 842.233448 518.517307 
L 844.087346 535.669271 
L 845.941243 532.351459 
L 847.795141 523.584797 
L 849.649039 563.192917 
L 851.502936 534.833936 
L 853.356834 540.992731 
L 855.210731 555.422373 
L 857.064629 551.076521 
L 858.918527 550.270731 
L 860.772424 551.509904 
L 862.626322 549.364492 
L 864.480219 557.719626 
L 866.334117 546.534211 
L 868.188014 562.797187 
L 870.041912 574.316245 
L 871.89581 554.577432 
L 873.749707 546.724369 
L 875.603605 546.007071 
L 877.457502 541.048171 
L 879.3114 543.4755 
L 881.165298 548.054205 
L 883.019195 549.480855 
L 884.873093 534.431901 
L 886.72699 546.314223 
L 888.580888 545.850048 
L 890.434785 531.68861 
L 892.288683 549.538353 
L 894.142581 566.212019 
L 895.996478 557.084767 
L 897.850376 539.691216 
L 899.704273 514.053133 
L 901.558171 521.447369 
L 903.412069 537.085227 
L 905.265966 535.506736 
L 907.119864 527.547832 
L 908.973761 558.302296 
L 910.827659 579.705926 
L 912.681557 564.030382 
L 914.535454 579.442273 
L 916.389352 563.473701 
L 918.243249 542.297077 
L 920.097147 533.914156 
L 921.951044 498.121199 
L 923.804942 544.65496 
L 925.65884 542.93156 
L 927.512737 529.128583 
L 929.366635 502.834659 
L 931.220532 472.260695 
L 933.07443 543.780429 
L 934.928328 525.553007 
L 936.782225 552.280096 
L 938.636123 568.146215 
L 940.49002 518.798181 
L 942.343918 563.400747 
L 944.197816 566.299013 
L 946.051713 530.177719 
L 947.905611 520.48222 
L 949.759508 525.430125 
L 951.613406 540.701876 
L 953.467303 490.052616 
L 955.321201 491.621877 
L 957.175099 488.905503 
L 959.028996 452.250136 
L 960.882894 464.221702 
L 962.736791 436.416308 
L 964.590689 395.969634 
L 966.444587 403.1596 
L 968.298484 442.913669 
L 970.152382 451.461056 
L 972.006279 508.986139 
L 973.860177 546.018397 
L 975.714075 532.981969 
L 977.567972 522.396356 
L 979.42187 499.587255 
L 981.275767 553.952892 
L 983.129665 555.36697 
L 984.983562 543.336277 
L 986.83746 546.820131 
L 988.691358 553.75041 
L 990.545255 554.720204 
L 992.399153 514.846051 
L 994.25305 530.77414 
L 996.106948 560.613334 
L 997.960846 559.856931 
L 999.814743 545.680115 
L 1001.668641 528.540979 
L 1003.522538 539.885422 
L 1005.376436 556.095379 
L 1007.230333 577.907695 
L 1009.084231 575.599413 
L 1010.938129 615.293143 
L 1012.792026 615.6 
L 1014.645924 609.747775 
L 1016.499821 594.412055 
L 1018.353719 580.079009 
L 1018.353719 580.079009 
" style="fill:none;stroke:#000000;stroke-linecap:square;stroke-width:3;"/>
   </g>
   <g id="patch_9">
    <path d="M 630.981818 640.8 
L 630.981818 86.4 
" style="fill:none;stroke:#000000;stroke-linecap:square;stroke-linejoin:miter;stroke-width:0.8;"/>
   </g>
   <g id="patch_10">
    <path d="M 1036.8 640.8 
L 1036.8 86.4 
" style="fill:none;stroke:#000000;stroke-linecap:square;stroke-linejoin:miter;stroke-width:0.8;"/>
   </g>
   <g id="patch_11">
    <path d="M 630.981818 640.8 
L 1036.8 640.8 
" style="fill:none;stroke:#000000;stroke-linecap:square;stroke-linejoin:miter;stroke-width:0.8;"/>
   </g>
   <g id="patch_12">
    <path d="M 630.981818 86.4 
L 1036.8 86.4 
" style="fill:none;stroke:#000000;stroke-linecap:square;stroke-linejoin:miter;stroke-width:0.8;"/>
   </g>
   <g id="legend_2">
    <g id="patch_13">
     <path d="M 879.567187 126.480937 
L 1024.2 126.480937 
Q 1027.8 126.480937 1027.8 122.880937 
L 1027.8 99 
Q 1027.8 95.4 1024.2 95.4 
L 879.567187 95.4 
Q 875.967187 95.4 875.967187 99 
L 875.967187 122.880937 
Q 875.967187 126.480937 879.567187 126.480937 
z
" style="fill:#ffffff;opacity:0.8;stroke:#cccccc;stroke-linejoin:miter;"/>
    </g>
    <g id="line2d_21">
     <path d="M 883.167187 109.403437 
L 919.167187 109.403437 
" style="fill:none;stroke:#000000;stroke-linecap:square;stroke-width:3;"/>
    </g>
    <g id="line2d_22"/>
    <g id="text_22">
     <text style="font-family:Arial;font-size:18px;font-style:normal;font-weight:regular;text-anchor:start;" transform="rotate(-0, 933.567187, 115.703437)" x="933.567187" y="115.703437">RGM deep</text>
    </g>
   </g>
  </g>
 </g>
 <defs>
  <clipPath id="p7c54a1d1a1">
   <rect height="554.4" width="405.818182" x="144" y="86.4"/>
  </clipPath>
  <clipPath id="pcff0cb1620">
   <rect height="554.4" width="405.818182" x="630.981818" y="86.4"/>
  </clipPath>
 </defs>
</svg>
