<?xml version="1.0" encoding="utf-8" standalone="no"?>
<!DOCTYPE svg PUBLIC "-//W3C//DTD SVG 1.1//EN"
  "http://www.w3.org/Graphics/SVG/1.1/DTD/svg11.dtd">
<!-- Created with matplotlib (https://matplotlib.org/) -->
<svg height="720pt" version="1.1" viewBox="0 0 1152 720" width="1152pt" xmlns="http://www.w3.org/2000/svg" xmlns:xlink="http://www.w3.org/1999/xlink">
 <defs>
  <style type="text/css">
*{stroke-linecap:butt;stroke-linejoin:round;}
  </style>
 </defs>
 <g id="figure_1">
  <g id="patch_1">
   <path d="M 0 720 
L 1152 720 
L 1152 0 
L 0 0 
z
" style="fill:none;"/>
  </g>
  <g id="axes_1">
   <g id="patch_2">
    <path d="M 144 640.8 
L 549.818182 640.8 
L 549.818182 86.4 
L 144 86.4 
z
" style="fill:none;"/>
   </g>
   <g id="matplotlib.axis_1">
    <g id="xtick_1">
     <g id="line2d_1">
      <defs>
       <path d="M 0 0 
L 0 3.5 
" id="m9ab0d49208" style="stroke:#000000;stroke-width:0.8;"/>
      </defs>
      <g>
       <use style="stroke:#000000;stroke-width:0.8;" x="162.446281" xlink:href="#m9ab0d49208" y="640.8"/>
      </g>
     </g>
     <g id="text_1">
      <text style="font-family:Arial;font-size:18px;font-style:normal;font-weight:regular;text-anchor:middle;" transform="rotate(-0, 162.446281, 660.684062)" x="162.446281" y="660.684062">Temp.</text>
     </g>
    </g>
    <g id="xtick_2">
     <g id="line2d_2">
      <g>
       <use style="stroke:#000000;stroke-width:0.8;" x="533.225798" xlink:href="#m9ab0d49208" y="640.8"/>
      </g>
     </g>
     <g id="text_2">
      <text style="font-family:Arial;font-size:18px;font-style:normal;font-weight:regular;text-anchor:middle;" transform="rotate(-0, 533.225798, 660.684062)" x="533.225798" y="660.684062">Nas.</text>
     </g>
    </g>
    <g id="text_3">
     <text style="font-family:Arial;font-size:18px;font-style:normal;font-weight:normal;text-anchor:middle;" transform="rotate(-0, 346.909091, 681.145625)" x="346.909091" y="681.145625">Retinal T-N axis</text>
    </g>
   </g>
   <g id="matplotlib.axis_2">
    <g id="ytick_1">
     <g id="line2d_3">
      <defs>
       <path d="M 0 0 
L -3.5 0 
" id="mdf51b39baa" style="stroke:#000000;stroke-width:0.8;"/>
      </defs>
      <g>
       <use style="stroke:#000000;stroke-width:0.8;" x="144" xlink:href="#mdf51b39baa" y="615.6"/>
      </g>
     </g>
     <g id="text_4">
      <text style="font-family:Arial;font-size:18px;font-style:normal;font-weight:regular;text-anchor:end;" transform="rotate(-0, 137, 622.042031)" x="137" y="622.042031">0.0</text>
     </g>
    </g>
    <g id="ytick_2">
     <g id="line2d_4">
      <g>
       <use style="stroke:#000000;stroke-width:0.8;" x="144" xlink:href="#mdf51b39baa" y="514.8"/>
      </g>
     </g>
     <g id="text_5">
      <text style="font-family:Arial;font-size:18px;font-style:normal;font-weight:regular;text-anchor:end;" transform="rotate(-0, 137, 521.242031)" x="137" y="521.242031">0.2</text>
     </g>
    </g>
    <g id="ytick_3">
     <g id="line2d_5">
      <g>
       <use style="stroke:#000000;stroke-width:0.8;" x="144" xlink:href="#mdf51b39baa" y="414"/>
      </g>
     </g>
     <g id="text_6">
      <text style="font-family:Arial;font-size:18px;font-style:normal;font-weight:regular;text-anchor:end;" transform="rotate(-0, 137, 420.442031)" x="137" y="420.442031">0.4</text>
     </g>
    </g>
    <g id="ytick_4">
     <g id="line2d_6">
      <g>
       <use style="stroke:#000000;stroke-width:0.8;" x="144" xlink:href="#mdf51b39baa" y="313.2"/>
      </g>
     </g>
     <g id="text_7">
      <text style="font-family:Arial;font-size:18px;font-style:normal;font-weight:regular;text-anchor:end;" transform="rotate(-0, 137, 319.642031)" x="137" y="319.642031">0.6</text>
     </g>
    </g>
    <g id="ytick_5">
     <g id="line2d_7">
      <g>
       <use style="stroke:#000000;stroke-width:0.8;" x="144" xlink:href="#mdf51b39baa" y="212.4"/>
      </g>
     </g>
     <g id="text_8">
      <text style="font-family:Arial;font-size:18px;font-style:normal;font-weight:regular;text-anchor:end;" transform="rotate(-0, 137, 218.842031)" x="137" y="218.842031">0.8</text>
     </g>
    </g>
    <g id="ytick_6">
     <g id="line2d_8">
      <g>
       <use style="stroke:#000000;stroke-width:0.8;" x="144" xlink:href="#mdf51b39baa" y="111.6"/>
      </g>
     </g>
     <g id="text_9">
      <text style="font-family:Arial;font-size:18px;font-style:normal;font-weight:regular;text-anchor:end;" transform="rotate(-0, 137, 118.042031)" x="137" y="118.042031">1.0</text>
     </g>
    </g>
    <g id="text_10">
     <text style="font-family:Arial;font-size:18px;font-style:normal;font-weight:normal;text-anchor:middle;" transform="rotate(-90, 104.4025, 363.6)" x="104.4025" y="363.6">Normalised expression</text>
    </g>
   </g>
   <g id="line2d_9">
    <path clip-path="url(#p6f3b2adfb8)" d="M 162.446281 292.065696 
L 164.300179 324.40224 
L 166.154076 341.804962 
L 168.007974 354.679642 
L 169.861871 375.004231 
L 171.715769 390.290477 
L 173.569667 347.386592 
L 175.423564 268.746931 
L 177.277462 420.452117 
L 179.131359 456.98298 
L 180.985257 444.683565 
L 182.839154 599.935855 
L 184.693052 579.953338 
L 186.54695 579.641898 
L 188.400847 467.709537 
L 190.254745 398.01622 
L 192.108642 439.26815 
L 193.96254 499.553947 
L 195.816438 535.288715 
L 197.670335 577.427835 
L 199.524233 608.740972 
L 201.37813 556.532149 
L 203.232028 499.765133 
L 205.085925 406.737558 
L 206.939823 401.403764 
L 208.793721 424.435399 
L 210.647618 411.927306 
L 212.501516 433.218035 
L 214.355413 508.805414 
L 216.209311 530.22305 
L 218.063209 541.057198 
L 219.917106 605.278648 
L 221.771004 600.663826 
L 223.624901 615.6 
L 225.478799 555.906768 
L 227.332697 540.116382 
L 229.186594 512.921926 
L 231.040492 552.232264 
L 232.894389 532.653954 
L 234.748287 519.336113 
L 236.602184 469.216441 
L 238.456082 478.832302 
L 240.30998 500.993905 
L 242.163877 388.130713 
L 244.017775 323.209953 
L 245.871672 202.843013 
L 247.72557 113.625016 
L 249.579468 240.053547 
L 251.433365 234.337876 
L 253.287263 271.026272 
L 255.14116 334.404816 
L 258.848956 303.257584 
L 260.702853 378.20707 
L 262.556751 334.397666 
L 264.410648 378.759174 
L 266.264546 473.269673 
L 268.118443 492.818167 
L 269.972341 482.623729 
L 273.680136 461.065021 
L 275.534034 431.482627 
L 277.387931 439.597742 
L 279.241829 446.409135 
L 281.095727 405.42652 
L 282.949624 427.589617 
L 284.803522 440.110538 
L 286.657419 396.313285 
L 288.511317 411.325064 
L 290.365215 421.931053 
L 292.219112 459.400554 
L 294.07301 357.089541 
L 295.926907 337.154505 
L 297.780805 245.854505 
L 299.634702 365.555247 
L 301.4886 393.166728 
L 303.342498 412.075197 
L 305.196395 246.658605 
L 307.050293 247.254163 
L 308.90419 366.912593 
L 310.758088 446.080219 
L 312.611986 402.656688 
L 314.465883 393.530131 
L 316.319781 411.070589 
L 318.173678 362.620041 
L 320.027576 425.356403 
L 321.881473 401.701873 
L 323.735371 398.151118 
L 325.589269 434.933962 
L 327.443166 456.789623 
L 329.297064 419.175716 
L 331.150961 402.246317 
L 333.004859 432.922419 
L 334.858757 425.059616 
L 336.712654 430.658895 
L 338.566552 423.582017 
L 340.420449 384.350792 
L 342.274347 361.52833 
L 344.128245 332.611293 
L 345.982142 336.321595 
L 347.83604 284.195052 
L 349.689937 269.744855 
L 351.543835 304.292488 
L 353.397732 301.825452 
L 355.25163 292.128631 
L 357.105528 321.385609 
L 358.959425 284.054671 
L 360.813323 270.240827 
L 362.66722 221.5328 
L 364.521118 231.62748 
L 366.375016 220.290555 
L 368.228913 231.9591 
L 370.082811 171.231111 
L 371.936708 189.228068 
L 373.790606 221.492004 
L 375.644504 211.710108 
L 377.498401 215.861078 
L 379.352299 217.807688 
L 381.206196 224.240342 
L 383.060094 282.754268 
L 384.913991 317.311214 
L 386.767889 347.108444 
L 388.621787 374.019105 
L 390.475684 336.375909 
L 392.329582 356.870724 
L 394.183479 361.917899 
L 396.037377 385.505453 
L 397.891275 386.053892 
L 399.745172 399.047969 
L 401.59907 386.313203 
L 403.452967 364.593117 
L 405.306865 277.821668 
L 407.160762 169.906224 
L 409.01466 348.68315 
L 410.868558 373.688357 
L 412.722455 360.155499 
L 414.576353 427.130444 
L 416.43025 401.008383 
L 418.284148 408.783242 
L 420.138046 435.752528 
L 421.991943 443.15383 
L 423.845841 437.449469 
L 425.699738 383.85515 
L 427.553636 389.888442 
L 429.407534 409.087525 
L 431.261431 405.731629 
L 433.115329 417.041096 
L 434.969226 374.763905 
L 436.823124 392.022566 
L 438.677021 374.364033 
L 440.530919 400.91778 
L 442.384817 367.901714 
L 444.238714 387.506332 
L 446.092612 354.381848 
L 447.946509 305.863679 
L 449.800407 377.601178 
L 451.654305 402.24115 
L 453.508202 398.381786 
L 455.3621 408.080589 
L 457.215997 408.781575 
L 459.069895 445.338077 
L 460.923793 422.657528 
L 462.77769 370.381412 
L 464.631588 346.314858 
L 466.485485 131.319523 
L 468.339383 345.891674 
L 470.19328 418.346652 
L 472.047178 446.826176 
L 473.901076 494.968776 
L 475.754973 462.053962 
L 477.608871 472.618149 
L 479.462768 487.130786 
L 481.316666 486.752228 
L 483.170564 473.976997 
L 485.024461 509.900451 
L 486.878359 492.199951 
L 488.732256 459.012833 
L 490.586154 430.428062 
L 492.440051 429.985877 
L 496.147847 478.310509 
L 498.001744 428.818058 
L 499.855642 438.664752 
L 501.709539 467.317145 
L 503.563437 476.884881 
L 505.417335 422.052297 
L 507.271232 460.084056 
L 509.12513 422.667186 
L 510.979027 421.957203 
L 512.832925 342.55541 
L 514.686823 354.367038 
L 516.54072 308.313411 
L 518.394618 111.6 
L 520.248515 245.212985 
L 522.102413 338.319485 
L 523.95631 365.642185 
L 525.810208 334.12003 
L 527.664106 381.209071 
L 529.518003 304.125762 
L 531.371901 515.672434 
L 531.371901 515.672434 
" style="fill:none;stroke:#8a2be2;stroke-linecap:square;stroke-width:3;"/>
   </g>
   <g id="patch_3">
    <path d="M 144 640.8 
L 144 86.4 
" style="fill:none;stroke:#000000;stroke-linecap:square;stroke-linejoin:miter;stroke-width:0.8;"/>
   </g>
   <g id="patch_4">
    <path d="M 549.818182 640.8 
L 549.818182 86.4 
" style="fill:none;stroke:#000000;stroke-linecap:square;stroke-linejoin:miter;stroke-width:0.8;"/>
   </g>
   <g id="patch_5">
    <path d="M 144 640.8 
L 549.818182 640.8 
" style="fill:none;stroke:#000000;stroke-linecap:square;stroke-linejoin:miter;stroke-width:0.8;"/>
   </g>
   <g id="patch_6">
    <path d="M 144 86.4 
L 549.818182 86.4 
" style="fill:none;stroke:#000000;stroke-linecap:square;stroke-linejoin:miter;stroke-width:0.8;"/>
   </g>
   <g id="legend_1">
    <g id="patch_7">
     <path d="M 338.537557 631.8 
L 537.218182 631.8 
Q 540.818182 631.8 540.818182 628.2 
L 540.818182 604.3275 
Q 540.818182 600.7275 537.218182 600.7275 
L 338.537557 600.7275 
Q 334.937557 600.7275 334.937557 604.3275 
L 334.937557 628.2 
Q 334.937557 631.8 338.537557 631.8 
z
" style="fill:#ffffff;opacity:0.8;stroke:#cccccc;stroke-linejoin:miter;"/>
    </g>
    <g id="line2d_10">
     <path d="M 342.137557 614.511563 
L 378.137557 614.511563 
" style="fill:none;stroke:#8a2be2;stroke-linecap:square;stroke-width:3;"/>
    </g>
    <g id="line2d_11"/>
    <g id="text_11">
     <text style="font-family:Arial;font-size:18px;font-style:normal;font-weight:regular;text-anchor:start;" transform="rotate(-0, 392.537557, 620.811563)" x="392.537557" y="620.811563">neogen all layers.</text>
    </g>
   </g>
  </g>
  <g id="axes_2">
   <g id="patch_8">
    <path d="M 630.981818 640.8 
L 1036.8 640.8 
L 1036.8 86.4 
L 630.981818 86.4 
z
" style="fill:none;"/>
   </g>
   <g id="matplotlib.axis_3">
    <g id="xtick_3">
     <g id="line2d_12">
      <g>
       <use style="stroke:#000000;stroke-width:0.8;" x="649.428099" xlink:href="#m9ab0d49208" y="640.8"/>
      </g>
     </g>
     <g id="text_12">
      <text style="font-family:Arial;font-size:18px;font-style:normal;font-weight:regular;text-anchor:middle;" transform="rotate(-0, 649.428099, 660.684062)" x="649.428099" y="660.684062">Temp.</text>
     </g>
    </g>
    <g id="xtick_4">
     <g id="line2d_13">
      <g>
       <use style="stroke:#000000;stroke-width:0.8;" x="1020.207617" xlink:href="#m9ab0d49208" y="640.8"/>
      </g>
     </g>
     <g id="text_13">
      <text style="font-family:Arial;font-size:18px;font-style:normal;font-weight:regular;text-anchor:middle;" transform="rotate(-0, 1020.207617, 660.684062)" x="1020.207617" y="660.684062">Nas.</text>
     </g>
    </g>
    <g id="text_14">
     <text style="font-family:Arial;font-size:18px;font-style:normal;font-weight:normal;text-anchor:middle;" transform="rotate(-0, 833.890909, 681.145625)" x="833.890909" y="681.145625">Retinal T-N axis</text>
    </g>
   </g>
   <g id="matplotlib.axis_4">
    <g id="ytick_7">
     <g id="line2d_14">
      <g>
       <use style="stroke:#000000;stroke-width:0.8;" x="630.981818" xlink:href="#mdf51b39baa" y="615.6"/>
      </g>
     </g>
     <g id="text_15">
      <text style="font-family:Arial;font-size:18px;font-style:normal;font-weight:regular;text-anchor:end;" transform="rotate(-0, 623.981818, 622.042031)" x="623.981818" y="622.042031">0.0</text>
     </g>
    </g>
    <g id="ytick_8">
     <g id="line2d_15">
      <g>
       <use style="stroke:#000000;stroke-width:0.8;" x="630.981818" xlink:href="#mdf51b39baa" y="514.799994"/>
      </g>
     </g>
     <g id="text_16">
      <text style="font-family:Arial;font-size:18px;font-style:normal;font-weight:regular;text-anchor:end;" transform="rotate(-0, 623.981818, 521.242025)" x="623.981818" y="521.242025">0.2</text>
     </g>
    </g>
    <g id="ytick_9">
     <g id="line2d_16">
      <g>
       <use style="stroke:#000000;stroke-width:0.8;" x="630.981818" xlink:href="#mdf51b39baa" y="413.999988"/>
      </g>
     </g>
     <g id="text_17">
      <text style="font-family:Arial;font-size:18px;font-style:normal;font-weight:regular;text-anchor:end;" transform="rotate(-0, 623.981818, 420.442019)" x="623.981818" y="420.442019">0.4</text>
     </g>
    </g>
    <g id="ytick_10">
     <g id="line2d_17">
      <g>
       <use style="stroke:#000000;stroke-width:0.8;" x="630.981818" xlink:href="#mdf51b39baa" y="313.199982"/>
      </g>
     </g>
     <g id="text_18">
      <text style="font-family:Arial;font-size:18px;font-style:normal;font-weight:regular;text-anchor:end;" transform="rotate(-0, 623.981818, 319.642013)" x="623.981818" y="319.642013">0.6</text>
     </g>
    </g>
    <g id="ytick_11">
     <g id="line2d_18">
      <g>
       <use style="stroke:#000000;stroke-width:0.8;" x="630.981818" xlink:href="#mdf51b39baa" y="212.399976"/>
      </g>
     </g>
     <g id="text_19">
      <text style="font-family:Arial;font-size:18px;font-style:normal;font-weight:regular;text-anchor:end;" transform="rotate(-0, 623.981818, 218.842007)" x="623.981818" y="218.842007">0.8</text>
     </g>
    </g>
    <g id="ytick_12">
     <g id="line2d_19">
      <g>
       <use style="stroke:#000000;stroke-width:0.8;" x="630.981818" xlink:href="#mdf51b39baa" y="111.59997"/>
      </g>
     </g>
     <g id="text_20">
      <text style="font-family:Arial;font-size:18px;font-style:normal;font-weight:regular;text-anchor:end;" transform="rotate(-0, 623.981818, 118.042001)" x="623.981818" y="118.042001">1.0</text>
     </g>
    </g>
    <g id="text_21">
     <text style="font-family:Arial;font-size:18px;font-style:normal;font-weight:normal;text-anchor:middle;" transform="rotate(-90, 591.384318, 363.6)" x="591.384318" y="363.6">Normalised expression</text>
    </g>
   </g>
   <g id="line2d_20">
    <path clip-path="url(#pc91570d67d)" d="M 649.428099 354.198494 
L 651.281997 289.086025 
L 653.135894 258.591157 
L 654.989792 269.64621 
L 658.697587 241.154548 
L 660.551485 263.950215 
L 664.25928 236.39988 
L 666.113177 230.649962 
L 667.967075 248.555115 
L 669.820973 111.6 
L 671.67487 346.981296 
L 673.528768 349.136929 
L 675.382665 376.269879 
L 677.236563 418.951526 
L 679.090461 423.181232 
L 680.944358 412.471797 
L 682.798256 420.22653 
L 684.652153 447.43377 
L 686.506051 482.080149 
L 688.359949 469.032478 
L 690.213846 398.522378 
L 692.067744 394.8552 
L 693.921641 395.090599 
L 695.775539 392.080982 
L 697.629436 429.432215 
L 699.483334 416.335773 
L 701.337232 447.263348 
L 703.191129 460.031265 
L 705.045027 488.60261 
L 706.898924 494.147921 
L 708.752822 530.545014 
L 710.60672 533.614457 
L 712.460617 541.942787 
L 714.314515 475.844366 
L 716.168412 479.112769 
L 718.02231 450.378408 
L 719.876207 497.390676 
L 721.730105 477.6647 
L 723.584003 488.94949 
L 725.4379 442.751109 
L 727.291798 401.30666 
L 729.145695 444.358544 
L 730.999593 432.0168 
L 732.853491 371.030352 
L 734.707388 248.564428 
L 736.561286 176.995843 
L 738.415183 183.344624 
L 740.269081 238.514538 
L 742.122979 274.430799 
L 743.976876 322.531946 
L 745.830774 291.025486 
L 747.684671 246.75228 
L 749.538569 330.331034 
L 751.392466 279.911012 
L 753.246364 359.746178 
L 755.100262 371.938634 
L 756.954159 399.663401 
L 758.808057 437.139828 
L 760.661954 441.256792 
L 762.515852 398.986373 
L 764.36975 443.891515 
L 766.223647 371.052853 
L 768.077545 413.242838 
L 769.931442 387.716423 
L 771.78534 412.199328 
L 773.639238 478.834141 
L 775.493135 473.623124 
L 777.347033 526.113839 
L 779.20093 491.40273 
L 781.054828 474.312484 
L 782.908725 447.417923 
L 784.762623 321.429481 
L 786.616521 336.209256 
L 788.470418 426.220634 
L 790.324316 468.086119 
L 792.178213 502.193222 
L 794.032111 274.920193 
L 795.886009 434.074786 
L 797.739906 511.527985 
L 799.593804 522.12569 
L 801.447701 513.419823 
L 803.301599 494.558262 
L 805.155496 504.27446 
L 807.009394 443.494872 
L 808.863292 511.145799 
L 810.717189 507.64817 
L 812.571087 501.46743 
L 814.424984 484.538548 
L 816.278882 494.860389 
L 818.13278 494.508995 
L 819.986677 491.058245 
L 821.840575 519.202283 
L 823.694472 515.831464 
L 825.54837 507.38412 
L 827.402268 517.527369 
L 829.256165 506.971638 
L 831.110063 477.527835 
L 832.96396 504.050626 
L 834.817858 477.925349 
L 836.671755 461.336941 
L 838.525653 413.981946 
L 840.379551 386.247491 
L 842.233448 439.232872 
L 844.087346 456.144654 
L 845.941243 448.195498 
L 847.795141 478.715375 
L 849.649039 457.638099 
L 851.502936 464.492721 
L 853.356834 429.098162 
L 855.210731 434.49405 
L 857.064629 418.836019 
L 858.918527 389.287899 
L 860.772424 362.938668 
L 862.626322 399.710415 
L 864.480219 403.79534 
L 866.334117 409.647922 
L 868.188014 408.23027 
L 870.041912 432.691305 
L 871.89581 453.78593 
L 873.749707 491.019282 
L 875.603605 525.328604 
L 877.457502 535.301816 
L 879.3114 575.365821 
L 881.165298 573.332848 
L 883.019195 584.30809 
L 884.873093 576.133088 
L 886.72699 592.926361 
L 888.580888 588.842694 
L 890.434785 596.248041 
L 892.288683 573.068797 
L 894.142581 482.567785 
L 895.996478 223.569509 
L 897.850376 509.010901 
L 899.704273 588.219204 
L 901.558171 593.74968 
L 903.412069 613.672848 
L 905.265966 576.130827 
L 907.119864 574.390308 
L 908.973761 598.067864 
L 910.827659 598.286921 
L 912.681557 602.130042 
L 914.535454 580.779798 
L 916.389352 557.573155 
L 918.243249 571.366107 
L 920.097147 571.290325 
L 923.804942 551.854791 
L 925.65884 548.942063 
L 927.512737 531.047476 
L 929.366635 510.607769 
L 931.220532 539.421303 
L 933.07443 556.07909 
L 934.928328 548.192644 
L 936.782225 563.56462 
L 938.636123 571.390113 
L 940.49002 597.710058 
L 942.343918 583.849241 
L 944.197816 580.533088 
L 946.051713 594.178369 
L 947.905611 570.045226 
L 949.759508 528.127335 
L 951.613406 162.539697 
L 953.467303 330.863025 
L 955.321201 566.97528 
L 957.175099 556.585573 
L 959.028996 601.702107 
L 960.882894 606.733767 
L 962.736791 595.145591 
L 964.590689 602.053628 
L 966.444587 615.6 
L 968.298484 603.755817 
L 970.152382 599.100437 
L 972.006279 584.05686 
L 973.860177 563.401615 
L 975.714075 571.322119 
L 977.567972 555.393012 
L 979.42187 549.087475 
L 981.275767 542.244787 
L 983.129665 554.76952 
L 984.983562 555.012208 
L 986.83746 585.5743 
L 988.691358 565.328139 
L 990.545255 554.085579 
L 992.399153 538.649128 
L 994.25305 542.109814 
L 996.106948 531.416842 
L 997.960846 548.659665 
L 999.814743 537.133828 
L 1001.668641 523.671535 
L 1003.522538 489.515293 
L 1005.376436 356.495379 
L 1007.230333 193.750286 
L 1009.084231 511.860281 
L 1010.938129 502.905691 
L 1012.792026 509.12263 
L 1014.645924 516.750801 
L 1016.499821 519.411667 
L 1018.353719 570.335168 
L 1018.353719 570.335168 
" style="fill:none;stroke:#8a2be2;stroke-linecap:square;stroke-width:3;"/>
   </g>
   <g id="patch_9">
    <path d="M 630.981818 640.8 
L 630.981818 86.4 
" style="fill:none;stroke:#000000;stroke-linecap:square;stroke-linejoin:miter;stroke-width:0.8;"/>
   </g>
   <g id="patch_10">
    <path d="M 1036.8 640.8 
L 1036.8 86.4 
" style="fill:none;stroke:#000000;stroke-linecap:square;stroke-linejoin:miter;stroke-width:0.8;"/>
   </g>
   <g id="patch_11">
    <path d="M 630.981818 640.8 
L 1036.8 640.8 
" style="fill:none;stroke:#000000;stroke-linecap:square;stroke-linejoin:miter;stroke-width:0.8;"/>
   </g>
   <g id="patch_12">
    <path d="M 630.981818 86.4 
L 1036.8 86.4 
" style="fill:none;stroke:#000000;stroke-linecap:square;stroke-linejoin:miter;stroke-width:0.8;"/>
   </g>
   <g id="legend_2">
    <g id="patch_13">
     <path d="M 861.5025 126.4725 
L 1024.2 126.4725 
Q 1027.8 126.4725 1027.8 122.8725 
L 1027.8 99 
Q 1027.8 95.4 1024.2 95.4 
L 861.5025 95.4 
Q 857.9025 95.4 857.9025 99 
L 857.9025 122.8725 
Q 857.9025 126.4725 861.5025 126.4725 
z
" style="fill:#ffffff;opacity:0.8;stroke:#cccccc;stroke-linejoin:miter;"/>
    </g>
    <g id="line2d_21">
     <path d="M 865.1025 109.184062 
L 901.1025 109.184062 
" style="fill:none;stroke:#8a2be2;stroke-linecap:square;stroke-width:3;"/>
    </g>
    <g id="line2d_22"/>
    <g id="text_22">
     <text style="font-family:Arial;font-size:18px;font-style:normal;font-weight:regular;text-anchor:start;" transform="rotate(-0, 915.5025, 115.484062)" x="915.5025" y="115.484062">neogen deep</text>
    </g>
   </g>
  </g>
 </g>
 <defs>
  <clipPath id="p6f3b2adfb8">
   <rect height="554.4" width="405.818182" x="144" y="86.4"/>
  </clipPath>
  <clipPath id="pc91570d67d">
   <rect height="554.4" width="405.818182" x="630.981818" y="86.4"/>
  </clipPath>
 </defs>
</svg>
