<?xml version="1.0" encoding="utf-8" standalone="no"?>
<!DOCTYPE svg PUBLIC "-//W3C//DTD SVG 1.1//EN"
  "http://www.w3.org/Graphics/SVG/1.1/DTD/svg11.dtd">
<!-- Created with matplotlib (https://matplotlib.org/) -->
<svg height="720pt" version="1.1" viewBox="0 0 1152 720" width="1152pt" xmlns="http://www.w3.org/2000/svg" xmlns:xlink="http://www.w3.org/1999/xlink">
 <defs>
  <style type="text/css">
*{stroke-linecap:butt;stroke-linejoin:round;}
  </style>
 </defs>
 <g id="figure_1">
  <g id="patch_1">
   <path d="M 0 720 
L 1152 720 
L 1152 0 
L 0 0 
z
" style="fill:none;"/>
  </g>
  <g id="axes_1">
   <g id="patch_2">
    <path d="M 144 640.8 
L 549.818182 640.8 
L 549.818182 86.4 
L 144 86.4 
z
" style="fill:none;"/>
   </g>
   <g id="matplotlib.axis_1">
    <g id="xtick_1">
     <g id="line2d_1">
      <defs>
       <path d="M 0 0 
L 0 3.5 
" id="m7e0ebe819d" style="stroke:#000000;stroke-width:0.8;"/>
      </defs>
      <g>
       <use style="stroke:#000000;stroke-width:0.8;" x="162.446281" xlink:href="#m7e0ebe819d" y="640.8"/>
      </g>
     </g>
     <g id="text_1">
      <text style="font-family:Arial;font-size:18px;font-style:normal;font-weight:regular;text-anchor:middle;" transform="rotate(-0, 162.446281, 660.684062)" x="162.446281" y="660.684062">Temp.</text>
     </g>
    </g>
    <g id="xtick_2">
     <g id="line2d_2">
      <g>
       <use style="stroke:#000000;stroke-width:0.8;" x="533.225798" xlink:href="#m7e0ebe819d" y="640.8"/>
      </g>
     </g>
     <g id="text_2">
      <text style="font-family:Arial;font-size:18px;font-style:normal;font-weight:regular;text-anchor:middle;" transform="rotate(-0, 533.225798, 660.684062)" x="533.225798" y="660.684062">Nas.</text>
     </g>
    </g>
    <g id="text_3">
     <text style="font-family:Arial;font-size:18px;font-style:normal;font-weight:normal;text-anchor:middle;" transform="rotate(-0, 346.909091, 681.145625)" x="346.909091" y="681.145625">Retinal T-N axis</text>
    </g>
   </g>
   <g id="matplotlib.axis_2">
    <g id="ytick_1">
     <g id="line2d_3">
      <defs>
       <path d="M 0 0 
L -3.5 0 
" id="m55febc5bff" style="stroke:#000000;stroke-width:0.8;"/>
      </defs>
      <g>
       <use style="stroke:#000000;stroke-width:0.8;" x="144" xlink:href="#m55febc5bff" y="615.6"/>
      </g>
     </g>
     <g id="text_4">
      <text style="font-family:Arial;font-size:18px;font-style:normal;font-weight:regular;text-anchor:end;" transform="rotate(-0, 137, 622.042031)" x="137" y="622.042031">0.0</text>
     </g>
    </g>
    <g id="ytick_2">
     <g id="line2d_4">
      <g>
       <use style="stroke:#000000;stroke-width:0.8;" x="144" xlink:href="#m55febc5bff" y="514.8"/>
      </g>
     </g>
     <g id="text_5">
      <text style="font-family:Arial;font-size:18px;font-style:normal;font-weight:regular;text-anchor:end;" transform="rotate(-0, 137, 521.242031)" x="137" y="521.242031">0.2</text>
     </g>
    </g>
    <g id="ytick_3">
     <g id="line2d_5">
      <g>
       <use style="stroke:#000000;stroke-width:0.8;" x="144" xlink:href="#m55febc5bff" y="414"/>
      </g>
     </g>
     <g id="text_6">
      <text style="font-family:Arial;font-size:18px;font-style:normal;font-weight:regular;text-anchor:end;" transform="rotate(-0, 137, 420.442031)" x="137" y="420.442031">0.4</text>
     </g>
    </g>
    <g id="ytick_4">
     <g id="line2d_6">
      <g>
       <use style="stroke:#000000;stroke-width:0.8;" x="144" xlink:href="#m55febc5bff" y="313.2"/>
      </g>
     </g>
     <g id="text_7">
      <text style="font-family:Arial;font-size:18px;font-style:normal;font-weight:regular;text-anchor:end;" transform="rotate(-0, 137, 319.642031)" x="137" y="319.642031">0.6</text>
     </g>
    </g>
    <g id="ytick_5">
     <g id="line2d_7">
      <g>
       <use style="stroke:#000000;stroke-width:0.8;" x="144" xlink:href="#m55febc5bff" y="212.4"/>
      </g>
     </g>
     <g id="text_8">
      <text style="font-family:Arial;font-size:18px;font-style:normal;font-weight:regular;text-anchor:end;" transform="rotate(-0, 137, 218.842031)" x="137" y="218.842031">0.8</text>
     </g>
    </g>
    <g id="ytick_6">
     <g id="line2d_8">
      <g>
       <use style="stroke:#000000;stroke-width:0.8;" x="144" xlink:href="#m55febc5bff" y="111.6"/>
      </g>
     </g>
     <g id="text_9">
      <text style="font-family:Arial;font-size:18px;font-style:normal;font-weight:regular;text-anchor:end;" transform="rotate(-0, 137, 118.042031)" x="137" y="118.042031">1.0</text>
     </g>
    </g>
    <g id="text_10">
     <text style="font-family:Arial;font-size:18px;font-style:normal;font-weight:normal;text-anchor:middle;" transform="rotate(-90, 104.4025, 363.6)" x="104.4025" y="363.6">Normalised expression</text>
    </g>
   </g>
   <g id="line2d_9">
    <path clip-path="url(#pb3b5b00ce9)" d="M 162.446281 322.795782 
L 164.300179 355.259999 
L 166.154076 376.142145 
L 168.007974 381.224377 
L 169.861871 414.770061 
L 171.715769 419.50286 
L 173.569667 373.836382 
L 175.423564 284.791 
L 177.277462 411.963415 
L 179.131359 462.435299 
L 180.985257 456.100413 
L 182.839154 615.6 
L 186.54695 572.205722 
L 188.400847 445.792969 
L 190.254745 393.871574 
L 192.108642 428.063675 
L 195.816438 523.461428 
L 197.670335 565.86055 
L 199.524233 593.206593 
L 201.37813 545.266935 
L 203.232028 480.404739 
L 205.085925 401.818131 
L 206.939823 387.332215 
L 208.793721 378.288405 
L 210.647618 385.994817 
L 212.501516 419.544316 
L 214.355413 475.807319 
L 216.209311 508.91854 
L 218.063209 525.782413 
L 219.917106 574.704251 
L 221.771004 590.390918 
L 223.624901 603.344122 
L 225.478799 540.637221 
L 227.332697 512.356102 
L 229.186594 489.597041 
L 231.040492 527.201462 
L 232.894389 500.943076 
L 234.748287 489.642162 
L 236.602184 438.199932 
L 238.456082 451.912509 
L 240.30998 473.739735 
L 242.163877 347.873011 
L 244.017775 283.963948 
L 245.871672 201.362034 
L 247.72557 111.6 
L 249.579468 262.127694 
L 251.433365 236.931443 
L 253.287263 271.47454 
L 255.14116 339.221638 
L 256.995058 334.252509 
L 258.848956 307.669067 
L 260.702853 395.329812 
L 262.556751 333.057519 
L 266.264546 453.01936 
L 268.118443 492.478143 
L 269.972341 467.920844 
L 271.826239 444.950537 
L 273.680136 448.505423 
L 275.534034 399.131332 
L 277.387931 425.35786 
L 279.241829 430.963403 
L 281.095727 376.720309 
L 282.949624 400.86246 
L 284.803522 403.858769 
L 286.657419 362.467074 
L 288.511317 382.586725 
L 290.365215 383.363022 
L 292.219112 415.522236 
L 294.07301 330.314048 
L 295.926907 305.759708 
L 297.780805 210.099955 
L 299.634702 342.482921 
L 301.4886 369.235433 
L 303.342498 380.595865 
L 305.196395 211.01854 
L 307.050293 209.826944 
L 308.90419 317.24239 
L 310.758088 411.955229 
L 312.611986 368.906442 
L 314.465883 352.425716 
L 316.319781 354.344958 
L 318.173678 310.260832 
L 320.027576 366.079202 
L 321.881473 351.452005 
L 323.735371 334.921336 
L 325.589269 378.020337 
L 327.443166 409.162687 
L 329.297064 363.307824 
L 331.150961 350.381683 
L 333.004859 360.786144 
L 334.858757 370.466502 
L 336.712654 353.492072 
L 338.566552 370.429853 
L 340.420449 330.427001 
L 342.274347 326.662025 
L 344.128245 290.651228 
L 345.982142 283.506188 
L 347.83604 246.440449 
L 349.689937 236.20647 
L 351.543835 262.87691 
L 353.397732 260.882235 
L 355.25163 254.807517 
L 357.105528 253.841406 
L 358.959425 249.148532 
L 360.813323 238.958412 
L 362.66722 164.325886 
L 364.521118 199.927168 
L 366.375016 199.798143 
L 368.228913 199.79574 
L 370.082811 144.079028 
L 371.936708 176.485597 
L 373.790606 195.085532 
L 375.644504 195.448635 
L 377.498401 212.876711 
L 379.352299 205.524269 
L 381.206196 220.735008 
L 383.060094 252.016251 
L 384.913991 292.576388 
L 386.767889 311.482318 
L 388.621787 347.444871 
L 390.475684 309.518645 
L 392.329582 336.056396 
L 394.183479 344.137625 
L 396.037377 359.584424 
L 397.891275 383.825695 
L 399.745172 375.378389 
L 401.59907 374.565712 
L 403.452967 359.871373 
L 405.306865 350.359273 
L 407.160762 332.22512 
L 409.01466 403.020707 
L 410.868558 413.90238 
L 412.722455 403.290893 
L 414.576353 456.40022 
L 416.43025 433.763275 
L 418.284148 446.146218 
L 421.991943 461.208736 
L 423.845841 458.84812 
L 425.699738 406.749889 
L 427.553636 414.071464 
L 429.407534 435.347173 
L 431.261431 424.939738 
L 433.115329 454.817178 
L 434.969226 413.304899 
L 436.823124 416.974 
L 438.677021 405.292628 
L 440.530919 436.122479 
L 442.384817 408.821003 
L 444.238714 416.290213 
L 446.092612 369.160421 
L 447.946509 332.361745 
L 449.800407 385.589387 
L 451.654305 412.811766 
L 453.508202 414.194285 
L 455.3621 416.697475 
L 457.215997 417.032384 
L 459.069895 461.249637 
L 460.923793 416.190793 
L 462.77769 381.520218 
L 464.631588 361.662012 
L 466.485485 421.546036 
L 468.339383 438.702243 
L 470.19328 453.418571 
L 472.047178 463.769168 
L 473.901076 484.849718 
L 475.754973 455.885937 
L 479.462768 487.039988 
L 481.316666 484.662173 
L 483.170564 464.056989 
L 485.024461 519.029562 
L 486.878359 495.187067 
L 488.732256 468.64439 
L 490.586154 417.260274 
L 492.440051 440.557169 
L 494.293949 455.77764 
L 496.147847 486.151864 
L 498.001744 435.552501 
L 499.855642 455.909204 
L 501.709539 470.932804 
L 503.563437 493.114692 
L 505.417335 431.566666 
L 507.271232 470.365635 
L 509.12513 426.641667 
L 510.979027 429.245538 
L 512.832925 364.626883 
L 514.686823 365.593834 
L 516.54072 308.192257 
L 518.394618 117.913572 
L 520.248515 263.880391 
L 522.102413 363.436278 
L 523.95631 380.538036 
L 525.810208 356.691591 
L 527.664106 367.294065 
L 529.518003 319.222285 
L 531.371901 513.644286 
L 531.371901 513.644286 
" style="fill:none;stroke:#8a2be2;stroke-linecap:square;stroke-width:3;"/>
   </g>
   <g id="patch_3">
    <path d="M 144 640.8 
L 144 86.4 
" style="fill:none;stroke:#000000;stroke-linecap:square;stroke-linejoin:miter;stroke-width:0.8;"/>
   </g>
   <g id="patch_4">
    <path d="M 549.818182 640.8 
L 549.818182 86.4 
" style="fill:none;stroke:#000000;stroke-linecap:square;stroke-linejoin:miter;stroke-width:0.8;"/>
   </g>
   <g id="patch_5">
    <path d="M 144 640.8 
L 549.818182 640.8 
" style="fill:none;stroke:#000000;stroke-linecap:square;stroke-linejoin:miter;stroke-width:0.8;"/>
   </g>
   <g id="patch_6">
    <path d="M 144 86.4 
L 549.818182 86.4 
" style="fill:none;stroke:#000000;stroke-linecap:square;stroke-linejoin:miter;stroke-width:0.8;"/>
   </g>
   <g id="legend_1">
    <g id="patch_7">
     <path d="M 338.537557 631.8 
L 537.218182 631.8 
Q 540.818182 631.8 540.818182 628.2 
L 540.818182 604.3275 
Q 540.818182 600.7275 537.218182 600.7275 
L 338.537557 600.7275 
Q 334.937557 600.7275 334.937557 604.3275 
L 334.937557 628.2 
Q 334.937557 631.8 338.537557 631.8 
z
" style="fill:#ffffff;opacity:0.8;stroke:#cccccc;stroke-linejoin:miter;"/>
    </g>
    <g id="line2d_10">
     <path d="M 342.137557 614.511563 
L 378.137557 614.511563 
" style="fill:none;stroke:#8a2be2;stroke-linecap:square;stroke-width:3;"/>
    </g>
    <g id="line2d_11"/>
    <g id="text_11">
     <text style="font-family:Arial;font-size:18px;font-style:normal;font-weight:regular;text-anchor:start;" transform="rotate(-0, 392.537557, 620.811563)" x="392.537557" y="620.811563">neogen all layers.</text>
    </g>
   </g>
  </g>
  <g id="axes_2">
   <g id="patch_8">
    <path d="M 630.981818 640.8 
L 1036.8 640.8 
L 1036.8 86.4 
L 630.981818 86.4 
z
" style="fill:none;"/>
   </g>
   <g id="matplotlib.axis_3">
    <g id="xtick_3">
     <g id="line2d_12">
      <g>
       <use style="stroke:#000000;stroke-width:0.8;" x="649.428099" xlink:href="#m7e0ebe819d" y="640.8"/>
      </g>
     </g>
     <g id="text_12">
      <text style="font-family:Arial;font-size:18px;font-style:normal;font-weight:regular;text-anchor:middle;" transform="rotate(-0, 649.428099, 660.684062)" x="649.428099" y="660.684062">Temp.</text>
     </g>
    </g>
    <g id="xtick_4">
     <g id="line2d_13">
      <g>
       <use style="stroke:#000000;stroke-width:0.8;" x="1020.207617" xlink:href="#m7e0ebe819d" y="640.8"/>
      </g>
     </g>
     <g id="text_13">
      <text style="font-family:Arial;font-size:18px;font-style:normal;font-weight:regular;text-anchor:middle;" transform="rotate(-0, 1020.207617, 660.684062)" x="1020.207617" y="660.684062">Nas.</text>
     </g>
    </g>
    <g id="text_14">
     <text style="font-family:Arial;font-size:18px;font-style:normal;font-weight:normal;text-anchor:middle;" transform="rotate(-0, 833.890909, 681.145625)" x="833.890909" y="681.145625">Retinal T-N axis</text>
    </g>
   </g>
   <g id="matplotlib.axis_4">
    <g id="ytick_7">
     <g id="line2d_14">
      <g>
       <use style="stroke:#000000;stroke-width:0.8;" x="630.981818" xlink:href="#m55febc5bff" y="615.6"/>
      </g>
     </g>
     <g id="text_15">
      <text style="font-family:Arial;font-size:18px;font-style:normal;font-weight:regular;text-anchor:end;" transform="rotate(-0, 623.981818, 622.042031)" x="623.981818" y="622.042031">0.0</text>
     </g>
    </g>
    <g id="ytick_8">
     <g id="line2d_15">
      <g>
       <use style="stroke:#000000;stroke-width:0.8;" x="630.981818" xlink:href="#m55febc5bff" y="514.8"/>
      </g>
     </g>
     <g id="text_16">
      <text style="font-family:Arial;font-size:18px;font-style:normal;font-weight:regular;text-anchor:end;" transform="rotate(-0, 623.981818, 521.242031)" x="623.981818" y="521.242031">0.2</text>
     </g>
    </g>
    <g id="ytick_9">
     <g id="line2d_16">
      <g>
       <use style="stroke:#000000;stroke-width:0.8;" x="630.981818" xlink:href="#m55febc5bff" y="414"/>
      </g>
     </g>
     <g id="text_17">
      <text style="font-family:Arial;font-size:18px;font-style:normal;font-weight:regular;text-anchor:end;" transform="rotate(-0, 623.981818, 420.442031)" x="623.981818" y="420.442031">0.4</text>
     </g>
    </g>
    <g id="ytick_10">
     <g id="line2d_17">
      <g>
       <use style="stroke:#000000;stroke-width:0.8;" x="630.981818" xlink:href="#m55febc5bff" y="313.2"/>
      </g>
     </g>
     <g id="text_18">
      <text style="font-family:Arial;font-size:18px;font-style:normal;font-weight:regular;text-anchor:end;" transform="rotate(-0, 623.981818, 319.642031)" x="623.981818" y="319.642031">0.6</text>
     </g>
    </g>
    <g id="ytick_11">
     <g id="line2d_18">
      <g>
       <use style="stroke:#000000;stroke-width:0.8;" x="630.981818" xlink:href="#m55febc5bff" y="212.4"/>
      </g>
     </g>
     <g id="text_19">
      <text style="font-family:Arial;font-size:18px;font-style:normal;font-weight:regular;text-anchor:end;" transform="rotate(-0, 623.981818, 218.842031)" x="623.981818" y="218.842031">0.8</text>
     </g>
    </g>
    <g id="ytick_12">
     <g id="line2d_19">
      <g>
       <use style="stroke:#000000;stroke-width:0.8;" x="630.981818" xlink:href="#m55febc5bff" y="111.6"/>
      </g>
     </g>
     <g id="text_20">
      <text style="font-family:Arial;font-size:18px;font-style:normal;font-weight:regular;text-anchor:end;" transform="rotate(-0, 623.981818, 118.042031)" x="623.981818" y="118.042031">1.0</text>
     </g>
    </g>
    <g id="text_21">
     <text style="font-family:Arial;font-size:18px;font-style:normal;font-weight:normal;text-anchor:middle;" transform="rotate(-90, 591.384318, 363.6)" x="591.384318" y="363.6">Normalised expression</text>
    </g>
   </g>
   <g id="line2d_20">
    <path clip-path="url(#p1d34a9e9b2)" d="M 649.428099 374.889956 
L 651.281997 322.12344 
L 653.135894 279.519451 
L 654.989792 298.481437 
L 656.84369 285.486113 
L 658.697587 282.281366 
L 660.551485 308.438681 
L 662.405382 286.657521 
L 664.25928 270.174617 
L 666.113177 256.655803 
L 667.967075 267.985038 
L 669.820973 111.6 
L 671.67487 348.261288 
L 673.528768 342.642317 
L 675.382665 357.141241 
L 677.236563 408.580167 
L 679.090461 407.946427 
L 680.944358 390.785429 
L 682.798256 408.112718 
L 684.652153 436.34801 
L 686.506051 460.959278 
L 688.359949 463.479696 
L 690.213846 395.937881 
L 692.067744 389.843201 
L 693.921641 391.401835 
L 695.775539 392.057068 
L 697.629436 403.712575 
L 699.483334 409.369908 
L 701.337232 432.844884 
L 703.191129 435.020224 
L 705.045027 470.729128 
L 706.898924 472.871198 
L 708.752822 503.892228 
L 710.60672 500.277936 
L 712.460617 508.522948 
L 714.314515 455.304904 
L 716.168412 443.583908 
L 718.02231 418.702965 
L 719.876207 462.350149 
L 721.730105 456.760724 
L 723.584003 449.215586 
L 725.4379 412.152687 
L 727.291798 366.945187 
L 729.145695 420.033815 
L 730.999593 409.195852 
L 732.853491 344.779746 
L 734.707388 237.875113 
L 736.561286 187.82057 
L 738.415183 204.944903 
L 740.269081 234.396245 
L 742.122979 260.267301 
L 743.976876 296.258031 
L 745.830774 296.366779 
L 747.684671 246.44814 
L 749.538569 319.301202 
L 751.392466 261.862164 
L 753.246364 338.96464 
L 755.100262 346.804282 
L 756.954159 378.265424 
L 758.808057 404.707795 
L 760.661954 403.886917 
L 762.515852 347.98236 
L 764.36975 414.897464 
L 766.223647 353.97005 
L 768.077545 384.399758 
L 769.931442 344.47294 
L 771.78534 379.41247 
L 773.639238 441.697981 
L 775.493135 451.112449 
L 777.347033 499.463269 
L 779.20093 462.790186 
L 781.054828 448.06447 
L 782.908725 417.080585 
L 784.762623 311.20312 
L 786.616521 326.03186 
L 788.470418 398.827831 
L 790.324316 454.781039 
L 792.178213 486.843867 
L 794.032111 242.200379 
L 795.886009 403.642731 
L 797.739906 484.532998 
L 799.593804 493.396932 
L 801.447701 469.844052 
L 803.301599 469.271821 
L 805.155496 461.41061 
L 807.009394 409.938894 
L 808.863292 472.740025 
L 810.717189 473.213782 
L 812.571087 444.05331 
L 814.424984 457.211125 
L 818.13278 446.719261 
L 819.986677 462.786761 
L 821.840575 477.711197 
L 823.694472 467.705407 
L 825.54837 467.42786 
L 827.402268 469.670176 
L 829.256165 459.23518 
L 831.110063 442.655109 
L 832.96396 455.733916 
L 834.817858 444.852964 
L 836.671755 423.707107 
L 838.525653 366.360549 
L 840.379551 352.114133 
L 842.233448 395.837005 
L 844.087346 420.374252 
L 845.941243 419.427578 
L 847.795141 435.83155 
L 849.649039 428.744894 
L 851.502936 423.439293 
L 853.356834 396.723552 
L 855.210731 394.430287 
L 857.064629 389.987907 
L 858.918527 370.370868 
L 860.772424 344.131557 
L 862.626322 383.696264 
L 864.480219 380.106891 
L 866.334117 395.705546 
L 868.188014 400.431405 
L 870.041912 422.065185 
L 871.89581 431.004709 
L 873.749707 466.169919 
L 875.603605 488.631426 
L 877.457502 518.962286 
L 879.3114 534.950584 
L 881.165298 538.801754 
L 883.019195 552.592663 
L 884.873093 546.064329 
L 886.72699 569.632773 
L 888.580888 568.549181 
L 890.434785 567.00434 
L 892.288683 557.119532 
L 894.142581 476.804071 
L 895.996478 205.251139 
L 897.850376 521.479647 
L 899.704273 588.463125 
L 901.558171 595.346536 
L 903.412069 606.327812 
L 905.265966 572.455931 
L 907.119864 561.258342 
L 908.973761 585.528706 
L 910.827659 593.133495 
L 912.681557 588.842849 
L 914.535454 575.655296 
L 916.389352 545.713415 
L 918.243249 553.899326 
L 920.097147 557.744379 
L 921.951044 557.844246 
L 923.804942 541.017199 
L 925.65884 536.166092 
L 927.512737 518.685949 
L 929.366635 507.871515 
L 931.220532 535.402938 
L 933.07443 548.20558 
L 934.928328 544.282613 
L 936.782225 553.871812 
L 938.636123 567.494121 
L 940.49002 576.377874 
L 942.343918 575.593968 
L 944.197816 570.850599 
L 946.051713 579.474225 
L 947.905611 563.614975 
L 949.759508 560.923456 
L 951.613406 567.300692 
L 953.467303 585.89009 
L 955.321201 591.058299 
L 957.175099 583.117142 
L 959.028996 605.799217 
L 960.882894 604.837629 
L 962.736791 598.854664 
L 964.590689 600.997763 
L 966.444587 615.6 
L 968.298484 606.869191 
L 970.152382 604.473652 
L 972.006279 589.937836 
L 973.860177 573.630032 
L 975.714075 569.547732 
L 977.567972 557.608389 
L 979.42187 556.265222 
L 981.275767 563.008377 
L 983.129665 568.019101 
L 984.983562 576.773349 
L 986.83746 595.572388 
L 988.691358 581.360251 
L 990.545255 572.907823 
L 992.399153 555.703276 
L 994.25305 558.203867 
L 996.106948 549.194033 
L 997.960846 562.026131 
L 999.814743 562.901379 
L 1001.668641 548.231333 
L 1003.522538 513.297909 
L 1005.376436 379.846859 
L 1007.230333 225.49962 
L 1009.084231 547.437326 
L 1010.938129 537.760678 
L 1012.792026 542.694606 
L 1014.645924 551.773459 
L 1016.499821 545.651254 
L 1018.353719 590.69321 
L 1018.353719 590.69321 
" style="fill:none;stroke:#8a2be2;stroke-linecap:square;stroke-width:3;"/>
   </g>
   <g id="patch_9">
    <path d="M 630.981818 640.8 
L 630.981818 86.4 
" style="fill:none;stroke:#000000;stroke-linecap:square;stroke-linejoin:miter;stroke-width:0.8;"/>
   </g>
   <g id="patch_10">
    <path d="M 1036.8 640.8 
L 1036.8 86.4 
" style="fill:none;stroke:#000000;stroke-linecap:square;stroke-linejoin:miter;stroke-width:0.8;"/>
   </g>
   <g id="patch_11">
    <path d="M 630.981818 640.8 
L 1036.8 640.8 
" style="fill:none;stroke:#000000;stroke-linecap:square;stroke-linejoin:miter;stroke-width:0.8;"/>
   </g>
   <g id="patch_12">
    <path d="M 630.981818 86.4 
L 1036.8 86.4 
" style="fill:none;stroke:#000000;stroke-linecap:square;stroke-linejoin:miter;stroke-width:0.8;"/>
   </g>
   <g id="legend_2">
    <g id="patch_13">
     <path d="M 861.5025 126.4725 
L 1024.2 126.4725 
Q 1027.8 126.4725 1027.8 122.8725 
L 1027.8 99 
Q 1027.8 95.4 1024.2 95.4 
L 861.5025 95.4 
Q 857.9025 95.4 857.9025 99 
L 857.9025 122.8725 
Q 857.9025 126.4725 861.5025 126.4725 
z
" style="fill:#ffffff;opacity:0.8;stroke:#cccccc;stroke-linejoin:miter;"/>
    </g>
    <g id="line2d_21">
     <path d="M 865.1025 109.184062 
L 901.1025 109.184062 
" style="fill:none;stroke:#8a2be2;stroke-linecap:square;stroke-width:3;"/>
    </g>
    <g id="line2d_22"/>
    <g id="text_22">
     <text style="font-family:Arial;font-size:18px;font-style:normal;font-weight:regular;text-anchor:start;" transform="rotate(-0, 915.5025, 115.484062)" x="915.5025" y="115.484062">neogen deep</text>
    </g>
   </g>
  </g>
 </g>
 <defs>
  <clipPath id="pb3b5b00ce9">
   <rect height="554.4" width="405.818182" x="144" y="86.4"/>
  </clipPath>
  <clipPath id="p1d34a9e9b2">
   <rect height="554.4" width="405.818182" x="630.981818" y="86.4"/>
  </clipPath>
 </defs>
</svg>
